Fraternidad-Light.ufo
<glyph name="exclam" format="2">
  <advance width="564"/>
  <unicode hex="0021"/>
  <outline>
    <contour>
      <point x="282" y="-6" type="curve" smooth="yes"/>
      <point x="261" y="-6"/>
      <point x="244" y="1"/>
      <point x="230" y="16" type="curve"/>
      <point x="215" y="30"/>
      <point x="208" y="47"/>
      <point x="208" y="67" type="curve" smooth="yes"/>
      <point x="208" y="88"/>
      <point x="215" y="106"/>
      <point x="230" y="120" type="curve"/>
      <point x="244" y="134"/>
      <point x="261" y="141"/>
      <point x="282" y="141" type="curve" smooth="yes"/>
      <point x="303" y="141"/>
      <point x="320" y="134"/>
      <point x="335" y="120" type="curve"/>
      <point x="349" y="106"/>
      <point x="356" y="88"/>
      <point x="356" y="67" type="curve" smooth="yes"/>
      <point x="356" y="46"/>
      <point x="349" y="29"/>
      <point x="335" y="15" type="curve"/>
      <point x="320" y="1"/>
      <point x="303" y="-6"/>
    </contour>
    <contour>
      <point x="250" y="360" type="line"/>
      <point x="230" y="1440" type="line"/>
      <point x="334" y="1440" type="line"/>
      <point x="314" y="360" type="line"/>
    </contour>
  </outline>
</glyph>
<glyph name="numbersign" format="2">
  <advance width="1826"/>
  <unicode hex="0023"/>
  <outline>
    <contour>
      <point x="434" y="0" type="line"/>
      <point x="556" y="462" type="line"/>
      <point x="120" y="462" type="line"/>
      <point x="142" y="546" type="line"/>
      <point x="580" y="546" type="line"/>
      <point x="680" y="924" type="line"/>
      <point x="244" y="924" type="line"/>
      <point x="266" y="1008" type="line"/>
      <point x="704" y="1008" type="line"/>
      <point x="818" y="1440" type="line"/>
      <point x="906" y="1440" type="line"/>
      <point x="790" y="1008" type="line"/>
      <point x="1184" y="1008" type="line"/>
      <point x="1298" y="1440" type="line"/>
      <point x="1386" y="1440" type="line"/>
      <point x="1270" y="1008" type="line"/>
      <point x="1706" y="1008" type="line"/>
      <point x="1684" y="924" type="line"/>
      <point x="1248" y="924" type="line"/>
      <point x="1146" y="546" type="line"/>
      <point x="1582" y="546" type="line"/>
      <point x="1560" y="462" type="line"/>
      <point x="1124" y="462" type="line"/>
      <point x="1000" y="0" type="line"/>
      <point x="914" y="0" type="line"/>
      <point x="1036" y="462" type="line"/>
      <point x="644" y="462" type="line"/>
      <point x="520" y="0" type="line"/>
    </contour>
    <contour>
      <point x="666" y="546" type="line"/>
      <point x="1060" y="546" type="line"/>
      <point x="1160" y="924" type="line"/>
      <point x="768" y="924" type="line"/>
    </contour>
  </outline>
</glyph>
<glyph name="dollar" format="2">
  <advance width="1126"/>
  <unicode hex="0024"/>
  <outline>
    <contour>
      <point x="522" y="-196" type="line"/>
      <point x="522" y="26" type="line"/>
      <point x="606" y="26" type="line"/>
      <point x="606" y="-196" type="line"/>
    </contour>
    <contour>
      <point x="522" y="1416" type="line"/>
      <point x="522" y="1640" type="line"/>
      <point x="606" y="1640" type="line"/>
      <point x="606" y="1416" type="line"/>
    </contour>
    <contour>
      <point x="590" y="-30" type="curve" smooth="yes"/>
      <point x="498" y="-30"/>
      <point x="415" y="-14"/>
      <point x="342" y="18" type="curve" smooth="yes"/>
      <point x="194" y="81"/>
      <point x="93" y="199"/>
      <point x="60" y="358" type="curve"/>
      <point x="140" y="374" type="line"/>
      <point x="164" y="275"/>
      <point x="216" y="197"/>
      <point x="297" y="140" type="curve" smooth="yes"/>
      <point x="378" y="83"/>
      <point x="475" y="54"/>
      <point x="590" y="54" type="curve" smooth="yes"/>
      <point x="710" y="54"/>
      <point x="806" y="84"/>
      <point x="878" y="143" type="curve" smooth="yes"/>
      <point x="950" y="202"/>
      <point x="986" y="280"/>
      <point x="986" y="378" type="curve" smooth="yes"/>
      <point x="986" y="452"/>
      <point x="964" y="511"/>
      <point x="921" y="555" type="curve" smooth="yes"/>
      <point x="878" y="598"/>
      <point x="803" y="636"/>
      <point x="698" y="668" type="curve" smooth="yes"/>
      <point x="396" y="762" type="line" smooth="yes"/>
      <point x="208" y="821"/>
      <point x="114" y="931"/>
      <point x="114" y="1090" type="curve" smooth="yes"/>
      <point x="114" y="1165"/>
      <point x="133" y="1231"/>
      <point x="171" y="1288" type="curve" smooth="yes"/>
      <point x="246" y="1402"/>
      <point x="383" y="1470"/>
      <point x="558" y="1470" type="curve" smooth="yes"/>
      <point x="648" y="1470"/>
      <point x="729" y="1453"/>
      <point x="800" y="1418" type="curve" smooth="yes"/>
      <point x="943" y="1349"/>
      <point x="1037" y="1219"/>
      <point x="1060" y="1050" type="curve"/>
      <point x="980" y="1034" type="line"/>
      <point x="971" y="1104"/>
      <point x="947" y="1166"/>
      <point x="909" y="1219" type="curve" smooth="yes"/>
      <point x="833" y="1325"/>
      <point x="709" y="1386"/>
      <point x="560" y="1386" type="curve" smooth="yes"/>
      <point x="490" y="1386"/>
      <point x="428" y="1374"/>
      <point x="374" y="1349" type="curve" smooth="yes"/>
      <point x="266" y="1299"/>
      <point x="200" y="1207"/>
      <point x="200" y="1092" type="curve" smooth="yes"/>
      <point x="200" y="967"/>
      <point x="283" y="885"/>
      <point x="468" y="826" type="curve" smooth="yes"/>
      <point x="754" y="738" type="line" smooth="yes"/>
      <point x="864" y="704"/>
      <point x="944" y="659"/>
      <point x="993" y="602" type="curve" smooth="yes"/>
      <point x="1042" y="545"/>
      <point x="1066" y="469"/>
      <point x="1066" y="374" type="curve" smooth="yes"/>
      <point x="1066" y="292"/>
      <point x="1047" y="221"/>
      <point x="1008" y="161" type="curve" smooth="yes"/>
      <point x="930" y="40"/>
      <point x="783" y="-30"/>
    </contour>
  </outline>
</glyph>
<glyph name="percent" format="2">
  <advance width="1804"/>
  <unicode hex="0025"/>
  <outline>
    <contour>
      <point x="240" y="0" type="line"/>
      <point x="180" y="60" type="line"/>
      <point x="1564" y="1440" type="line"/>
      <point x="1624" y="1382" type="line"/>
    </contour>
    <contour>
      <point x="1324" y="-30" type="curve" smooth="yes"/>
      <point x="1126" y="-30"/>
      <point x="964" y="132"/>
      <point x="964" y="330" type="curve" smooth="yes"/>
      <point x="964" y="525"/>
      <point x="1129" y="690"/>
      <point x="1324" y="690" type="curve" smooth="yes"/>
      <point x="1524" y="690"/>
      <point x="1684" y="530"/>
      <point x="1684" y="330" type="curve" smooth="yes"/>
      <point x="1684" y="131"/>
      <point x="1524" y="-30"/>
    </contour>
    <contour>
      <point x="1324" y="54" type="curve" smooth="yes"/>
      <point x="1474" y="54"/>
      <point x="1600" y="180"/>
      <point x="1600" y="330" type="curve" smooth="yes"/>
      <point x="1600" y="482"/>
      <point x="1476" y="606"/>
      <point x="1324" y="606" type="curve" smooth="yes"/>
      <point x="1173" y="606"/>
      <point x="1048" y="481"/>
      <point x="1048" y="330" type="curve" smooth="yes"/>
      <point x="1048" y="180"/>
      <point x="1174" y="54"/>
    </contour>
    <contour>
      <point x="480" y="750" type="curve" smooth="yes"/>
      <point x="281" y="750"/>
      <point x="120" y="911"/>
      <point x="120" y="1110" type="curve" smooth="yes"/>
      <point x="120" y="1305"/>
      <point x="285" y="1470"/>
      <point x="480" y="1470" type="curve" smooth="yes"/>
      <point x="679" y="1470"/>
      <point x="840" y="1309"/>
      <point x="840" y="1110" type="curve" smooth="yes"/>
      <point x="840" y="912"/>
      <point x="678" y="750"/>
    </contour>
    <contour>
      <point x="480" y="834" type="curve" smooth="yes"/>
      <point x="630" y="834"/>
      <point x="756" y="960"/>
      <point x="756" y="1110" type="curve" smooth="yes"/>
      <point x="756" y="1262"/>
      <point x="632" y="1386"/>
      <point x="480" y="1386" type="curve" smooth="yes"/>
      <point x="329" y="1386"/>
      <point x="204" y="1261"/>
      <point x="204" y="1110" type="curve" smooth="yes"/>
      <point x="204" y="960"/>
      <point x="330" y="834"/>
    </contour>
  </outline>
</glyph>
<glyph name="ampersand" format="2">
  <advance width="1280"/>
  <unicode hex="0026"/>
  <outline>
    <contour>
      <point x="594" y="-30" type="curve" smooth="yes"/>
      <point x="343" y="-30"/>
      <point x="100" y="99"/>
      <point x="100" y="380" type="curve" smooth="yes"/>
      <point x="100" y="567"/>
      <point x="187" y="706"/>
      <point x="364" y="772" type="curve"/>
      <point x="266" y="870"/>
      <point x="188" y="957"/>
      <point x="188" y="1102" type="curve" smooth="yes"/>
      <point x="188" y="1336"/>
      <point x="365" y="1470"/>
      <point x="588" y="1470" type="curve" smooth="yes"/>
      <point x="743" y="1470"/>
      <point x="899" y="1414"/>
      <point x="968" y="1264" type="curve"/>
      <point x="890" y="1228" type="line"/>
      <point x="841" y="1342"/>
      <point x="711" y="1386"/>
      <point x="596" y="1386" type="curve" smooth="yes"/>
      <point x="419" y="1386"/>
      <point x="278" y="1297"/>
      <point x="278" y="1106" type="curve" smooth="yes"/>
      <point x="278" y="953"/>
      <point x="372" y="883"/>
      <point x="474" y="788" type="curve" smooth="yes"/>
      <point x="992" y="306" type="line"/>
      <point x="1013" y="421"/>
      <point x="1001" y="544"/>
      <point x="1000" y="660" type="curve"/>
      <point x="1090" y="660" type="line"/>
      <point x="1090" y="466" type="line" smooth="yes"/>
      <point x="1090" y="389"/>
      <point x="1088" y="312"/>
      <point x="1064" y="238" type="curve"/>
      <point x="1254" y="62" type="line"/>
      <point x="1196" y="0" type="line"/>
      <point x="1024" y="162" type="line"/>
      <point x="941" y="12"/>
      <point x="751" y="-30"/>
    </contour>
    <contour>
      <point x="590" y="54" type="curve" smooth="yes"/>
      <point x="748" y="54"/>
      <point x="872" y="86"/>
      <point x="962" y="226" type="curve"/>
      <point x="436" y="706" type="line"/>
      <point x="273" y="659"/>
      <point x="190" y="552"/>
      <point x="190" y="382" type="curve" smooth="yes"/>
      <point x="190" y="153"/>
      <point x="386" y="54"/>
    </contour>
  </outline>
</glyph>
<glyph name="parenleft" format="2">
  <advance width="816"/>
  <unicode hex="0028"/>
  <outline>
    <contour>
      <point x="664" y="-344" type="line"/>
      <point x="546" y="-210"/>
      <point x="374" y="116"/>
      <point x="280" y="476"/>
      <point x="280" y="660" type="qcurve" smooth="yes"/>
      <point x="280" y="844"/>
      <point x="374" y="1204"/>
      <point x="546" y="1530"/>
      <point x="664" y="1664" type="qcurve"/>
      <point x="726" y="1612" type="line"/>
      <point x="612" y="1478"/>
      <point x="448" y="1167"/>
      <point x="360" y="831"/>
      <point x="360" y="660" type="qcurve" smooth="yes"/>
      <point x="360" y="492"/>
      <point x="450" y="152"/>
      <point x="614" y="-162"/>
      <point x="726" y="-290" type="qcurve"/>
    </contour>
  </outline>
</glyph>
<glyph name="parenright" format="2">
  <advance width="816"/>
  <unicode hex="0029"/>
  <outline>
    <contour>
      <point x="90" y="-290" type="line"/>
      <point x="165" y="-205"/>
      <point x="229" y="-110"/>
      <point x="284" y="-5" type="curve" smooth="yes"/>
      <point x="393" y="204"/>
      <point x="456" y="436"/>
      <point x="456" y="660" type="curve" smooth="yes"/>
      <point x="456" y="774"/>
      <point x="441" y="887"/>
      <point x="412" y="999" type="curve" smooth="yes"/>
      <point x="353" y="1223"/>
      <point x="242" y="1433"/>
      <point x="90" y="1612" type="curve"/>
      <point x="152" y="1664" type="line"/>
      <point x="231" y="1575"/>
      <point x="299" y="1476"/>
      <point x="356" y="1367" type="curve" smooth="yes"/>
      <point x="471" y="1150"/>
      <point x="536" y="905"/>
      <point x="536" y="660" type="curve" smooth="yes"/>
      <point x="536" y="537"/>
      <point x="520" y="416"/>
      <point x="489" y="296" type="curve" smooth="yes"/>
      <point x="426" y="56"/>
      <point x="309" y="-165"/>
      <point x="152" y="-344" type="curve"/>
    </contour>
  </outline>
</glyph>
<glyph name="period" format="2">
  <advance width="440"/>
  <unicode hex="002E"/>
  <outline>
    <contour>
      <point x="220" y="-6" type="curve" smooth="yes"/>
      <point x="179" y="-6"/>
      <point x="146" y="26"/>
      <point x="146" y="67" type="curve" smooth="yes"/>
      <point x="146" y="109"/>
      <point x="178" y="141"/>
      <point x="220" y="141" type="curve" smooth="yes"/>
      <point x="262" y="141"/>
      <point x="294" y="109"/>
      <point x="294" y="67" type="curve" smooth="yes"/>
      <point x="294" y="26"/>
      <point x="261" y="-6"/>
    </contour>
  </outline>
</glyph>
<glyph name="zero" format="2">
  <advance width="1156"/>
  <unicode hex="0030"/>
  <outline>
    <contour>
      <point x="578" y="-30" type="curve" smooth="yes"/>
      <point x="498" y="-30"/>
      <point x="425" y="-10"/>
      <point x="359" y="30" type="curve" smooth="yes"/>
      <point x="292" y="69"/>
      <point x="239" y="122"/>
      <point x="200" y="189" type="curve" smooth="yes"/>
      <point x="160" y="255"/>
      <point x="140" y="328"/>
      <point x="140" y="408" type="curve" smooth="yes"/>
      <point x="140" y="1032" type="line" smooth="yes"/>
      <point x="140" y="1112"/>
      <point x="160" y="1185"/>
      <point x="200" y="1252" type="curve" smooth="yes"/>
      <point x="239" y="1318"/>
      <point x="292" y="1371"/>
      <point x="359" y="1411" type="curve" smooth="yes"/>
      <point x="425" y="1450"/>
      <point x="498" y="1470"/>
      <point x="578" y="1470" type="curve" smooth="yes"/>
      <point x="658" y="1470"/>
      <point x="731" y="1450"/>
      <point x="798" y="1411" type="curve" smooth="yes"/>
      <point x="864" y="1371"/>
      <point x="917" y="1318"/>
      <point x="957" y="1252" type="curve" smooth="yes"/>
      <point x="996" y="1185"/>
      <point x="1016" y="1112"/>
      <point x="1016" y="1032" type="curve" smooth="yes"/>
      <point x="1016" y="408" type="line" smooth="yes"/>
      <point x="1016" y="328"/>
      <point x="996" y="255"/>
      <point x="957" y="189" type="curve" smooth="yes"/>
      <point x="917" y="122"/>
      <point x="864" y="69"/>
      <point x="798" y="30" type="curve" smooth="yes"/>
      <point x="731" y="-10"/>
      <point x="658" y="-30"/>
    </contour>
    <contour>
      <point x="578" y="54" type="curve" smooth="yes"/>
      <point x="643" y="54"/>
      <point x="702" y="70"/>
      <point x="756" y="102" type="curve" smooth="yes"/>
      <point x="863" y="166"/>
      <point x="932" y="279"/>
      <point x="932" y="408" type="curve" smooth="yes"/>
      <point x="932" y="1032" type="line" smooth="yes"/>
      <point x="932" y="1097"/>
      <point x="916" y="1156"/>
      <point x="884" y="1210" type="curve" smooth="yes"/>
      <point x="820" y="1317"/>
      <point x="707" y="1386"/>
      <point x="578" y="1386" type="curve" smooth="yes"/>
      <point x="513" y="1386"/>
      <point x="454" y="1370"/>
      <point x="401" y="1338" type="curve" smooth="yes"/>
      <point x="293" y="1274"/>
      <point x="224" y="1161"/>
      <point x="224" y="1032" type="curve" smooth="yes"/>
      <point x="224" y="408" type="line" smooth="yes"/>
      <point x="224" y="343"/>
      <point x="240" y="284"/>
      <point x="272" y="231" type="curve" smooth="yes"/>
      <point x="336" y="123"/>
      <point x="449" y="54"/>
    </contour>
  </outline>
</glyph>
<glyph name="one" format="2">
  <advance width="757"/>
  <unicode hex="0031"/>
  <outline>
    <contour>
      <point x="433" y="0" type="line"/>
      <point x="433" y="1349" type="line"/>
      <point x="159" y="1183" type="line"/>
      <point x="120" y="1250" type="line"/>
      <point x="433" y="1440" type="line"/>
      <point x="517" y="1440" type="line"/>
      <point x="517" y="0" type="line"/>
    </contour>
  </outline>
</glyph>
<glyph name="two" format="2">
  <advance width="1146"/>
  <unicode hex="0032"/>
  <outline>
    <contour>
      <point x="132.736" y="83.936" type="line"/>
      <point x="745.664" y="696.864" type="line" smooth="yes"/>
      <point x="850.096" y="801.296"/>
      <point x="959.408" y="937.936"/>
      <point x="959.408" y="1093.12" type="curve" smooth="yes"/>
      <point x="959.408" y="1291.25"/>
      <point x="774.944" y="1384.94"/>
      <point x="598.288" y="1384.94" type="curve" smooth="yes"/>
      <point x="384.544" y="1384.94"/>
      <point x="208.864" y="1251.23"/>
      <point x="180.56" y="1033.58" type="curve"/>
      <point x="99.552" y="1049.2" type="line"/>
      <point x="135.664" y="1309.79"/>
      <point x="339.648" y="1468.88"/>
      <point x="598.288" y="1468.88" type="curve" smooth="yes"/>
      <point x="825.696" y="1468.88"/>
      <point x="1045.3" y="1340.05"/>
      <point x="1045.3" y="1091.17" type="curve" smooth="yes"/>
      <point x="1045.3" y="928.176"/>
      <point x="947.696" y="779.824"/>
      <point x="835.456" y="667.584" type="curve" smooth="yes"/>
      <point x="250.832" y="83.936" type="line"/>
      <point x="1045.3" y="83.936" type="line"/>
      <point x="1045.3" y="0" type="line"/>
      <point x="132.736" y="0" type="line"/>
    </contour>
  </outline>
</glyph>
<glyph name="three" format="2">
  <advance width="1068"/>
  <unicode hex="0033"/>
  <outline>
    <contour>
      <point x="510" y="-30" type="qcurve" smooth="yes"/>
      <point x="404" y="-30"/>
      <point x="232" y="40"/>
      <point x="110" y="173"/>
      <point x="80" y="266" type="qcurve"/>
      <point x="158" y="294" type="line"/>
      <point x="202" y="173"/>
      <point x="388" y="51"/>
      <point x="508" y="54" type="qcurve" smooth="yes"/>
      <point x="621" y="57"/>
      <point x="777" y="151"/>
      <point x="858" y="318"/>
      <point x="858" y="432" type="qcurve" smooth="yes"/>
      <point x="858" y="606"/>
      <point x="665" y="808"/>
      <point x="504" y="808" type="qcurve" smooth="yes"/>
      <point x="461" y="808"/>
      <point x="360" y="784"/>
      <point x="318" y="764" type="qcurve"/>
      <point x="268" y="832" type="line"/>
      <point x="878" y="1418" type="line"/>
      <point x="904" y="1356" type="line"/>
      <point x="138" y="1356" type="line"/>
      <point x="138" y="1440" type="line"/>
      <point x="936" y="1440" type="line"/>
      <point x="936" y="1354" type="line"/>
      <point x="382" y="826" type="line"/>
      <point x="380" y="876" type="line"/>
      <point x="542" y="914"/>
      <point x="799" y="822"/>
      <point x="948" y="595"/>
      <point x="948" y="432" type="qcurve" smooth="yes"/>
      <point x="948" y="292"/>
      <point x="838" y="84"/>
      <point x="641" y="-30"/>
    </contour>
  </outline>
</glyph>
<glyph name="four" format="2">
  <advance width="1213"/>
  <unicode hex="0034"/>
  <outline>
    <contour>
      <point x="887.184" y="0" type="line"/>
      <point x="887.184" y="305.488" type="line"/>
      <point x="99.552" y="305.488" type="line"/>
      <point x="99.552" y="389.424" type="line"/>
      <point x="609.024" y="1439.6" type="line"/>
      <point x="701.744" y="1439.6" type="line"/>
      <point x="193.248" y="389.424" type="line"/>
      <point x="887.184" y="389.424" type="line"/>
      <point x="887.184" y="929.152" type="line"/>
      <point x="971.12" y="929.152" type="line"/>
      <point x="971.12" y="389.424" type="line"/>
      <point x="1113.62" y="389.424" type="line"/>
      <point x="1113.62" y="305.488" type="line"/>
      <point x="971.12" y="305.488" type="line"/>
      <point x="971.12" y="0" type="line"/>
    </contour>
  </outline>
</glyph>
<glyph name="five" format="2">
  <advance width="1204"/>
  <unicode hex="0035"/>
  <outline>
    <contour>
      <point x="1104.83" y="418.704" type="curve" smooth="yes"/>
      <point x="1104.83" y="160.064"/>
      <point x="907.68" y="-30.256"/>
      <point x="619.76" y="-30.256" type="curve" smooth="yes"/>
      <point x="330.864" y="-30.256"/>
      <point x="164.944" y="106.384"/>
      <point x="99.552" y="358.192" type="curve"/>
      <point x="179.584" y="373.808" type="line"/>
      <point x="249.856" y="150.304"/>
      <point x="373.808" y="53.68"/>
      <point x="619.76" y="53.68" type="curve" smooth="yes"/>
      <point x="860.832" y="53.68"/>
      <point x="1018.94" y="206.912"/>
      <point x="1018.94" y="417.728" type="curve" smooth="yes"/>
      <point x="1018.94" y="637.328"/>
      <point x="886.208" y="750.544"/>
      <point x="619.76" y="750.544" type="curve" smooth="yes"/>
      <point x="208.864" y="750.544" type="line"/>
      <point x="251.808" y="1439.6" type="line"/>
      <point x="1014.06" y="1439.6" type="line"/>
      <point x="1014.06" y="1355.66" type="line"/>
      <point x="330.864" y="1355.66" type="line"/>
      <point x="297.68" y="834.48" type="line"/>
      <point x="619.76" y="834.48" type="line" smooth="yes"/>
      <point x="927.2" y="834.48"/>
      <point x="1104.83" y="691.984"/>
    </contour>
  </outline>
</glyph>
<glyph name="six" format="2">
  <advance width="1120"/>
  <unicode hex="0036"/>
  <outline>
    <contour>
      <point x="560" y="-30" type="qcurve" smooth="yes"/>
      <point x="428" y="-30"/>
      <point x="210" y="100"/>
      <point x="80" y="318"/>
      <point x="80" y="450" type="qcurve" smooth="yes"/>
      <point x="80" y="488"/>
      <point x="95" y="569"/>
      <point x="119" y="650"/>
      <point x="152" y="726"/>
      <point x="170" y="760" type="qcurve"/>
      <point x="610" y="1440" type="line"/>
      <point x="707" y="1440" type="line"/>
      <point x="170" y="626" type="line"/>
      <point x="132" y="664" type="line"/>
      <point x="195" y="781"/>
      <point x="421" y="930"/>
      <point x="560" y="930" type="qcurve" smooth="yes"/>
      <point x="692" y="930"/>
      <point x="910" y="800"/>
      <point x="1040" y="582"/>
      <point x="1040" y="450" type="qcurve" smooth="yes"/>
      <point x="1040" y="318"/>
      <point x="910" y="100"/>
      <point x="692" y="-30"/>
    </contour>
    <contour>
      <point x="560" y="54" type="qcurve" smooth="yes"/>
      <point x="670" y="54"/>
      <point x="850" y="160"/>
      <point x="956" y="340"/>
      <point x="956" y="450" type="qcurve" smooth="yes"/>
      <point x="956" y="560"/>
      <point x="850" y="740"/>
      <point x="670" y="846"/>
      <point x="560" y="846" type="qcurve" smooth="yes"/>
      <point x="450" y="846"/>
      <point x="270" y="740"/>
      <point x="164" y="560"/>
      <point x="164" y="450" type="qcurve" smooth="yes"/>
      <point x="164" y="340"/>
      <point x="270" y="160"/>
      <point x="450" y="54"/>
    </contour>
  </outline>
</glyph>
<glyph name="seven" format="2">
  <advance width="1022"/>
  <unicode hex="0037"/>
  <outline>
    <contour>
      <point x="202.032" y="0" type="line"/>
      <point x="831.552" y="1352.74" type="line"/>
      <point x="80.032" y="1352.74" type="line"/>
      <point x="80.032" y="1439.6" type="line"/>
      <point x="921.344" y="1439.6" type="line"/>
      <point x="921.344" y="1352.74" type="line"/>
      <point x="291.824" y="0" type="line"/>
    </contour>
  </outline>
</glyph>
<glyph name="eight" format="2">
  <advance width="1118"/>
  <unicode hex="0038"/>
  <outline>
    <contour>
      <point x="558" y="-30" type="qcurve" smooth="yes"/>
      <point x="428" y="-30"/>
      <point x="231" y="72"/>
      <point x="120" y="260"/>
      <point x="120" y="390" type="qcurve" smooth="yes"/>
      <point x="120" y="534"/>
      <point x="263" y="747"/>
      <point x="414" y="796" type="qcurve"/>
      <point x="414" y="750" type="line"/>
      <point x="284" y="777"/>
      <point x="152" y="976"/>
      <point x="152" y="1096" type="qcurve" smooth="yes"/>
      <point x="152" y="1214"/>
      <point x="257" y="1381"/>
      <point x="440" y="1470"/>
      <point x="558" y="1470" type="qcurve" smooth="yes"/>
      <point x="676" y="1470"/>
      <point x="859" y="1381"/>
      <point x="964" y="1214"/>
      <point x="964" y="1096" type="qcurve" smooth="yes"/>
      <point x="964" y="976"/>
      <point x="837" y="779"/>
      <point x="706" y="752" type="qcurve"/>
      <point x="698" y="796" type="line"/>
      <point x="850" y="747"/>
      <point x="998" y="534"/>
      <point x="998" y="390" type="qcurve" smooth="yes"/>
      <point x="998" y="260"/>
      <point x="886" y="72"/>
      <point x="688" y="-30"/>
    </contour>
    <contour>
      <point x="558" y="54" type="qcurve" smooth="yes"/>
      <point x="714" y="54"/>
      <point x="908" y="228"/>
      <point x="908" y="390" type="qcurve" smooth="yes"/>
      <point x="908" y="555"/>
      <point x="717" y="726"/>
      <point x="558" y="726" type="qcurve" smooth="yes"/>
      <point x="399" y="726"/>
      <point x="208" y="555"/>
      <point x="208" y="390" type="qcurve" smooth="yes"/>
      <point x="208" y="228"/>
      <point x="402" y="54"/>
    </contour>
    <contour>
      <point x="558" y="810" type="qcurve" smooth="yes"/>
      <point x="699" y="810"/>
      <point x="874" y="955"/>
      <point x="874" y="1096" type="qcurve" smooth="yes"/>
      <point x="874" y="1237"/>
      <point x="699" y="1380"/>
      <point x="558" y="1380" type="qcurve" smooth="yes"/>
      <point x="417" y="1380"/>
      <point x="242" y="1237"/>
      <point x="242" y="1096" type="qcurve" smooth="yes"/>
      <point x="242" y="955"/>
      <point x="417" y="810"/>
    </contour>
  </outline>
</glyph>
<glyph name="nine" format="2">
  <advance width="1252"/>
  <unicode hex="0039"/>
  <outline>
    <contour>
      <point x="615" y="1469" type="curve" smooth="yes"/>
      <point x="1042" y="1469"/>
      <point x="1168" y="1184"/>
      <point x="1168" y="815" type="curve" smooth="yes"/>
      <point x="1168" y="392"/>
      <point x="935" y="-30"/>
      <point x="452" y="-30" type="curve" smooth="yes"/>
      <point x="346" y="-30"/>
      <point x="242" y="-13"/>
      <point x="142" y="23" type="curve"/>
      <point x="157" y="108" type="line"/>
      <point x="245" y="73"/>
      <point x="330" y="53"/>
      <point x="426" y="53" type="curve" smooth="yes"/>
      <point x="855" y="53"/>
      <point x="1034" y="361"/>
      <point x="1080" y="736" type="curve"/>
      <point x="1005" y="558"/>
      <point x="793" y="492"/>
      <point x="615" y="492" type="curve" smooth="yes"/>
      <point x="307" y="492"/>
      <point x="83" y="659"/>
      <point x="83" y="980" type="curve" smooth="yes"/>
      <point x="83" y="1301"/>
      <point x="307" y="1469"/>
    </contour>
    <contour>
      <point x="615" y="1383" type="curve" smooth="yes"/>
      <point x="358" y="1383"/>
      <point x="175" y="1250"/>
      <point x="175" y="980" type="curve" smooth="yes"/>
      <point x="175" y="712"/>
      <point x="361" y="578"/>
      <point x="615" y="578" type="curve" smooth="yes"/>
      <point x="871" y="578"/>
      <point x="1053" y="712"/>
      <point x="1053" y="980" type="curve" smooth="yes"/>
      <point x="1053" y="1250"/>
      <point x="873" y="1383"/>
    </contour>
  </outline>
</glyph>
<glyph name="less" format="2">
  <advance width="1198"/>
  <unicode hex="003C"/>
  <outline>
    <contour>
      <point x="742" y="168" type="line"/>
      <point x="280" y="630" type="line"/>
      <point x="742" y="1092" type="line"/>
      <point x="798" y="1038" type="line"/>
      <point x="390" y="630" type="line"/>
      <point x="798" y="222" type="line"/>
    </contour>
  </outline>
</glyph>
<glyph name="equal" format="2">
  <advance width="1500"/>
  <unicode hex="003D"/>
  <outline>
    <contour>
      <point x="240" y="836" type="line"/>
      <point x="240" y="920" type="line"/>
      <point x="1260" y="920" type="line"/>
      <point x="1260" y="836" type="line"/>
    </contour>
    <contour>
      <point x="240" y="520" type="line"/>
      <point x="240" y="604" type="line"/>
      <point x="1260" y="604" type="line"/>
      <point x="1260" y="520" type="line"/>
    </contour>
  </outline>
</glyph>
<glyph name="greater" format="2">
  <advance width="1198"/>
  <unicode hex="003E"/>
  <outline>
    <contour>
      <point x="400" y="222" type="line"/>
      <point x="808" y="630" type="line"/>
      <point x="400" y="1038" type="line"/>
      <point x="456" y="1092" type="line"/>
      <point x="918" y="630" type="line"/>
      <point x="456" y="168" type="line"/>
    </contour>
  </outline>
</glyph>
<glyph name="question" format="2">
  <advance width="1164"/>
  <unicode hex="003F"/>
  <outline>
    <contour>
      <point x="1105" y="1021" type="curve" smooth="yes"/>
      <point x="1105" y="871"/>
      <point x="997" y="774"/>
      <point x="896" y="684" type="curve" smooth="yes"/>
      <point x="706" y="514" type="line" smooth="yes"/>
      <point x="660" y="473"/>
      <point x="603" y="403"/>
      <point x="586" y="345" type="curve"/>
      <point x="507" y="360" type="line"/>
      <point x="526" y="434"/>
      <point x="581" y="514"/>
      <point x="707" y="626" type="curve" smooth="yes"/>
      <point x="937" y="832" type="line" smooth="yes"/>
      <point x="989" y="879"/>
      <point x="1020" y="946"/>
      <point x="1020" y="1022" type="curve" smooth="yes"/>
      <point x="1020" y="1127"/>
      <point x="981" y="1219"/>
      <point x="911" y="1284" type="curve" smooth="yes"/>
      <point x="841" y="1348"/>
      <point x="740" y="1386"/>
      <point x="620" y="1386" type="curve" smooth="yes"/>
      <point x="497" y="1386"/>
      <point x="405" y="1362"/>
      <point x="334" y="1310" type="curve" smooth="yes"/>
      <point x="263" y="1258"/>
      <point x="215" y="1178"/>
      <point x="180" y="1066" type="curve"/>
      <point x="100" y="1082" type="line"/>
      <point x="132" y="1209"/>
      <point x="191" y="1305"/>
      <point x="276" y="1371" type="curve" smooth="yes"/>
      <point x="361" y="1437"/>
      <point x="476" y="1470"/>
      <point x="620" y="1470" type="curve" smooth="yes"/>
      <point x="764" y="1470"/>
      <point x="886" y="1423"/>
      <point x="971" y="1343" type="curve" smooth="yes"/>
      <point x="1055" y="1263"/>
      <point x="1105" y="1150"/>
    </contour>
    <contour>
      <point x="556" y="-6" type="curve" smooth="yes"/>
      <point x="515" y="-6"/>
      <point x="482" y="26"/>
      <point x="482" y="67" type="curve" smooth="yes"/>
      <point x="482" y="109"/>
      <point x="514" y="141"/>
      <point x="556" y="141" type="curve" smooth="yes"/>
      <point x="598" y="141"/>
      <point x="630" y="109"/>
      <point x="630" y="67" type="curve" smooth="yes"/>
      <point x="630" y="25"/>
      <point x="598" y="-6"/>
    </contour>
  </outline>
</glyph>
<glyph name="at" format="2">
  <advance width="1794"/>
  <unicode hex="0040"/>
  <outline>
    <contour>
      <point x="904" y="-210" type="curve" smooth="yes"/>
      <point x="697" y="-210"/>
      <point x="513" y="-131"/>
      <point x="377" y="5" type="curve" smooth="yes"/>
      <point x="241" y="140"/>
      <point x="160" y="327"/>
      <point x="160" y="540" type="curve" smooth="yes"/>
      <point x="160" y="743"/>
      <point x="232" y="928"/>
      <point x="364" y="1067" type="curve" smooth="yes"/>
      <point x="495" y="1206"/>
      <point x="685" y="1290"/>
      <point x="918" y="1290" type="curve" smooth="yes"/>
      <point x="1169" y="1290"/>
      <point x="1355" y="1200"/>
      <point x="1475" y="1060" type="curve" smooth="yes"/>
      <point x="1594" y="920"/>
      <point x="1647" y="741"/>
      <point x="1632" y="562" type="curve" smooth="yes"/>
      <point x="1622" y="439"/>
      <point x="1589" y="349"/>
      <point x="1534" y="290" type="curve" smooth="yes"/>
      <point x="1479" y="231"/>
      <point x="1410" y="202"/>
      <point x="1328" y="202" type="curve" smooth="yes"/>
      <point x="1262" y="202"/>
      <point x="1208" y="217"/>
      <point x="1165" y="248" type="curve" smooth="yes"/>
      <point x="1122" y="279"/>
      <point x="1093" y="321"/>
      <point x="1080" y="376" type="curve"/>
      <point x="1118" y="368" type="line"/>
      <point x="1098" y="324"/>
      <point x="1065" y="291"/>
      <point x="1020" y="270" type="curve" smooth="yes"/>
      <point x="975" y="249"/>
      <point x="927" y="238"/>
      <point x="878" y="238" type="curve" smooth="yes"/>
      <point x="824" y="238"/>
      <point x="777" y="250"/>
      <point x="737" y="273" type="curve" smooth="yes"/>
      <point x="657" y="319"/>
      <point x="610" y="403"/>
      <point x="610" y="510" type="curve" smooth="yes"/>
      <point x="610" y="566"/>
      <point x="622" y="615"/>
      <point x="645" y="656" type="curve" smooth="yes"/>
      <point x="691" y="738"/>
      <point x="775" y="784"/>
      <point x="880" y="784" type="curve" smooth="yes"/>
      <point x="923" y="784"/>
      <point x="968" y="775"/>
      <point x="1014" y="757" type="curve"/>
      <point x="1059" y="738"/>
      <point x="1094" y="705"/>
      <point x="1118" y="658" type="curve"/>
      <point x="1080" y="620" type="line"/>
      <point x="1080" y="756" type="line"/>
      <point x="1158" y="756" type="line"/>
      <point x="1158" y="466" type="line" smooth="yes"/>
      <point x="1158" y="417"/>
      <point x="1171" y="375"/>
      <point x="1198" y="340" type="curve" smooth="yes"/>
      <point x="1225" y="304"/>
      <point x="1271" y="286"/>
      <point x="1338" y="286" type="curve" smooth="yes"/>
      <point x="1375" y="286"/>
      <point x="1408" y="296"/>
      <point x="1438" y="317" type="curve" smooth="yes"/>
      <point x="1498" y="358"/>
      <point x="1537" y="437"/>
      <point x="1544" y="546" type="curve" smooth="yes"/>
      <point x="1550" y="645"/>
      <point x="1540" y="735"/>
      <point x="1513" y="816" type="curve" smooth="yes"/>
      <point x="1486" y="897"/>
      <point x="1444" y="966"/>
      <point x="1389" y="1025" type="curve" smooth="yes"/>
      <point x="1333" y="1083"/>
      <point x="1265" y="1128"/>
      <point x="1186" y="1159" type="curve" smooth="yes"/>
      <point x="1107" y="1190"/>
      <point x="1017" y="1206"/>
      <point x="918" y="1206" type="curve" smooth="yes"/>
      <point x="705" y="1206"/>
      <point x="539" y="1126"/>
      <point x="425" y="999" type="curve" smooth="yes"/>
      <point x="311" y="872"/>
      <point x="250" y="707"/>
      <point x="250" y="538" type="curve" smooth="yes"/>
      <point x="250" y="355"/>
      <point x="323" y="191"/>
      <point x="444" y="69" type="curve" smooth="yes"/>
      <point x="564" y="-54"/>
      <point x="729" y="-126"/>
      <point x="910" y="-126" type="curve" smooth="yes"/>
      <point x="977" y="-126"/>
      <point x="1045" y="-117"/>
      <point x="1113" y="-98" type="curve" smooth="yes"/>
      <point x="1180" y="-79"/>
      <point x="1239" y="-52"/>
      <point x="1290" y="-18" type="curve"/>
      <point x="1326" y="-86" type="line"/>
      <point x="1197" y="-170"/>
      <point x="1051" y="-210"/>
    </contour>
    <contour>
      <point x="882" y="324" type="curve" smooth="yes"/>
      <point x="938" y="324"/>
      <point x="983" y="340"/>
      <point x="1017" y="373" type="curve" smooth="yes"/>
      <point x="1051" y="406"/>
      <point x="1068" y="452"/>
      <point x="1068" y="512" type="curve" smooth="yes"/>
      <point x="1068" y="575"/>
      <point x="1051" y="623"/>
      <point x="1016" y="655" type="curve" smooth="yes"/>
      <point x="981" y="686"/>
      <point x="936" y="702"/>
      <point x="882" y="702" type="curve" smooth="yes"/>
      <point x="762" y="702"/>
      <point x="694" y="635"/>
      <point x="694" y="512" type="curve" smooth="yes"/>
      <point x="694" y="387"/>
      <point x="769" y="324"/>
    </contour>
  </outline>
</glyph>
<glyph name="B" format="2">
  <advance width="1202"/>
  <unicode hex="0042"/>
  <outline>
    <contour>
      <point x="140" y="0" type="line"/>
      <point x="140" y="1440" type="line"/>
      <point x="686" y="1440" type="line" smooth="yes"/>
      <point x="755" y="1440"/>
      <point x="819" y="1425"/>
      <point x="878" y="1396" type="curve" smooth="yes"/>
      <point x="937" y="1366"/>
      <point x="984" y="1324"/>
      <point x="1019" y="1271" type="curve" smooth="yes"/>
      <point x="1054" y="1218"/>
      <point x="1072" y="1156"/>
      <point x="1072" y="1086" type="curve" smooth="yes"/>
      <point x="1072" y="1010"/>
      <point x="1050" y="940"/>
      <point x="1006" y="877" type="curve" smooth="yes"/>
      <point x="962" y="813"/>
      <point x="904" y="768"/>
      <point x="832" y="742" type="curve"/>
      <point x="828" y="790" type="line"/>
      <point x="923" y="759"/>
      <point x="1000" y="710"/>
      <point x="1058" y="643" type="curve" smooth="yes"/>
      <point x="1115" y="575"/>
      <point x="1144" y="490"/>
      <point x="1144" y="388" type="curve" smooth="yes"/>
      <point x="1144" y="306"/>
      <point x="1125" y="236"/>
      <point x="1088" y="179" type="curve" smooth="yes"/>
      <point x="1013" y="63"/>
      <point x="880" y="0"/>
      <point x="724" y="0" type="curve" smooth="yes"/>
    </contour>
    <contour>
      <point x="224" y="84" type="line"/>
      <point x="684" y="84" type="line" smooth="yes"/>
      <point x="753" y="84"/>
      <point x="816" y="96"/>
      <point x="872" y="119" type="curve" smooth="yes"/>
      <point x="983" y="166"/>
      <point x="1052" y="255"/>
      <point x="1052" y="380" type="curve" smooth="yes"/>
      <point x="1052" y="443"/>
      <point x="1037" y="500"/>
      <point x="1008" y="551" type="curve" smooth="yes"/>
      <point x="948" y="653"/>
      <point x="844" y="718"/>
      <point x="724" y="718" type="curve" smooth="yes"/>
      <point x="224" y="718" type="line"/>
    </contour>
    <contour>
      <point x="224" y="800" type="line"/>
      <point x="686" y="800" type="line" smooth="yes"/>
      <point x="740" y="800"/>
      <point x="790" y="813"/>
      <point x="835" y="839" type="curve" smooth="yes"/>
      <point x="925" y="891"/>
      <point x="982" y="983"/>
      <point x="982" y="1092" type="curve" smooth="yes"/>
      <point x="982" y="1172"/>
      <point x="954" y="1236"/>
      <point x="897" y="1285" type="curve" smooth="yes"/>
      <point x="840" y="1334"/>
      <point x="769" y="1358"/>
      <point x="686" y="1358" type="curve" smooth="yes"/>
      <point x="224" y="1358" type="line"/>
    </contour>
  </outline>
</glyph>
<glyph name="C" format="2">
  <advance width="1400"/>
  <unicode hex="0043"/>
  <outline>
    <contour>
      <point x="706" y="-30" type="curve" smooth="yes"/>
      <point x="563" y="-30"/>
      <point x="443" y="2"/>
      <point x="348" y="66" type="curve" smooth="yes"/>
      <point x="252" y="130"/>
      <point x="180" y="218"/>
      <point x="132" y="331" type="curve" smooth="yes"/>
      <point x="84" y="444"/>
      <point x="60" y="573"/>
      <point x="60" y="720" type="curve" smooth="yes"/>
      <point x="60" y="867"/>
      <point x="84" y="996"/>
      <point x="132" y="1109" type="curve" smooth="yes"/>
      <point x="180" y="1222"/>
      <point x="252" y="1310"/>
      <point x="348" y="1374" type="curve" smooth="yes"/>
      <point x="443" y="1438"/>
      <point x="563" y="1470"/>
      <point x="706" y="1470" type="curve" smooth="yes"/>
      <point x="874" y="1470"/>
      <point x="1009" y="1426"/>
      <point x="1112" y="1339" type="curve" smooth="yes"/>
      <point x="1215" y="1251"/>
      <point x="1284" y="1134"/>
      <point x="1320" y="988" type="curve"/>
      <point x="1232" y="968" type="line"/>
      <point x="1200" y="1095"/>
      <point x="1140" y="1197"/>
      <point x="1053" y="1273" type="curve" smooth="yes"/>
      <point x="965" y="1348"/>
      <point x="849" y="1386"/>
      <point x="706" y="1386" type="curve" smooth="yes"/>
      <point x="583" y="1386"/>
      <point x="480" y="1358"/>
      <point x="399" y="1301" type="curve" smooth="yes"/>
      <point x="235" y="1188"/>
      <point x="153" y="980"/>
      <point x="150" y="720" type="curve" smooth="yes"/>
      <point x="149" y="590"/>
      <point x="169" y="475"/>
      <point x="210" y="375" type="curve" smooth="yes"/>
      <point x="293" y="175"/>
      <point x="459" y="54"/>
      <point x="706" y="54" type="curve" smooth="yes"/>
      <point x="849" y="54"/>
      <point x="965" y="92"/>
      <point x="1053" y="168" type="curve" smooth="yes"/>
      <point x="1140" y="244"/>
      <point x="1200" y="345"/>
      <point x="1232" y="472" type="curve"/>
      <point x="1320" y="452" type="line"/>
      <point x="1284" y="306"/>
      <point x="1215" y="189"/>
      <point x="1112" y="102" type="curve" smooth="yes"/>
      <point x="1009" y="14"/>
      <point x="874" y="-30"/>
    </contour>
  </outline>
</glyph>
<glyph name="E" format="2">
  <advance width="1120"/>
  <unicode hex="0045"/>
  <outline>
    <contour>
      <point x="140" y="0" type="line"/>
      <point x="140" y="1440" type="line"/>
      <point x="1020" y="1440" type="line"/>
      <point x="1020" y="1356" type="line"/>
      <point x="224" y="1356" type="line"/>
      <point x="224" y="762" type="line"/>
      <point x="900" y="762" type="line"/>
      <point x="900" y="678" type="line"/>
      <point x="224" y="678" type="line"/>
      <point x="224" y="84" type="line"/>
      <point x="1020" y="84" type="line"/>
      <point x="1020" y="0" type="line"/>
    </contour>
  </outline>
</glyph>
<glyph name="G" format="2">
  <advance width="1380"/>
  <unicode hex="0047"/>
  <outline>
    <contour>
      <point x="1225" y="0" type="line"/>
      <point x="1300" y="0" type="line"/>
      <point x="1300" y="720" type="line"/>
      <point x="1225" y="720" type="line"/>
      <point x="1225" y="303" type="line"/>
    </contour>
    <contour>
      <point x="706" y="1468" type="curve" smooth="yes"/>
      <point x="505" y="1468"/>
      <point x="343" y="1398"/>
      <point x="232" y="1270" type="curve" smooth="yes"/>
      <point x="120" y="1141"/>
      <point x="60" y="953"/>
      <point x="60" y="720" type="curve" smooth="yes"/>
      <point x="60" y="487"/>
      <point x="120" y="298"/>
      <point x="230" y="170" type="curve" smooth="yes"/>
      <point x="340" y="41"/>
      <point x="500" y="-30"/>
      <point x="701" y="-30" type="curve" smooth="yes"/>
      <point x="828" y="-30"/>
      <point x="942" y="-2"/>
      <point x="1030" y="51" type="curve" smooth="yes"/>
      <point x="1118" y="103"/>
      <point x="1190" y="180"/>
      <point x="1230" y="277" type="curve"/>
      <point x="1296" y="720" type="line"/>
      <point x="755" y="720" type="line"/>
      <point x="755" y="636" type="line"/>
      <point x="1224" y="636" type="line"/>
      <point x="1224" y="463"/>
      <point x="1183" y="318"/>
      <point x="1101" y="216" type="curve" smooth="yes"/>
      <point x="1019" y="114"/>
      <point x="885" y="54"/>
      <point x="701" y="54" type="curve" smooth="yes"/>
      <point x="528" y="54"/>
      <point x="390" y="115"/>
      <point x="295" y="228" type="curve" smooth="yes"/>
      <point x="200" y="340"/>
      <point x="150" y="504"/>
      <point x="150" y="708" type="curve" smooth="yes"/>
      <point x="150" y="925"/>
      <point x="199" y="1094"/>
      <point x="294" y="1209" type="curve" smooth="yes"/>
      <point x="389" y="1324"/>
      <point x="527" y="1384"/>
      <point x="706" y="1384" type="curve" smooth="yes"/>
      <point x="810" y="1384"/>
      <point x="904" y="1359"/>
      <point x="983" y="1310" type="curve" smooth="yes"/>
      <point x="1062" y="1261"/>
      <point x="1123" y="1187"/>
      <point x="1162" y="1088" type="curve"/>
      <point x="1244" y="1122" type="line"/>
      <point x="1199" y="1238"/>
      <point x="1125" y="1325"/>
      <point x="1033" y="1382" type="curve" smooth="yes"/>
      <point x="940" y="1439"/>
      <point x="829" y="1468"/>
    </contour>
  </outline>
</glyph>
<glyph name="I" format="2">
  <advance width="404"/>
  <unicode hex="0049"/>
  <outline>
    <contour>
      <point x="160" y="0" type="line"/>
      <point x="160" y="1440" type="line"/>
      <point x="244" y="1440" type="line"/>
      <point x="244" y="0" type="line"/>
    </contour>
  </outline>
</glyph>
<glyph name="J" format="2">
  <advance width="878"/>
  <unicode hex="004A"/>
  <outline>
    <contour>
      <point x="358" y="-28" type="curve" smooth="yes"/>
      <point x="271" y="-28"/>
      <point x="195" y="-3"/>
      <point x="129" y="48" type="curve" smooth="yes"/>
      <point x="63" y="99"/>
      <point x="20" y="166"/>
      <point x="0" y="250" type="curve"/>
      <point x="86" y="270" type="line"/>
      <point x="101" y="209"/>
      <point x="134" y="159"/>
      <point x="183" y="118" type="curve" smooth="yes"/>
      <point x="232" y="77"/>
      <point x="292" y="56"/>
      <point x="362" y="56" type="curve" smooth="yes"/>
      <point x="405" y="56"/>
      <point x="449" y="66"/>
      <point x="492" y="86" type="curve" smooth="yes"/>
      <point x="535" y="106"/>
      <point x="570" y="139"/>
      <point x="596" y="186" type="curve" smooth="yes"/>
      <point x="614" y="219"/>
      <point x="625" y="254"/>
      <point x="628" y="291" type="curve" smooth="yes"/>
      <point x="631" y="328"/>
      <point x="632" y="372"/>
      <point x="632" y="424" type="curve" smooth="yes"/>
      <point x="632" y="1440" type="line"/>
      <point x="716" y="1440" type="line"/>
      <point x="716" y="424" type="line" smooth="yes"/>
      <point x="716" y="387"/>
      <point x="716" y="353"/>
      <point x="715" y="322" type="curve" smooth="yes"/>
      <point x="714" y="258"/>
      <point x="703" y="201"/>
      <point x="670" y="142" type="curve" smooth="yes"/>
      <point x="606" y="30"/>
      <point x="490" y="-28"/>
    </contour>
  </outline>
</glyph>
<glyph name="M" format="2">
  <advance width="1562"/>
  <unicode hex="004D"/>
  <outline>
    <contour>
      <point x="140" y="0" type="line"/>
      <point x="140" y="1440" type="line"/>
      <point x="220" y="1440" type="line"/>
      <point x="782" y="232" type="line"/>
      <point x="1338" y="1440" type="line"/>
      <point x="1422" y="1440" type="line"/>
      <point x="1422" y="2" type="line"/>
      <point x="1338" y="2" type="line"/>
      <point x="1338" y="1238" type="line"/>
      <point x="828" y="130" type="line"/>
      <point x="734" y="130" type="line"/>
      <point x="224" y="1238" type="line"/>
      <point x="224" y="0" type="line"/>
    </contour>
  </outline>
</glyph>
<glyph name="P" format="2">
  <advance width="1162"/>
  <unicode hex="0050"/>
  <outline>
    <contour>
      <point x="140" y="0" type="line"/>
      <point x="140" y="1440" type="line"/>
      <point x="670" y="1440" type="line" smooth="yes"/>
      <point x="698" y="1440"/>
      <point x="726" y="1439"/>
      <point x="762" y="1432" type="curve"/>
      <point x="831" y="1421"/>
      <point x="892" y="1396"/>
      <point x="943" y="1357" type="curve" smooth="yes"/>
      <point x="1045" y="1277"/>
      <point x="1102" y="1152"/>
      <point x="1102" y="1008" type="curve" smooth="yes"/>
      <point x="1102" y="936"/>
      <point x="1088" y="870"/>
      <point x="1061" y="810" type="curve" smooth="yes"/>
      <point x="1005" y="689"/>
      <point x="901" y="605"/>
      <point x="762" y="584" type="curve" smooth="yes"/>
      <point x="744" y="581"/>
      <point x="728" y="579"/>
      <point x="713" y="578" type="curve" smooth="yes"/>
      <point x="698" y="577"/>
      <point x="684" y="576"/>
      <point x="670" y="576" type="curve" smooth="yes"/>
      <point x="224" y="576" type="line"/>
      <point x="224" y="0" type="line"/>
    </contour>
    <contour>
      <point x="224" y="660" type="line"/>
      <point x="670" y="660" type="line" smooth="yes"/>
      <point x="693" y="660"/>
      <point x="726" y="663"/>
      <point x="758" y="668" type="curve"/>
      <point x="813" y="679"/>
      <point x="860" y="701"/>
      <point x="898" y="734" type="curve" smooth="yes"/>
      <point x="973" y="801"/>
      <point x="1012" y="900"/>
      <point x="1012" y="1008" type="curve" smooth="yes"/>
      <point x="1012" y="1062"/>
      <point x="1002" y="1113"/>
      <point x="983" y="1161" type="curve" smooth="yes"/>
      <point x="944" y="1256"/>
      <point x="869" y="1327"/>
      <point x="758" y="1348" type="curve"/>
      <point x="726" y="1355"/>
      <point x="693" y="1356"/>
      <point x="670" y="1356" type="curve" smooth="yes"/>
      <point x="224" y="1356" type="line"/>
    </contour>
  </outline>
</glyph>
<glyph name="Q" format="2">
  <advance width="1412"/>
  <unicode hex="0051"/>
  <outline>
    <contour>
      <point x="1139" y="180" type="line"/>
      <point x="1200" y="77"/>
      <point x="1271" y="28"/>
      <point x="1392" y="18" type="curve"/>
      <point x="1377" y="-70" type="line"/>
      <point x="1217" y="-47"/>
      <point x="1144" y="2"/>
      <point x="1062" y="140" type="curve"/>
    </contour>
    <contour>
      <point x="706" y="-30" type="curve" smooth="yes"/>
      <point x="256" y="-30"/>
      <point x="60" y="307"/>
      <point x="60" y="720" type="curve" smooth="yes"/>
      <point x="60" y="1133"/>
      <point x="255" y="1470"/>
      <point x="706" y="1470" type="curve" smooth="yes"/>
      <point x="1157" y="1470"/>
      <point x="1352" y="1133"/>
      <point x="1352" y="720" type="curve" smooth="yes"/>
      <point x="1352" y="307"/>
      <point x="1157" y="-30"/>
    </contour>
    <contour>
      <point x="706" y="54" type="curve" smooth="yes"/>
      <point x="1102" y="54"/>
      <point x="1262" y="363"/>
      <point x="1262" y="720" type="curve" smooth="yes"/>
      <point x="1262" y="1077"/>
      <point x="1102" y="1386"/>
      <point x="706" y="1386" type="curve" smooth="yes"/>
      <point x="308" y="1386"/>
      <point x="150" y="1069"/>
      <point x="150" y="712" type="curve" smooth="yes"/>
      <point x="150" y="356"/>
      <point x="314" y="54"/>
    </contour>
  </outline>
</glyph>
<glyph name="R" format="2">
  <advance width="1222"/>
  <unicode hex="0052"/>
  <outline>
    <contour>
      <point x="1021" y="0" type="line"/>
      <point x="670" y="682" type="line"/>
      <point x="768" y="682" type="line"/>
      <point x="1121" y="0" type="line"/>
    </contour>
    <contour>
      <point x="140" y="0" type="line"/>
      <point x="140" y="1440" type="line"/>
      <point x="670" y="1440" type="line" smooth="yes"/>
      <point x="698" y="1440"/>
      <point x="726" y="1439"/>
      <point x="762" y="1432" type="curve"/>
      <point x="831" y="1421"/>
      <point x="892" y="1397"/>
      <point x="943" y="1360" type="curve" smooth="yes"/>
      <point x="1045" y="1284"/>
      <point x="1102" y="1169"/>
      <point x="1102" y="1038" type="curve" smooth="yes"/>
      <point x="1102" y="973"/>
      <point x="1088" y="912"/>
      <point x="1061" y="857" type="curve" smooth="yes"/>
      <point x="1033" y="802"/>
      <point x="994" y="755"/>
      <point x="943" y="718" type="curve" smooth="yes"/>
      <point x="892" y="681"/>
      <point x="831" y="656"/>
      <point x="762" y="644" type="curve" smooth="yes"/>
      <point x="744" y="641"/>
      <point x="728" y="639"/>
      <point x="713" y="638" type="curve" smooth="yes"/>
      <point x="698" y="637"/>
      <point x="684" y="636"/>
      <point x="670" y="636" type="curve" smooth="yes"/>
      <point x="224" y="636" type="line"/>
      <point x="224" y="0" type="line"/>
    </contour>
    <contour>
      <point x="224" y="720" type="line"/>
      <point x="670" y="720" type="line" smooth="yes"/>
      <point x="693" y="720"/>
      <point x="726" y="723"/>
      <point x="758" y="728" type="curve" smooth="yes"/>
      <point x="841" y="743"/>
      <point x="905" y="781"/>
      <point x="948" y="842" type="curve" smooth="yes"/>
      <point x="991" y="902"/>
      <point x="1012" y="967"/>
      <point x="1012" y="1038" type="curve" smooth="yes"/>
      <point x="1012" y="1109"/>
      <point x="991" y="1175"/>
      <point x="948" y="1235" type="curve" smooth="yes"/>
      <point x="905" y="1294"/>
      <point x="841" y="1332"/>
      <point x="758" y="1348" type="curve" smooth="yes"/>
      <point x="726" y="1355"/>
      <point x="693" y="1356"/>
      <point x="670" y="1356" type="curve" smooth="yes"/>
      <point x="224" y="1356" type="line"/>
    </contour>
  </outline>
</glyph>
<glyph name="X" format="2">
  <advance width="1146"/>
  <unicode hex="0058"/>
  <outline>
    <contour>
      <point x="20" y="0" type="line"/>
      <point x="526" y="730" type="line"/>
      <point x="32" y="1440" type="line"/>
      <point x="132" y="1440" type="line"/>
      <point x="572" y="798" type="line"/>
      <point x="1014" y="1440" type="line"/>
      <point x="1114" y="1440" type="line"/>
      <point x="620" y="730" type="line"/>
      <point x="1126" y="0" type="line"/>
      <point x="1026" y="0" type="line"/>
      <point x="572" y="660" type="line"/>
      <point x="120" y="0" type="line"/>
    </contour>
  </outline>
</glyph>
<glyph name="Z" format="2">
  <advance width="1162"/>
  <unicode hex="005A"/>
  <outline>
    <contour>
      <point x="100" y="0" type="line"/>
      <point x="100" y="30" type="line"/>
      <point x="938" y="1356" type="line"/>
      <point x="100" y="1356" type="line"/>
      <point x="100" y="1440" type="line"/>
      <point x="1062" y="1440" type="line"/>
      <point x="1062" y="1406" type="line"/>
      <point x="228" y="82" type="line"/>
      <point x="1062" y="82" type="line"/>
      <point x="1062" y="0" type="line"/>
    </contour>
  </outline>
</glyph>
<glyph name="bracketleft" format="2">
  <advance width="792"/>
  <unicode hex="005B"/>
  <outline>
    <contour>
      <point x="280" y="-444" type="line"/>
      <point x="280" y="1764" type="line"/>
      <point x="612" y="1764" type="line"/>
      <point x="612" y="1680" type="line"/>
      <point x="364" y="1680" type="line"/>
      <point x="364" y="-360" type="line"/>
      <point x="612" y="-360" type="line"/>
      <point x="612" y="-444" type="line"/>
    </contour>
  </outline>
</glyph>
<glyph name="backslash" format="2">
  <advance width="714"/>
  <unicode hex="005C"/>
  <outline>
    <contour>
      <point x="210" y="1440" type="line"/>
      <point x="594" y="0" type="line"/>
      <point x="504" y="0" type="line"/>
      <point x="120" y="1440" type="line"/>
    </contour>
  </outline>
</glyph>
<glyph name="grave" format="2">
  <advance width="914"/>
  <unicode hex="0060"/>
  <outline>
    <contour>
      <point x="451" y="1890" type="line"/>
      <point x="355" y="1890" type="line"/>
      <point x="451" y="1620" type="line"/>
      <point x="517" y="1620" type="line"/>
    </contour>
  </outline>
</glyph>
<glyph name="a" format="2">
  <advance width="1084"/>
  <unicode hex="0061"/>
  <outline>
    <contour>
      <point x="552" y="1110" type="qcurve" smooth="yes"/>
      <point x="378" y="1110"/>
      <point x="157" y="953"/>
      <point x="122" y="804" type="qcurve"/>
      <point x="208" y="788" type="line"/>
      <point x="238" y="908"/>
      <point x="407" y="1026"/>
      <point x="548" y="1026" type="qcurve" smooth="yes"/>
      <point x="635" y="1026"/>
      <point x="761" y="985"/>
      <point x="842" y="898"/>
      <point x="880" y="763"/>
      <point x="880" y="668" type="qcurve" smooth="yes"/>
      <point x="880" y="582" type="line" smooth="yes"/>
      <point x="880" y="546"/>
      <point x="878" y="450"/>
      <point x="872" y="408" type="qcurve" smooth="yes"/>
      <point x="860" y="325"/>
      <point x="793" y="193"/>
      <point x="688" y="102"/>
      <point x="549" y="54"/>
      <point x="465" y="54" type="qcurve" smooth="yes"/>
      <point x="316" y="54"/>
      <point x="166" y="166"/>
      <point x="166" y="275" type="qcurve" smooth="yes"/>
      <point x="166" y="332"/>
      <point x="205" y="416"/>
      <point x="292" y="477"/>
      <point x="430" y="517"/>
      <point x="529" y="529" type="qcurve" smooth="yes"/>
      <point x="891" y="574" type="line"/>
      <point x="892" y="659" type="line"/>
      <point x="529" y="614" type="line" smooth="yes"/>
      <point x="433" y="602"/>
      <point x="268" y="560"/>
      <point x="148" y="483"/>
      <point x="80" y="364"/>
      <point x="80" y="275" type="qcurve" smooth="yes"/>
      <point x="80" y="203"/>
      <point x="131" y="89"/>
      <point x="229" y="11"/>
      <point x="369" y="-30"/>
      <point x="459" y="-30" type="qcurve" smooth="yes"/>
      <point x="604" y="-30"/>
      <point x="819" y="92"/>
      <point x="880" y="207" type="qcurve"/>
      <point x="880" y="0" type="line"/>
      <point x="964" y="0" type="line"/>
      <point x="964" y="676" type="line" smooth="yes"/>
      <point x="964" y="892"/>
      <point x="757" y="1110"/>
    </contour>
  </outline>
</glyph>
<glyph name="b" format="2">
  <advance width="1202"/>
  <unicode hex="0062"/>
  <outline>
    <contour>
      <point x="140" y="1440" type="line"/>
      <point x="224" y="1440" type="line"/>
      <point x="224" y="0" type="line"/>
      <point x="140" y="0" type="line"/>
    </contour>
    <contour>
      <point x="628" y="1110" type="qcurve" smooth="yes"/>
      <point x="747" y="1110"/>
      <point x="931" y="1027"/>
      <point x="1057" y="877"/>
      <point x="1122" y="666"/>
      <point x="1122" y="538" type="qcurve" smooth="yes"/>
      <point x="1122" y="413"/>
      <point x="1058" y="204"/>
      <point x="933" y="54"/>
      <point x="749" y="-30"/>
      <point x="628" y="-30" type="qcurve" smooth="yes"/>
      <point x="510" y="-30"/>
      <point x="333" y="52"/>
      <point x="214" y="201"/>
      <point x="154" y="411"/>
      <point x="154" y="538" type="qcurve" smooth="yes"/>
      <point x="154" y="664"/>
      <point x="212" y="874"/>
      <point x="330" y="1026"/>
      <point x="508" y="1110"/>
    </contour>
    <contour>
      <point x="628" y="1026" type="qcurve" smooth="yes"/>
      <point x="528" y="1026"/>
      <point x="377" y="956"/>
      <point x="275" y="828"/>
      <point x="224" y="648"/>
      <point x="224" y="538" type="qcurve" smooth="yes"/>
      <point x="224" y="432"/>
      <point x="273" y="254"/>
      <point x="373" y="125"/>
      <point x="525" y="54"/>
      <point x="628" y="54" type="qcurve" smooth="yes"/>
      <point x="729" y="54"/>
      <point x="881" y="123"/>
      <point x="982" y="249"/>
      <point x="1032" y="428"/>
      <point x="1032" y="538" type="qcurve" smooth="yes"/>
      <point x="1032" y="647"/>
      <point x="982" y="826"/>
      <point x="882" y="955"/>
      <point x="730" y="1026"/>
    </contour>
  </outline>
</glyph>
<glyph name="d" format="2">
  <advance width="1152"/>
  <unicode hex="0064"/>
  <outline>
    <contour>
      <point x="550" y="-30" type="qcurve" smooth="yes"/>
      <point x="397" y="-30"/>
      <point x="188" y="121"/>
      <point x="80" y="380"/>
      <point x="80" y="542" type="qcurve" smooth="yes"/>
      <point x="80" y="701"/>
      <point x="186" y="959"/>
      <point x="389" y="1110"/>
      <point x="534" y="1110" type="qcurve" smooth="yes"/>
      <point x="685" y="1110"/>
      <point x="892" y="963"/>
      <point x="998" y="706"/>
      <point x="998" y="542" type="qcurve" smooth="yes"/>
      <point x="998" y="381"/>
      <point x="893" y="122"/>
      <point x="693" y="-30"/>
    </contour>
    <contour>
      <point x="550" y="54" type="qcurve" smooth="yes"/>
      <point x="677" y="54"/>
      <point x="848" y="182"/>
      <point x="934" y="403"/>
      <point x="934" y="542" type="qcurve" smooth="yes"/>
      <point x="934" y="683"/>
      <point x="847" y="902"/>
      <point x="676" y="1026"/>
      <point x="550" y="1026" type="qcurve" smooth="yes"/>
      <point x="421" y="1026"/>
      <point x="252" y="899"/>
      <point x="170" y="680"/>
      <point x="170" y="542" type="qcurve" smooth="yes"/>
      <point x="170" y="403"/>
      <point x="256" y="182"/>
      <point x="425" y="54"/>
    </contour>
    <contour>
      <point x="934" y="0" type="line"/>
      <point x="934" y="850" type="line"/>
      <point x="928" y="850" type="line"/>
      <point x="928" y="1440" type="line"/>
      <point x="1012" y="1440" type="line"/>
      <point x="1012" y="0" type="line"/>
    </contour>
  </outline>
</glyph>
<glyph name="f" format="2">
  <advance width="678"/>
  <unicode hex="0066"/>
  <outline>
    <contour>
      <point x="256" y="0" type="line"/>
      <point x="256" y="1202" type="line" smooth="yes"/>
      <point x="256" y="1380"/>
      <point x="338" y="1470"/>
      <point x="518" y="1470" type="curve" smooth="yes"/>
      <point x="658" y="1470" type="line"/>
      <point x="658" y="1394" type="line"/>
      <point x="543" y="1394" type="line" smooth="yes"/>
      <point x="423" y="1394"/>
      <point x="340" y="1366"/>
      <point x="340" y="1194" type="curve" smooth="yes"/>
      <point x="340" y="0" type="line"/>
    </contour>
    <contour>
      <point x="60" y="996" type="line"/>
      <point x="60" y="1080" type="line"/>
      <point x="658" y="1080" type="line"/>
      <point x="658" y="996" type="line"/>
    </contour>
  </outline>
</glyph>
<glyph name="g" format="2">
  <advance width="1202"/>
  <unicode hex="0067"/>
  <outline>
    <contour>
      <point x="574" y="94" type="curve" smooth="yes"/>
      <point x="850" y="94"/>
      <point x="978" y="303"/>
      <point x="978" y="558" type="curve" smooth="yes"/>
      <point x="978" y="813"/>
      <point x="852" y="1026"/>
      <point x="574" y="1026" type="curve" smooth="yes"/>
      <point x="295" y="1026"/>
      <point x="170" y="814"/>
      <point x="170" y="558" type="curve" smooth="yes"/>
      <point x="170" y="300"/>
      <point x="294" y="94"/>
    </contour>
    <contour>
      <point x="574" y="1110" type="curve" smooth="yes"/>
      <point x="902" y="1110"/>
      <point x="1048" y="858"/>
      <point x="1048" y="558" type="curve" smooth="yes"/>
      <point x="1048" y="258"/>
      <point x="901" y="10"/>
      <point x="574" y="10" type="curve" smooth="yes"/>
      <point x="248" y="10"/>
      <point x="80" y="251"/>
      <point x="80" y="558" type="curve" smooth="yes"/>
      <point x="80" y="865"/>
      <point x="246" y="1110"/>
    </contour>
    <contour>
      <point x="1062" y="60" type="line" smooth="yes"/>
      <point x="1062" y="-252"/>
      <point x="916" y="-510"/>
      <point x="574" y="-510" type="curve" smooth="yes"/>
      <point x="379" y="-510"/>
      <point x="230" y="-418"/>
      <point x="140" y="-246" type="curve"/>
      <point x="222" y="-210" type="line"/>
      <point x="289" y="-354"/>
      <point x="417" y="-426"/>
      <point x="574" y="-426" type="curve" smooth="yes"/>
      <point x="866" y="-426"/>
      <point x="978" y="-202"/>
      <point x="978" y="60" type="curve" smooth="yes"/>
      <point x="978" y="1080" type="line"/>
      <point x="1062" y="1080" type="line"/>
    </contour>
  </outline>
</glyph>
<glyph name="j" format="2">
  <advance width="450"/>
  <unicode hex="006A"/>
  <outline>
    <contour>
      <point x="-20" y="-480" type="line"/>
      <point x="-20" y="-394" type="line"/>
      <point x="48" y="-394" type="line" smooth="yes"/>
      <point x="90" y="-394"/>
      <point x="127" y="-382"/>
      <point x="159" y="-359" type="curve"/>
      <point x="190" y="-335"/>
      <point x="206" y="-292"/>
      <point x="206" y="-230" type="curve" smooth="yes"/>
      <point x="206" y="1080" type="line"/>
      <point x="290" y="1080" type="line"/>
      <point x="290" y="-220" type="line" smooth="yes"/>
      <point x="290" y="-312"/>
      <point x="271" y="-378"/>
      <point x="234" y="-419" type="curve" smooth="yes"/>
      <point x="196" y="-460"/>
      <point x="133" y="-480"/>
      <point x="46" y="-480" type="curve" smooth="yes"/>
    </contour>
    <contour>
      <point x="248" y="1303" type="curve" smooth="yes"/>
      <point x="227" y="1303"/>
      <point x="210" y="1310"/>
      <point x="196" y="1324" type="curve"/>
      <point x="181" y="1338"/>
      <point x="174" y="1355"/>
      <point x="174" y="1376" type="curve" smooth="yes"/>
      <point x="174" y="1397"/>
      <point x="181" y="1415"/>
      <point x="196" y="1429" type="curve"/>
      <point x="210" y="1443"/>
      <point x="227" y="1450"/>
      <point x="248" y="1450" type="curve" smooth="yes"/>
      <point x="269" y="1450"/>
      <point x="286" y="1443"/>
      <point x="301" y="1429" type="curve"/>
      <point x="315" y="1415"/>
      <point x="322" y="1397"/>
      <point x="322" y="1376" type="curve" smooth="yes"/>
      <point x="322" y="1355"/>
      <point x="315" y="1338"/>
      <point x="301" y="1324" type="curve"/>
      <point x="286" y="1310"/>
      <point x="269" y="1303"/>
    </contour>
  </outline>
</glyph>
<glyph name="l" format="2">
  <advance width="504"/>
  <unicode hex="006C"/>
  <outline>
    <contour>
      <point x="454" y="84" type="curve"/>
      <point x="454" y="0" type="line"/>
      <point x="401" y="0" type="line" smooth="yes"/>
      <point x="328" y="0"/>
      <point x="266" y="24"/>
      <point x="225" y="65" type="curve" smooth="yes"/>
      <point x="184" y="106"/>
      <point x="160" y="168"/>
      <point x="160" y="241" type="curve" smooth="yes"/>
      <point x="160" y="270"/>
      <point x="160" y="298"/>
      <point x="160" y="327" type="curve" smooth="yes"/>
      <point x="160" y="1440" type="line"/>
      <point x="244" y="1440" type="line"/>
      <point x="244" y="455" type="line" smooth="yes"/>
      <point x="244" y="395"/>
      <point x="244" y="336"/>
      <point x="244" y="276" type="curve" smooth="yes"/>
      <point x="244" y="216"/>
      <point x="253" y="173"/>
      <point x="271" y="145" type="curve" smooth="yes"/>
      <point x="289" y="116"/>
      <point x="317" y="99"/>
      <point x="357" y="91" type="curve" smooth="yes"/>
      <point x="384" y="86"/>
      <point x="415" y="84"/>
    </contour>
  </outline>
</glyph>
<glyph name="m" format="2">
  <advance width="1628"/>
  <unicode hex="006D"/>
  <outline>
    <contour>
      <point x="1422" y="0" type="line"/>
      <point x="1424" y="744" type="line" smooth="yes"/>
      <point x="1424" y="834"/>
      <point x="1398" y="905"/>
      <point x="1345" y="957" type="curve" smooth="yes"/>
      <point x="1292" y="1008"/>
      <point x="1227" y="1034"/>
      <point x="1150" y="1034" type="curve" smooth="yes"/>
      <point x="1107" y="1034"/>
      <point x="1064" y="1024"/>
      <point x="1021" y="1005" type="curve" smooth="yes"/>
      <point x="977" y="986"/>
      <point x="940" y="953"/>
      <point x="911" y="907" type="curve" smooth="yes"/>
      <point x="881" y="861"/>
      <point x="866" y="798"/>
      <point x="866" y="718" type="curve"/>
      <point x="792" y="718" type="line"/>
      <point x="789" y="797"/>
      <point x="803" y="866"/>
      <point x="834" y="925" type="curve" smooth="yes"/>
      <point x="896" y="1042"/>
      <point x="1012" y="1110"/>
      <point x="1156" y="1110" type="curve" smooth="yes"/>
      <point x="1258" y="1110"/>
      <point x="1342" y="1078"/>
      <point x="1409" y="1014" type="curve" smooth="yes"/>
      <point x="1475" y="950"/>
      <point x="1508" y="862"/>
      <point x="1508" y="750" type="curve" smooth="yes"/>
      <point x="1506" y="0" type="line"/>
    </contour>
    <contour>
      <point x="140" y="0" type="line"/>
      <point x="140" y="1080" type="line"/>
      <point x="218" y="1080" type="line"/>
      <point x="218" y="860" type="line"/>
      <point x="224" y="860" type="line"/>
      <point x="224" y="0" type="line"/>
    </contour>
    <contour>
      <point x="782" y="0" type="line"/>
      <point x="784" y="730" type="line" smooth="yes"/>
      <point x="784" y="823"/>
      <point x="758" y="897"/>
      <point x="707" y="952" type="curve" smooth="yes"/>
      <point x="655" y="1007"/>
      <point x="588" y="1034"/>
      <point x="506" y="1034" type="curve" smooth="yes"/>
      <point x="422" y="1034"/>
      <point x="354" y="1005"/>
      <point x="302" y="948" type="curve" smooth="yes"/>
      <point x="250" y="891"/>
      <point x="224" y="814"/>
      <point x="224" y="718" type="curve"/>
      <point x="150" y="750" type="line"/>
      <point x="150" y="819"/>
      <point x="166" y="881"/>
      <point x="197" y="936" type="curve" smooth="yes"/>
      <point x="260" y="1044"/>
      <point x="373" y="1110"/>
      <point x="516" y="1110" type="curve" smooth="yes"/>
      <point x="577" y="1110"/>
      <point x="634" y="1097"/>
      <point x="687" y="1072" type="curve" smooth="yes"/>
      <point x="794" y="1020"/>
      <point x="866" y="913"/>
      <point x="866" y="744" type="curve" smooth="yes"/>
      <point x="864" y="0" type="line"/>
    </contour>
  </outline>
</glyph>
<glyph name="o" format="2">
  <advance width="1148"/>
  <unicode hex="006F"/>
  <outline>
    <contour>
      <point x="574" y="-30" type="curve" smooth="yes"/>
      <point x="467" y="-30"/>
      <point x="377" y="-6"/>
      <point x="304" y="43" type="curve" smooth="yes"/>
      <point x="157" y="140"/>
      <point x="80" y="318"/>
      <point x="80" y="542" type="curve" smooth="yes"/>
      <point x="80" y="655"/>
      <point x="99" y="755"/>
      <point x="138" y="840" type="curve" smooth="yes"/>
      <point x="215" y="1011"/>
      <point x="365" y="1110"/>
      <point x="574" y="1110" type="curve" smooth="yes"/>
      <point x="681" y="1110"/>
      <point x="772" y="1086"/>
      <point x="845" y="1038" type="curve" smooth="yes"/>
      <point x="992" y="941"/>
      <point x="1068" y="765"/>
      <point x="1068" y="542" type="curve" smooth="yes"/>
      <point x="1068" y="428"/>
      <point x="1049" y="328"/>
      <point x="1011" y="243" type="curve" smooth="yes"/>
      <point x="973" y="157"/>
      <point x="917" y="90"/>
      <point x="844" y="42" type="curve" smooth="yes"/>
      <point x="770" y="-6"/>
      <point x="680" y="-30"/>
    </contour>
    <contour>
      <point x="574" y="54" type="curve" smooth="yes"/>
      <point x="710" y="54"/>
      <point x="811" y="99"/>
      <point x="878" y="190" type="curve" smooth="yes"/>
      <point x="945" y="280"/>
      <point x="978" y="397"/>
      <point x="978" y="542" type="curve" smooth="yes"/>
      <point x="978" y="689"/>
      <point x="945" y="807"/>
      <point x="878" y="895" type="curve" smooth="yes"/>
      <point x="811" y="982"/>
      <point x="709" y="1026"/>
      <point x="574" y="1026" type="curve" smooth="yes"/>
      <point x="483" y="1026"/>
      <point x="407" y="1005"/>
      <point x="348" y="964" type="curve" smooth="yes"/>
      <point x="228" y="881"/>
      <point x="170" y="731"/>
      <point x="170" y="542" type="curve" smooth="yes"/>
      <point x="170" y="395"/>
      <point x="204" y="277"/>
      <point x="273" y="188" type="curve" smooth="yes"/>
      <point x="341" y="99"/>
      <point x="441" y="54"/>
    </contour>
  </outline>
</glyph>
<glyph name="q" format="2">
  <advance width="1202"/>
  <unicode hex="0071"/>
  <outline>
    <contour>
      <point x="1062" y="-480" type="line"/>
      <point x="978" y="-480" type="line"/>
      <point x="978" y="1080" type="line"/>
      <point x="1062" y="1080" type="line"/>
    </contour>
    <contour>
      <point x="574" y="-30" type="qcurve" smooth="yes"/>
      <point x="455" y="-30"/>
      <point x="271" y="53"/>
      <point x="145" y="203"/>
      <point x="80" y="414"/>
      <point x="80" y="542" type="qcurve" smooth="yes"/>
      <point x="80" y="667"/>
      <point x="144" y="876"/>
      <point x="269" y="1026"/>
      <point x="453" y="1110"/>
      <point x="574" y="1110" type="qcurve" smooth="yes"/>
      <point x="692" y="1110"/>
      <point x="869" y="1028"/>
      <point x="988" y="879"/>
      <point x="1048" y="670"/>
      <point x="1048" y="542" type="qcurve" smooth="yes"/>
      <point x="1048" y="416"/>
      <point x="990" y="206"/>
      <point x="872" y="54"/>
      <point x="694" y="-30"/>
    </contour>
    <contour>
      <point x="574" y="54" type="qcurve" smooth="yes"/>
      <point x="674" y="54"/>
      <point x="825" y="124"/>
      <point x="927" y="252"/>
      <point x="978" y="432"/>
      <point x="978" y="542" type="qcurve" smooth="yes"/>
      <point x="978" y="649"/>
      <point x="929" y="826"/>
      <point x="829" y="955"/>
      <point x="677" y="1026"/>
      <point x="574" y="1026" type="qcurve" smooth="yes"/>
      <point x="473" y="1026"/>
      <point x="321" y="957"/>
      <point x="220" y="831"/>
      <point x="170" y="652"/>
      <point x="170" y="542" type="qcurve" smooth="yes"/>
      <point x="170" y="433"/>
      <point x="220" y="254"/>
      <point x="320" y="125"/>
      <point x="472" y="54"/>
    </contour>
  </outline>
</glyph>
<glyph name="r" format="2">
  <advance width="671"/>
  <unicode hex="0072"/>
  <outline>
    <contour>
      <point x="140" y="0" type="line"/>
      <point x="140" y="1080" type="line"/>
      <point x="218" y="1080" type="line"/>
      <point x="218" y="822" type="line"/>
      <point x="192" y="856" type="line"/>
      <point x="245" y="991"/>
      <point x="350" y="1100"/>
      <point x="499" y="1100" type="curve" smooth="yes"/>
      <point x="547" y="1100"/>
      <point x="613" y="1092"/>
      <point x="651" y="1061" type="curve"/>
      <point x="620" y="987" type="line"/>
      <point x="585" y="1011"/>
      <point x="542" y="1024"/>
      <point x="499" y="1024" type="curve" smooth="yes"/>
      <point x="439" y="1024"/>
      <point x="382" y="984"/>
      <point x="338" y="944" type="curve" smooth="yes"/>
      <point x="228" y="842"/>
      <point x="224" y="672"/>
      <point x="224" y="532" type="curve" smooth="yes"/>
      <point x="224" y="0" type="line"/>
    </contour>
  </outline>
</glyph>
<glyph name="v" format="2">
  <advance width="956"/>
  <unicode hex="0076"/>
  <outline>
    <contour>
      <point x="432" y="0" type="line"/>
      <point x="40" y="1080" type="line"/>
      <point x="128" y="1080" type="line"/>
      <point x="478" y="122" type="line"/>
      <point x="826" y="1080" type="line"/>
      <point x="916" y="1080" type="line"/>
      <point x="524" y="0" type="line"/>
    </contour>
  </outline>
</glyph>
<glyph name="x" format="2">
  <advance width="1018"/>
  <unicode hex="0078"/>
  <outline>
    <contour>
      <point x="20" y="0" type="line"/>
      <point x="460" y="546" type="line"/>
      <point x="30" y="1080" type="line"/>
      <point x="134" y="1080" type="line"/>
      <point x="510" y="608" type="line"/>
      <point x="884" y="1080" type="line"/>
      <point x="988" y="1080" type="line"/>
      <point x="558" y="546" type="line"/>
      <point x="998" y="0" type="line"/>
      <point x="892" y="0" type="line"/>
      <point x="510" y="484" type="line"/>
      <point x="126" y="0" type="line"/>
    </contour>
  </outline>
</glyph>
<glyph name="y" format="2">
  <advance width="996"/>
  <unicode hex="0079"/>
  <outline>
    <contour>
      <point x="80" y="1080" type="line"/>
      <point x="168" y="1080" type="line"/>
      <point x="518" y="122" type="line"/>
      <point x="866" y="1080" type="line"/>
      <point x="956" y="1080" type="line"/>
      <point x="564" y="0" type="line" smooth="yes"/>
      <point x="495" y="-193"/>
      <point x="445" y="-470"/>
      <point x="187" y="-470" type="curve" smooth="yes"/>
      <point x="127" y="-470" type="line"/>
      <point x="127" y="-394" type="line"/>
      <point x="177" y="-394" type="line" smooth="yes"/>
      <point x="380" y="-394"/>
      <point x="413" y="-156"/>
      <point x="472" y="0" type="curve"/>
    </contour>
  </outline>
</glyph>
<glyph name="braceleft" format="2">
  <advance width="799"/>
  <unicode hex="007B"/>
  <outline>
    <contour>
      <point x="601" y="-444" type="line" smooth="yes"/>
      <point x="543" y="-444"/>
      <point x="494" y="-424"/>
      <point x="453" y="-383" type="curve" smooth="yes"/>
      <point x="412" y="-342"/>
      <point x="391" y="-293"/>
      <point x="391" y="-236" type="curve" smooth="yes"/>
      <point x="391" y="450" type="line" smooth="yes"/>
      <point x="391" y="475"/>
      <point x="384" y="499"/>
      <point x="369" y="522" type="curve"/>
      <point x="287" y="636" type="line"/>
      <point x="278" y="651"/>
      <point x="278" y="671"/>
      <point x="287" y="684" type="curve" smooth="yes"/>
      <point x="369" y="798" type="line"/>
      <point x="384" y="821"/>
      <point x="391" y="845"/>
      <point x="391" y="870" type="curve" smooth="yes"/>
      <point x="391" y="1554" type="line" smooth="yes"/>
      <point x="391" y="1612"/>
      <point x="412" y="1662"/>
      <point x="453" y="1703" type="curve" smooth="yes"/>
      <point x="494" y="1744"/>
      <point x="543" y="1764"/>
      <point x="601" y="1764" type="curve" smooth="yes"/>
      <point x="709" y="1764" type="line"/>
      <point x="709" y="1680" type="line"/>
      <point x="601" y="1680" type="line" smooth="yes"/>
      <point x="566" y="1680"/>
      <point x="537" y="1668"/>
      <point x="512" y="1644" type="curve" smooth="yes"/>
      <point x="487" y="1619"/>
      <point x="475" y="1589"/>
      <point x="475" y="1554" type="curve" smooth="yes"/>
      <point x="475" y="870" type="line" smooth="yes"/>
      <point x="475" y="825"/>
      <point x="462" y="785"/>
      <point x="437" y="750" type="curve" smooth="yes"/>
      <point x="373" y="660" type="line"/>
      <point x="437" y="570" type="line" smooth="yes"/>
      <point x="462" y="535"/>
      <point x="475" y="495"/>
      <point x="475" y="450" type="curve" smooth="yes"/>
      <point x="475" y="-236" type="line" smooth="yes"/>
      <point x="475" y="-270"/>
      <point x="487" y="-299"/>
      <point x="512" y="-324" type="curve" smooth="yes"/>
      <point x="537" y="-348"/>
      <point x="566" y="-360"/>
      <point x="601" y="-360" type="curve" smooth="yes"/>
      <point x="709" y="-360" type="line"/>
      <point x="709" y="-444" type="line"/>
    </contour>
  </outline>
</glyph>
<glyph name="bar" format="2">
  <advance width="444"/>
  <unicode hex="007C"/>
  <outline>
    <contour>
      <point x="180" y="0" type="line"/>
      <point x="180" y="1440" type="line"/>
      <point x="264" y="1440" type="line"/>
      <point x="264" y="0" type="line"/>
    </contour>
  </outline>
</glyph>
<glyph name="braceright" format="2">
  <advance width="799"/>
  <unicode hex="007D"/>
  <outline>
    <contour>
      <point x="90" y="-444" type="line"/>
      <point x="90" y="-360" type="line"/>
      <point x="198" y="-360" type="line" smooth="yes"/>
      <point x="233" y="-360"/>
      <point x="262" y="-348"/>
      <point x="287" y="-324" type="curve" smooth="yes"/>
      <point x="312" y="-299"/>
      <point x="324" y="-270"/>
      <point x="324" y="-236" type="curve" smooth="yes"/>
      <point x="324" y="450" type="line" smooth="yes"/>
      <point x="324" y="495"/>
      <point x="337" y="535"/>
      <point x="362" y="570" type="curve" smooth="yes"/>
      <point x="426" y="660" type="line"/>
      <point x="362" y="750" type="line" smooth="yes"/>
      <point x="337" y="785"/>
      <point x="324" y="825"/>
      <point x="324" y="870" type="curve" smooth="yes"/>
      <point x="324" y="1554" type="line" smooth="yes"/>
      <point x="324" y="1589"/>
      <point x="312" y="1619"/>
      <point x="287" y="1644" type="curve" smooth="yes"/>
      <point x="262" y="1668"/>
      <point x="233" y="1680"/>
      <point x="198" y="1680" type="curve" smooth="yes"/>
      <point x="90" y="1680" type="line"/>
      <point x="90" y="1764" type="line"/>
      <point x="198" y="1764" type="line" smooth="yes"/>
      <point x="256" y="1764"/>
      <point x="306" y="1744"/>
      <point x="347" y="1703" type="curve" smooth="yes"/>
      <point x="388" y="1662"/>
      <point x="408" y="1612"/>
      <point x="408" y="1554" type="curve" smooth="yes"/>
      <point x="408" y="870" type="line" smooth="yes"/>
      <point x="408" y="845"/>
      <point x="415" y="821"/>
      <point x="430" y="798" type="curve"/>
      <point x="512" y="684" type="line" smooth="yes"/>
      <point x="521" y="671"/>
      <point x="521" y="651"/>
      <point x="512" y="636" type="curve"/>
      <point x="430" y="522" type="line"/>
      <point x="415" y="499"/>
      <point x="408" y="475"/>
      <point x="408" y="450" type="curve" smooth="yes"/>
      <point x="408" y="-236" type="line" smooth="yes"/>
      <point x="408" y="-293"/>
      <point x="388" y="-342"/>
      <point x="347" y="-383" type="curve" smooth="yes"/>
      <point x="306" y="-424"/>
      <point x="256" y="-444"/>
      <point x="198" y="-444" type="curve" smooth="yes"/>
    </contour>
  </outline>
</glyph>
<glyph name="asciitilde" format="2">
  <advance width="1252"/>
  <unicode hex="007E"/>
  <outline>
    <contour>
      <point x="822" y="504" type="curve" smooth="yes"/>
      <point x="749" y="504"/>
      <point x="678" y="536"/>
      <point x="611" y="572" type="curve"/>
      <point x="577" y="589"/>
      <point x="545" y="605"/>
      <point x="514" y="619" type="curve"/>
      <point x="483" y="632"/>
      <point x="453" y="639"/>
      <point x="424" y="639" type="curve" smooth="yes"/>
      <point x="383" y="639"/>
      <point x="358" y="625"/>
      <point x="348" y="598" type="curve" smooth="yes"/>
      <point x="338" y="570"/>
      <point x="338" y="543"/>
      <point x="348" y="518" type="curve"/>
      <point x="247" y="518" type="line"/>
      <point x="236" y="561"/>
      <point x="237" y="601"/>
      <point x="250" y="636" type="curve" smooth="yes"/>
      <point x="276" y="707"/>
      <point x="340" y="752"/>
      <point x="427" y="752" type="curve" smooth="yes"/>
      <point x="502" y="752"/>
      <point x="574" y="720"/>
      <point x="642" y="684" type="curve" smooth="yes"/>
      <point x="709" y="648"/>
      <point x="771" y="616"/>
      <point x="828" y="616" type="curve" smooth="yes"/>
      <point x="863" y="616"/>
      <point x="887" y="629"/>
      <point x="901" y="656" type="curve" smooth="yes"/>
      <point x="914" y="682"/>
      <point x="915" y="711"/>
      <point x="904" y="743" type="curve"/>
      <point x="1005" y="743" type="line"/>
      <point x="1016" y="701"/>
      <point x="1016" y="662"/>
      <point x="1003" y="626" type="curve" smooth="yes"/>
      <point x="978" y="553"/>
      <point x="913" y="504"/>
    </contour>
  </outline>
</glyph>
<glyph name="exclamdown" format="2">
  <advance width="564"/>
  <unicode hex="00A1"/>
  <outline>
    <contour>
      <point x="282" y="1086" type="curve" smooth="yes"/>
      <point x="303" y="1086"/>
      <point x="320" y="1079"/>
      <point x="334" y="1064" type="curve"/>
      <point x="349" y="1050"/>
      <point x="356" y="1033"/>
      <point x="356" y="1013" type="curve" smooth="yes"/>
      <point x="356" y="992"/>
      <point x="349" y="974"/>
      <point x="334" y="960" type="curve"/>
      <point x="320" y="946"/>
      <point x="303" y="939"/>
      <point x="282" y="939" type="curve" smooth="yes"/>
      <point x="261" y="939"/>
      <point x="244" y="946"/>
      <point x="229" y="960" type="curve"/>
      <point x="215" y="974"/>
      <point x="208" y="992"/>
      <point x="208" y="1013" type="curve" smooth="yes"/>
      <point x="208" y="1034"/>
      <point x="215" y="1051"/>
      <point x="229" y="1065" type="curve"/>
      <point x="244" y="1079"/>
      <point x="261" y="1086"/>
    </contour>
    <contour>
      <point x="302" y="720" type="line"/>
      <point x="324" y="280" type="line"/>
      <point x="324" y="-360" type="line"/>
      <point x="240" y="-360" type="line"/>
      <point x="240" y="280" type="line"/>
      <point x="250" y="720" type="line"/>
    </contour>
  </outline>
</glyph>
<glyph name="cent" format="2">
  <advance width="1078"/>
  <unicode hex="00A2"/>
  <outline>
    <contour>
      <point x="534" y="-60" type="line"/>
      <point x="534" y="122" type="line"/>
      <point x="435" y="128"/>
      <point x="353" y="156"/>
      <point x="286" y="205" type="curve" smooth="yes"/>
      <point x="153" y="304"/>
      <point x="84" y="474"/>
      <point x="80" y="690" type="curve"/>
      <point x="82" y="801"/>
      <point x="100" y="898"/>
      <point x="135" y="981" type="curve" smooth="yes"/>
      <point x="204" y="1147"/>
      <point x="338" y="1246"/>
      <point x="534" y="1258" type="curve"/>
      <point x="534" y="1440" type="line"/>
      <point x="618" y="1440" type="line"/>
      <point x="618" y="1258" type="line"/>
      <point x="708" y="1251"/>
      <point x="788" y="1225"/>
      <point x="858" y="1178" type="curve" smooth="yes"/>
      <point x="927" y="1131"/>
      <point x="977" y="1069"/>
      <point x="1008" y="992" type="curve"/>
      <point x="928" y="958" type="line"/>
      <point x="898" y="1027"/>
      <point x="852" y="1081"/>
      <point x="790" y="1119" type="curve" smooth="yes"/>
      <point x="727" y="1157"/>
      <point x="655" y="1176"/>
      <point x="574" y="1176" type="curve" smooth="yes"/>
      <point x="483" y="1176"/>
      <point x="408" y="1156"/>
      <point x="349" y="1115" type="curve" smooth="yes"/>
      <point x="230" y="1033"/>
      <point x="173" y="882"/>
      <point x="170" y="690" type="curve"/>
      <point x="172" y="543"/>
      <point x="207" y="426"/>
      <point x="274" y="337" type="curve" smooth="yes"/>
      <point x="341" y="248"/>
      <point x="441" y="204"/>
      <point x="574" y="204" type="curve" smooth="yes"/>
      <point x="733" y="204"/>
      <point x="861" y="279"/>
      <point x="926" y="420" type="curve"/>
      <point x="1008" y="384" type="line"/>
      <point x="924" y="224"/>
      <point x="793" y="134"/>
      <point x="618" y="122" type="curve"/>
      <point x="618" y="-60" type="line"/>
    </contour>
  </outline>
</glyph>
<glyph name="sterling" format="2">
  <advance width="1206"/>
  <unicode hex="00A3"/>
  <outline>
    <contour>
      <point x="300" y="71" type="line"/>
      <point x="376" y="131"/>
      <point x="398" y="230"/>
      <point x="398" y="322" type="curve" smooth="yes"/>
      <point x="398" y="581"/>
      <point x="240" y="812"/>
      <point x="240" y="1062" type="curve" smooth="yes"/>
      <point x="240" y="1278"/>
      <point x="415" y="1385"/>
      <point x="614" y="1385" type="curve" smooth="yes"/>
      <point x="834" y="1385"/>
      <point x="1032" y="1265"/>
      <point x="1062" y="1034" type="curve"/>
      <point x="1146" y="1050" type="line"/>
      <point x="1117" y="1312"/>
      <point x="877" y="1470"/>
      <point x="626" y="1470" type="curve" smooth="yes"/>
      <point x="367" y="1470"/>
      <point x="150" y="1340"/>
      <point x="150" y="1059" type="curve" smooth="yes"/>
      <point x="150" y="804"/>
      <point x="313" y="578"/>
      <point x="313" y="321" type="curve" smooth="yes"/>
      <point x="313" y="217"/>
      <point x="277" y="136"/>
      <point x="183" y="84" type="curve"/>
    </contour>
    <contour>
      <point x="60" y="0" type="line"/>
      <point x="1129" y="0" type="line"/>
      <point x="1129" y="84" type="line"/>
      <point x="60" y="84" type="line"/>
    </contour>
    <contour>
      <point x="74" y="670" type="line"/>
      <point x="900" y="670" type="line"/>
      <point x="900" y="754" type="line"/>
      <point x="74" y="754" type="line"/>
    </contour>
  </outline>
</glyph>
<glyph name="currency" format="2">
  <advance width="1244"/>
  <unicode hex="00A4"/>
  <outline>
    <contour>
      <point x="622" y="196" type="qcurve" smooth="yes"/>
      <point x="514" y="196"/>
      <point x="324" y="278"/>
      <point x="180" y="423"/>
      <point x="98" y="613"/>
      <point x="98" y="722" type="qcurve" smooth="yes"/>
      <point x="98" y="830"/>
      <point x="180" y="1020"/>
      <point x="324" y="1164"/>
      <point x="514" y="1246"/>
      <point x="622" y="1246" type="qcurve" smooth="yes"/>
      <point x="731" y="1246"/>
      <point x="921" y="1164"/>
      <point x="1066" y="1020"/>
      <point x="1148" y="830"/>
      <point x="1148" y="722" type="qcurve" smooth="yes"/>
      <point x="1148" y="613"/>
      <point x="1066" y="423"/>
      <point x="921" y="278"/>
      <point x="731" y="196"/>
    </contour>
    <contour>
      <point x="120" y="160" type="line"/>
      <point x="60" y="220" type="line"/>
      <point x="252" y="412" type="line"/>
      <point x="312" y="352" type="line"/>
    </contour>
    <contour>
      <point x="254" y="1028" type="line"/>
      <point x="60" y="1222" type="line"/>
      <point x="120" y="1280" type="line"/>
      <point x="312" y="1088" type="line"/>
    </contour>
    <contour>
      <point x="1124" y="160" type="line"/>
      <point x="932" y="352" type="line"/>
      <point x="992" y="412" type="line"/>
      <point x="1184" y="220" type="line"/>
    </contour>
    <contour>
      <point x="622" y="280" type="qcurve" smooth="yes"/>
      <point x="744" y="280"/>
      <point x="945" y="401"/>
      <point x="1064" y="601"/>
      <point x="1064" y="720" type="qcurve" smooth="yes"/>
      <point x="1064" y="842"/>
      <point x="942" y="1043"/>
      <point x="741" y="1162"/>
      <point x="622" y="1162" type="qcurve" smooth="yes"/>
      <point x="500" y="1162"/>
      <point x="300" y="1043"/>
      <point x="182" y="842"/>
      <point x="182" y="720" type="qcurve" smooth="yes"/>
      <point x="182" y="601"/>
      <point x="300" y="401"/>
      <point x="500" y="280"/>
    </contour>
    <contour>
      <point x="990" y="1028" type="line"/>
      <point x="932" y="1088" type="line"/>
      <point x="1124" y="1280" type="line"/>
      <point x="1184" y="1222" type="line"/>
    </contour>
  </outline>
</glyph>
<glyph name="yen" format="2">
  <advance width="1038"/>
  <unicode hex="00A5"/>
  <outline>
    <contour>
      <point x="160" y="512" type="line"/>
      <point x="160" y="596" type="line"/>
      <point x="880" y="596" type="line"/>
      <point x="880" y="512" type="line"/>
    </contour>
    <contour>
      <point x="160" y="244" type="line"/>
      <point x="160" y="328" type="line"/>
      <point x="880" y="328" type="line"/>
      <point x="880" y="244" type="line"/>
    </contour>
    <contour>
      <point x="478" y="0" type="line"/>
      <point x="478" y="612" type="line"/>
      <point x="0" y="1440" type="line"/>
      <point x="96" y="1440" type="line"/>
      <point x="520" y="708" type="line"/>
      <point x="942" y="1440" type="line"/>
      <point x="1038" y="1440" type="line"/>
      <point x="562" y="612" type="line"/>
      <point x="562" y="0" type="line"/>
    </contour>
  </outline>
</glyph>
<glyph name="section" format="2">
  <advance width="1028"/>
  <unicode hex="00A7"/>
  <outline>
    <contour>
      <point x="542" y="-328" type="curve" smooth="yes"/>
      <point x="482" y="-328"/>
      <point x="423" y="-319"/>
      <point x="364" y="-300" type="curve" smooth="yes"/>
      <point x="246" y="-262"/>
      <point x="151" y="-179"/>
      <point x="120" y="-40" type="curve"/>
      <point x="206" y="-24" type="line"/>
      <point x="221" y="-78"/>
      <point x="247" y="-121"/>
      <point x="285" y="-153" type="curve" smooth="yes"/>
      <point x="360" y="-217"/>
      <point x="460" y="-244"/>
      <point x="544" y="-244" type="curve" smooth="yes"/>
      <point x="595" y="-244"/>
      <point x="643" y="-235"/>
      <point x="688" y="-217" type="curve" smooth="yes"/>
      <point x="776" y="-181"/>
      <point x="836" y="-111"/>
      <point x="836" y="-10" type="curve" smooth="yes"/>
      <point x="836" y="38"/>
      <point x="823" y="75"/>
      <point x="796" y="102" type="curve" smooth="yes"/>
      <point x="742" y="155"/>
      <point x="637" y="185"/>
      <point x="486" y="226" type="curve" smooth="yes"/>
      <point x="411" y="247"/>
      <point x="343" y="268"/>
      <point x="284" y="290" type="curve" smooth="yes"/>
      <point x="225" y="311"/>
      <point x="178" y="340"/>
      <point x="144" y="375" type="curve" smooth="yes"/>
      <point x="109" y="410"/>
      <point x="92" y="457"/>
      <point x="92" y="518" type="curve" smooth="yes"/>
      <point x="92" y="583"/>
      <point x="111" y="636"/>
      <point x="148" y="679" type="curve" smooth="yes"/>
      <point x="185" y="722"/>
      <point x="233" y="752"/>
      <point x="291" y="770" type="curve" smooth="yes"/>
      <point x="349" y="787"/>
      <point x="409" y="791"/>
      <point x="472" y="782" type="curve"/>
      <point x="466" y="766" type="line"/>
      <point x="386" y="747"/>
      <point x="318" y="717"/>
      <point x="263" y="676" type="curve" smooth="yes"/>
      <point x="208" y="635"/>
      <point x="180" y="583"/>
      <point x="180" y="522" type="curve" smooth="yes"/>
      <point x="180" y="478"/>
      <point x="195" y="443"/>
      <point x="225" y="417" type="curve" smooth="yes"/>
      <point x="284" y="365"/>
      <point x="389" y="337"/>
      <point x="510" y="306" type="curve" smooth="yes"/>
      <point x="589" y="286"/>
      <point x="659" y="265"/>
      <point x="722" y="243" type="curve" smooth="yes"/>
      <point x="785" y="220"/>
      <point x="834" y="190"/>
      <point x="871" y="151" type="curve" smooth="yes"/>
      <point x="908" y="112"/>
      <point x="926" y="57"/>
      <point x="926" y="-14" type="curve" smooth="yes"/>
      <point x="926" y="-83"/>
      <point x="909" y="-140"/>
      <point x="874" y="-187" type="curve" smooth="yes"/>
      <point x="805" y="-280"/>
      <point x="683" y="-328"/>
    </contour>
    <contour>
      <point x="614" y="232" type="curve"/>
      <point x="616" y="256" type="line"/>
      <point x="657" y="256"/>
      <point x="698" y="265"/>
      <point x="738" y="283" type="curve" smooth="yes"/>
      <point x="818" y="319"/>
      <point x="876" y="389"/>
      <point x="876" y="490" type="curve" smooth="yes"/>
      <point x="876" y="538"/>
      <point x="863" y="575"/>
      <point x="836" y="602" type="curve" smooth="yes"/>
      <point x="782" y="655"/>
      <point x="677" y="685"/>
      <point x="526" y="726" type="curve" smooth="yes"/>
      <point x="451" y="747"/>
      <point x="383" y="768"/>
      <point x="324" y="790" type="curve" smooth="yes"/>
      <point x="265" y="811"/>
      <point x="218" y="840"/>
      <point x="184" y="875" type="curve" smooth="yes"/>
      <point x="149" y="910"/>
      <point x="132" y="957"/>
      <point x="132" y="1018" type="curve" smooth="yes"/>
      <point x="132" y="1083"/>
      <point x="151" y="1137"/>
      <point x="188" y="1180" type="curve" smooth="yes"/>
      <point x="225" y="1223"/>
      <point x="273" y="1256"/>
      <point x="330" y="1278" type="curve" smooth="yes"/>
      <point x="387" y="1299"/>
      <point x="446" y="1310"/>
      <point x="506" y="1310" type="curve" smooth="yes"/>
      <point x="576" y="1310"/>
      <point x="640" y="1297"/>
      <point x="699" y="1270" type="curve" smooth="yes"/>
      <point x="815" y="1217"/>
      <point x="895" y="1119"/>
      <point x="908" y="998" type="curve"/>
      <point x="822" y="982" type="line"/>
      <point x="811" y="1044"/>
      <point x="787" y="1093"/>
      <point x="751" y="1128" type="curve" smooth="yes"/>
      <point x="714" y="1163"/>
      <point x="673" y="1189"/>
      <point x="627" y="1204" type="curve" smooth="yes"/>
      <point x="580" y="1219"/>
      <point x="537" y="1226"/>
      <point x="496" y="1226" type="curve" smooth="yes"/>
      <point x="447" y="1226"/>
      <point x="401" y="1218"/>
      <point x="359" y="1201" type="curve" smooth="yes"/>
      <point x="275" y="1167"/>
      <point x="220" y="1103"/>
      <point x="220" y="1022" type="curve" smooth="yes"/>
      <point x="220" y="978"/>
      <point x="235" y="943"/>
      <point x="265" y="917" type="curve" smooth="yes"/>
      <point x="324" y="865"/>
      <point x="429" y="837"/>
      <point x="550" y="806" type="curve" smooth="yes"/>
      <point x="629" y="786"/>
      <point x="699" y="765"/>
      <point x="762" y="743" type="curve" smooth="yes"/>
      <point x="825" y="720"/>
      <point x="874" y="690"/>
      <point x="911" y="651" type="curve" smooth="yes"/>
      <point x="948" y="612"/>
      <point x="966" y="557"/>
      <point x="966" y="486" type="curve" smooth="yes"/>
      <point x="966" y="417"/>
      <point x="949" y="361"/>
      <point x="916" y="316" type="curve" smooth="yes"/>
      <point x="849" y="226"/>
      <point x="735" y="192"/>
    </contour>
  </outline>
</glyph>
<glyph name="dieresis" format="2">
  <advance width="1200"/>
  <unicode hex="00A8"/>
  <outline>
    <contour>
      <point x="451" y="1303" type="qcurve" smooth="yes"/>
      <point x="420" y="1303"/>
      <point x="377" y="1345"/>
      <point x="377" y="1376" type="qcurve" smooth="yes"/>
      <point x="377" y="1408"/>
      <point x="420" y="1450"/>
      <point x="451" y="1450" type="qcurve" smooth="yes"/>
      <point x="482" y="1450"/>
      <point x="525" y="1408"/>
      <point x="525" y="1376" type="qcurve" smooth="yes"/>
      <point x="525" y="1345"/>
      <point x="482" y="1303"/>
    </contour>
    <contour>
      <point x="749" y="1303" type="qcurve" smooth="yes"/>
      <point x="718" y="1303"/>
      <point x="675" y="1345"/>
      <point x="675" y="1376" type="qcurve" smooth="yes"/>
      <point x="675" y="1408"/>
      <point x="718" y="1450"/>
      <point x="749" y="1450" type="qcurve" smooth="yes"/>
      <point x="780" y="1450"/>
      <point x="823" y="1408"/>
      <point x="823" y="1376" type="qcurve" smooth="yes"/>
      <point x="823" y="1345"/>
      <point x="780" y="1303"/>
    </contour>
  </outline>
</glyph>
<glyph name="copyright" format="2">
  <advance width="1496"/>
  <unicode hex="00A9"/>
  <outline>
    <contour>
      <point x="748" y="-10" type="curve" smooth="yes"/>
      <point x="653" y="-10"/>
      <point x="564" y="8"/>
      <point x="481" y="44" type="curve" smooth="yes"/>
      <point x="398" y="79"/>
      <point x="325" y="129"/>
      <point x="262" y="192" type="curve" smooth="yes"/>
      <point x="199" y="255"/>
      <point x="149" y="328"/>
      <point x="114" y="411" type="curve" smooth="yes"/>
      <point x="78" y="494"/>
      <point x="60" y="583"/>
      <point x="60" y="678" type="curve" smooth="yes"/>
      <point x="60" y="773"/>
      <point x="78" y="863"/>
      <point x="114" y="946" type="curve" smooth="yes"/>
      <point x="149" y="1029"/>
      <point x="199" y="1102"/>
      <point x="262" y="1165" type="curve" smooth="yes"/>
      <point x="325" y="1228"/>
      <point x="398" y="1277"/>
      <point x="481" y="1313" type="curve" smooth="yes"/>
      <point x="564" y="1348"/>
      <point x="653" y="1366"/>
      <point x="748" y="1366" type="curve" smooth="yes"/>
      <point x="843" y="1366"/>
      <point x="933" y="1348"/>
      <point x="1016" y="1313" type="curve" smooth="yes"/>
      <point x="1099" y="1277"/>
      <point x="1172" y="1228"/>
      <point x="1235" y="1165" type="curve" smooth="yes"/>
      <point x="1298" y="1102"/>
      <point x="1347" y="1029"/>
      <point x="1383" y="946" type="curve" smooth="yes"/>
      <point x="1418" y="863"/>
      <point x="1436" y="773"/>
      <point x="1436" y="678" type="curve" smooth="yes"/>
      <point x="1436" y="583"/>
      <point x="1418" y="494"/>
      <point x="1383" y="411" type="curve" smooth="yes"/>
      <point x="1347" y="328"/>
      <point x="1298" y="255"/>
      <point x="1235" y="192" type="curve" smooth="yes"/>
      <point x="1172" y="129"/>
      <point x="1099" y="79"/>
      <point x="1016" y="44" type="curve" smooth="yes"/>
      <point x="933" y="8"/>
      <point x="843" y="-10"/>
    </contour>
    <contour>
      <point x="752" y="260" type="curve" smooth="yes"/>
      <point x="639" y="260"/>
      <point x="541" y="300"/>
      <point x="470" y="388" type="curve" smooth="yes"/>
      <point x="435" y="432"/>
      <point x="412" y="480"/>
      <point x="401" y="532" type="curve" smooth="yes"/>
      <point x="390" y="583"/>
      <point x="384" y="633"/>
      <point x="384" y="682" type="curve"/>
      <point x="387" y="782"/>
      <point x="405" y="888"/>
      <point x="470" y="972" type="curve"/>
      <point x="541" y="1060"/>
      <point x="639" y="1100"/>
      <point x="756" y="1100" type="curve" smooth="yes"/>
      <point x="827" y="1100"/>
      <point x="890" y="1086"/>
      <point x="950" y="1050" type="curve" smooth="yes"/>
      <point x="1009" y="1014"/>
      <point x="1059" y="958"/>
      <point x="1080" y="890" type="curve"/>
      <point x="998" y="862" type="line"/>
      <point x="978" y="906"/>
      <point x="943" y="950"/>
      <point x="900" y="978" type="curve" smooth="yes"/>
      <point x="859" y="1006"/>
      <point x="806" y="1018"/>
      <point x="754" y="1018" type="curve" smooth="yes"/>
      <point x="669" y="1018"/>
      <point x="593" y="982"/>
      <point x="542" y="918" type="curve" smooth="yes"/>
      <point x="493" y="854"/>
      <point x="476" y="764"/>
      <point x="476" y="684" type="curve" smooth="yes"/>
      <point x="476" y="592"/>
      <point x="498" y="502"/>
      <point x="542" y="442" type="curve" smooth="yes"/>
      <point x="590" y="377"/>
      <point x="667" y="342"/>
      <point x="752" y="342" type="curve" smooth="yes"/>
      <point x="807" y="342"/>
      <point x="857" y="355"/>
      <point x="902" y="382" type="curve" smooth="yes"/>
      <point x="945" y="409"/>
      <point x="975" y="448"/>
      <point x="996" y="496" type="curve"/>
      <point x="1080" y="466" type="line"/>
      <point x="1047" y="390"/>
      <point x="996" y="343"/>
      <point x="956" y="316" type="curve"/>
      <point x="896" y="279"/>
      <point x="831" y="260"/>
    </contour>
    <contour>
      <point x="748" y="78" type="curve" smooth="yes"/>
      <point x="913" y="78"/>
      <point x="1061" y="144"/>
      <point x="1171" y="254" type="curve" smooth="yes"/>
      <point x="1281" y="364"/>
      <point x="1346" y="513"/>
      <point x="1346" y="680" type="curve" smooth="yes"/>
      <point x="1346" y="845"/>
      <point x="1281" y="993"/>
      <point x="1171" y="1103" type="curve" smooth="yes"/>
      <point x="1061" y="1213"/>
      <point x="913" y="1278"/>
      <point x="748" y="1278" type="curve" smooth="yes"/>
      <point x="581" y="1278"/>
      <point x="432" y="1213"/>
      <point x="322" y="1103" type="curve" smooth="yes"/>
      <point x="212" y="993"/>
      <point x="146" y="845"/>
      <point x="146" y="680" type="curve" smooth="yes"/>
      <point x="146" y="513"/>
      <point x="212" y="364"/>
      <point x="322" y="254" type="curve" smooth="yes"/>
      <point x="432" y="144"/>
      <point x="581" y="78"/>
    </contour>
  </outline>
</glyph>
<glyph name="ordfeminine" format="2">
  <advance width="756"/>
  <unicode hex="00AA"/>
  <outline>
    <contour>
      <point x="51" y="520" type="line"/>
      <point x="51" y="595" type="line"/>
      <point x="685" y="595" type="line"/>
      <point x="685" y="520" type="line"/>
    </contour>
    <contour>
      <point x="315" y="710" type="curve" smooth="yes"/>
      <point x="150" y="710"/>
      <point x="53" y="785"/>
      <point x="53" y="915" type="curve" smooth="yes"/>
      <point x="53" y="1074"/>
      <point x="188" y="1120"/>
      <point x="368" y="1142" type="curve" smooth="yes"/>
      <point x="605" y="1171" type="line"/>
      <point x="605" y="1220"/>
      <point x="599" y="1262"/>
      <point x="586" y="1295" type="curve" smooth="yes"/>
      <point x="556" y="1371"/>
      <point x="491" y="1407"/>
      <point x="381" y="1407" type="curve" smooth="yes"/>
      <point x="254" y="1407"/>
      <point x="177" y="1356"/>
      <point x="150" y="1252" type="curve"/>
      <point x="85" y="1262" type="line"/>
      <point x="118" y="1397"/>
      <point x="222" y="1470"/>
      <point x="383" y="1470" type="curve" smooth="yes"/>
      <point x="572" y="1470"/>
      <point x="668" y="1373"/>
      <point x="668" y="1181" type="curve" smooth="yes"/>
      <point x="668" y="730" type="line"/>
      <point x="605" y="730" type="line"/>
      <point x="605" y="873" type="line"/>
      <point x="549" y="768"/>
      <point x="448" y="710"/>
    </contour>
    <contour>
      <point x="322" y="773" type="curve" smooth="yes"/>
      <point x="475" y="773"/>
      <point x="578" y="858"/>
      <point x="600" y="1001" type="curve" smooth="yes"/>
      <point x="603" y="1019"/>
      <point x="604" y="1038"/>
      <point x="605" y="1059" type="curve" smooth="yes"/>
      <point x="606" y="1077"/>
      <point x="605" y="1093"/>
      <point x="605" y="1107" type="curve"/>
      <point x="368" y="1079" type="line" smooth="yes"/>
      <point x="187" y="1058"/>
      <point x="118" y="1012"/>
      <point x="118" y="915" type="curve" smooth="yes"/>
      <point x="118" y="822"/>
      <point x="186" y="773"/>
    </contour>
  </outline>
</glyph>
<glyph name="guillemotleft" format="2">
  <advance width="1004"/>
  <unicode hex="00AB"/>
  <outline>
    <contour>
      <point x="802" y="112" type="line"/>
      <point x="460" y="542" type="line"/>
      <point x="802" y="970" type="line"/>
      <point x="864" y="922" type="line"/>
      <point x="560" y="542" type="line"/>
      <point x="864" y="160" type="line"/>
    </contour>
    <contour>
      <point x="502" y="112" type="line"/>
      <point x="160" y="542" type="line"/>
      <point x="502" y="970" type="line"/>
      <point x="564" y="922" type="line"/>
      <point x="260" y="542" type="line"/>
      <point x="564" y="160" type="line"/>
    </contour>
  </outline>
</glyph>
<glyph name="registered" format="2">
  <advance width="1210"/>
  <unicode hex="00AE"/>
  <outline>
    <contour>
      <point x="606" y="594" type="curve" smooth="yes"/>
      <point x="477" y="594"/>
      <point x="361" y="645"/>
      <point x="276" y="730" type="curve" smooth="yes"/>
      <point x="191" y="815"/>
      <point x="140" y="931"/>
      <point x="140" y="1060" type="curve" smooth="yes"/>
      <point x="140" y="1188"/>
      <point x="191" y="1303"/>
      <point x="276" y="1388" type="curve" smooth="yes"/>
      <point x="361" y="1473"/>
      <point x="477" y="1524"/>
      <point x="606" y="1524" type="curve" smooth="yes"/>
      <point x="734" y="1524"/>
      <point x="849" y="1473"/>
      <point x="934" y="1388" type="curve" smooth="yes"/>
      <point x="1019" y="1303"/>
      <point x="1070" y="1188"/>
      <point x="1070" y="1060" type="curve" smooth="yes"/>
      <point x="1070" y="931"/>
      <point x="1019" y="815"/>
      <point x="934" y="730" type="curve" smooth="yes"/>
      <point x="849" y="645"/>
      <point x="734" y="594"/>
    </contour>
    <contour>
      <point x="606" y="678" type="curve" smooth="yes"/>
      <point x="676" y="678"/>
      <point x="740" y="695"/>
      <point x="798" y="730" type="curve" smooth="yes"/>
      <point x="855" y="764"/>
      <point x="901" y="810"/>
      <point x="935" y="868" type="curve" smooth="yes"/>
      <point x="969" y="925"/>
      <point x="986" y="989"/>
      <point x="986" y="1060" type="curve" smooth="yes"/>
      <point x="986" y="1130"/>
      <point x="969" y="1194"/>
      <point x="935" y="1251" type="curve" smooth="yes"/>
      <point x="901" y="1308"/>
      <point x="855" y="1354"/>
      <point x="798" y="1389" type="curve" smooth="yes"/>
      <point x="740" y="1423"/>
      <point x="676" y="1440"/>
      <point x="606" y="1440" type="curve" smooth="yes"/>
      <point x="535" y="1440"/>
      <point x="471" y="1423"/>
      <point x="414" y="1389" type="curve" smooth="yes"/>
      <point x="356" y="1354"/>
      <point x="310" y="1308"/>
      <point x="276" y="1251" type="curve" smooth="yes"/>
      <point x="241" y="1194"/>
      <point x="224" y="1130"/>
      <point x="224" y="1060" type="curve" smooth="yes"/>
      <point x="224" y="989"/>
      <point x="241" y="925"/>
      <point x="276" y="868" type="curve" smooth="yes"/>
      <point x="310" y="810"/>
      <point x="356" y="764"/>
      <point x="414" y="730" type="curve" smooth="yes"/>
      <point x="471" y="695"/>
      <point x="535" y="678"/>
    </contour>
    <contour>
      <point x="444" y="834" type="line"/>
      <point x="444" y="1294" type="line"/>
      <point x="648" y="1294" type="line" smooth="yes"/>
      <point x="687" y="1294"/>
      <point x="722" y="1279"/>
      <point x="753" y="1250" type="curve" smooth="yes"/>
      <point x="783" y="1221"/>
      <point x="798" y="1186"/>
      <point x="798" y="1146" type="curve" smooth="yes"/>
      <point x="798" y="1094"/>
      <point x="765" y="1036"/>
      <point x="710" y="1012" type="curve"/>
      <point x="798" y="834" type="line"/>
      <point x="716" y="834" type="line"/>
      <point x="636" y="998" type="line"/>
      <point x="516" y="998" type="line"/>
      <point x="516" y="834" type="line"/>
    </contour>
    <contour>
      <point x="516" y="1066" type="line"/>
      <point x="646" y="1066" type="line" smooth="yes"/>
      <point x="666" y="1066"/>
      <point x="684" y="1074"/>
      <point x="700" y="1090" type="curve"/>
      <point x="716" y="1105"/>
      <point x="724" y="1124"/>
      <point x="724" y="1146" type="curve" smooth="yes"/>
      <point x="724" y="1170"/>
      <point x="715" y="1189"/>
      <point x="698" y="1204" type="curve" smooth="yes"/>
      <point x="681" y="1219"/>
      <point x="663" y="1226"/>
      <point x="646" y="1226" type="curve" smooth="yes"/>
      <point x="516" y="1226" type="line"/>
    </contour>
  </outline>
</glyph>
<glyph name="degree" format="2">
  <advance width="900"/>
  <unicode hex="00B0"/>
  <outline>
    <contour>
      <point x="420" y="750" type="curve" smooth="yes"/>
      <point x="354" y="750"/>
      <point x="294" y="766"/>
      <point x="239" y="799" type="curve" smooth="yes"/>
      <point x="130" y="863"/>
      <point x="60" y="977"/>
      <point x="60" y="1110" type="curve" smooth="yes"/>
      <point x="60" y="1175"/>
      <point x="77" y="1235"/>
      <point x="110" y="1290" type="curve" smooth="yes"/>
      <point x="143" y="1345"/>
      <point x="187" y="1388"/>
      <point x="242" y="1421" type="curve" smooth="yes"/>
      <point x="297" y="1454"/>
      <point x="356" y="1470"/>
      <point x="420" y="1470" type="curve" smooth="yes"/>
      <point x="486" y="1470"/>
      <point x="546" y="1454"/>
      <point x="601" y="1422" type="curve" smooth="yes"/>
      <point x="709" y="1357"/>
      <point x="780" y="1243"/>
      <point x="780" y="1110" type="curve" smooth="yes"/>
      <point x="780" y="1043"/>
      <point x="764" y="983"/>
      <point x="731" y="929" type="curve" smooth="yes"/>
      <point x="666" y="820"/>
      <point x="552" y="750"/>
    </contour>
    <contour>
      <point x="420" y="834" type="curve" smooth="yes"/>
      <point x="470" y="834"/>
      <point x="516" y="847"/>
      <point x="558" y="872" type="curve" smooth="yes"/>
      <point x="642" y="922"/>
      <point x="696" y="1010"/>
      <point x="696" y="1110" type="curve" smooth="yes"/>
      <point x="696" y="1160"/>
      <point x="684" y="1206"/>
      <point x="659" y="1248" type="curve" smooth="yes"/>
      <point x="609" y="1332"/>
      <point x="520" y="1386"/>
      <point x="420" y="1386" type="curve" smooth="yes"/>
      <point x="370" y="1386"/>
      <point x="324" y="1374"/>
      <point x="283" y="1349" type="curve" smooth="yes"/>
      <point x="199" y="1299"/>
      <point x="144" y="1210"/>
      <point x="144" y="1110" type="curve" smooth="yes"/>
      <point x="144" y="1060"/>
      <point x="157" y="1014"/>
      <point x="182" y="972" type="curve" smooth="yes"/>
      <point x="233" y="888"/>
      <point x="320" y="834"/>
    </contour>
  </outline>
</glyph>
<glyph name="twosuperior" format="2">
  <advance width="810"/>
  <unicode hex="00B2"/>
  <outline>
    <contour>
      <point x="119.072" y="618.784" type="line"/>
      <point x="500.688" y="988.688" type="line" smooth="yes"/>
      <point x="565.104" y="1050.18"/>
      <point x="624.64" y="1158.51"/>
      <point x="624.64" y="1212.19" type="qcurve" smooth="yes"/>
      <point x="624.64" y="1251.23"/>
      <point x="593.408" y="1313.7"/>
      <point x="539.728" y="1356.64"/>
      <point x="464.576" y="1380.06"/>
      <point x="419.68" y="1380.06" type="qcurve" smooth="yes"/>
      <point x="371.856" y="1380.06"/>
      <point x="290.848" y="1351.76"/>
      <point x="230.336" y="1299.06"/>
      <point x="190.32" y="1224.88"/>
      <point x="182.512" y="1179.98" type="qcurve"/>
      <point x="99.552" y="1196.58" type="line"/>
      <point x="110.288" y="1256.11"/>
      <point x="163.968" y="1354.69"/>
      <point x="247.904" y="1422.03"/>
      <point x="356.24" y="1459.12"/>
      <point x="419.68" y="1459.12" type="qcurve" smooth="yes"/>
      <point x="483.12" y="1459.12"/>
      <point x="588.528" y="1424.96"/>
      <point x="666.608" y="1361.52"/>
      <point x="709.552" y="1271.73"/>
      <point x="709.552" y="1216.1" type="qcurve" smooth="yes"/>
      <point x="709.552" y="1214.14"/>
      <point x="709.552" y="1211.22" type="qcurve" smooth="yes"/>
      <point x="709.552" y="1179.98"/>
      <point x="691.984" y="1115.57"/>
      <point x="656.848" y="1049.2"/>
      <point x="605.12" y="981.856"/>
      <point x="569.984" y="948.672" type="qcurve" smooth="yes"/>
      <point x="227.408" y="618.784" type="line"/>
      <point x="709.552" y="618.784" type="line"/>
      <point x="709.552" y="539.728" type="line"/>
      <point x="119.072" y="539.728" type="line"/>
    </contour>
  </outline>
</glyph>
<glyph name="threesuperior" format="2">
  <advance width="846"/>
  <unicode hex="00B3"/>
  <outline>
    <contour>
      <point x="726.144" y="805.2" type="qcurve" smooth="yes"/>
      <point x="726.144" y="741.76"/>
      <point x="680.272" y="636.352"/>
      <point x="598.288" y="561.2"/>
      <point x="483.12" y="519.232"/>
      <point x="413.824" y="519.232" type="qcurve" smooth="yes"/>
      <point x="347.456" y="519.232"/>
      <point x="238.144" y="551.44"/>
      <point x="153.232" y="614.88"/>
      <point x="94.672" y="710.528"/>
      <point x="80.032" y="774.944" type="qcurve"/>
      <point x="161.04" y="788.608" type="line"/>
      <point x="189.344" y="691.984"/>
      <point x="306.464" y="598.288"/>
      <point x="414.8" y="598.288" type="qcurve" smooth="yes"/>
      <point x="465.552" y="598.288"/>
      <point x="549.488" y="629.52"/>
      <point x="610" y="684.176"/>
      <point x="642.208" y="759.328"/>
      <point x="642.208" y="803.248" type="qcurve" smooth="yes"/>
      <point x="642.208" y="897.92"/>
      <point x="527.04" y="993.568"/>
      <point x="413.824" y="993.568" type="qcurve" smooth="yes"/>
      <point x="331.84" y="993.568" type="line"/>
      <point x="331.84" y="1065.79" type="line"/>
      <point x="591.456" y="1360.54" type="line"/>
      <point x="130.784" y="1360.54" type="line"/>
      <point x="130.784" y="1439.6" type="line"/>
      <point x="693.936" y="1439.6" type="line"/>
      <point x="693.936" y="1360.54" type="line"/>
      <point x="431.392" y="1065.79" type="line"/>
      <point x="570.96" y="1060.91"/>
      <point x="647.088" y="1000.4" type="qcurve" smooth="yes"/>
      <point x="726.144" y="935.008"/>
    </contour>
  </outline>
</glyph>
<glyph name="paragraph" format="2">
  <advance width="1162"/>
  <unicode hex="00B6"/>
  <outline>
    <contour>
      <point x="698" y="-282" type="line"/>
      <point x="698" y="576" type="line"/>
      <point x="612" y="576" type="line" smooth="yes"/>
      <point x="598" y="576"/>
      <point x="584" y="577"/>
      <point x="569" y="578" type="curve" smooth="yes"/>
      <point x="554" y="579"/>
      <point x="538" y="581"/>
      <point x="520" y="584" type="curve" smooth="yes"/>
      <point x="451" y="595"/>
      <point x="391" y="621"/>
      <point x="340" y="661" type="curve" smooth="yes"/>
      <point x="238" y="740"/>
      <point x="180" y="864"/>
      <point x="180" y="1008" type="curve" smooth="yes"/>
      <point x="180" y="1080"/>
      <point x="194" y="1146"/>
      <point x="222" y="1206" type="curve" smooth="yes"/>
      <point x="277" y="1326"/>
      <point x="381" y="1409"/>
      <point x="520" y="1432" type="curve"/>
      <point x="556" y="1439"/>
      <point x="584" y="1440"/>
      <point x="612" y="1440" type="curve" smooth="yes"/>
      <point x="782" y="1440" type="line"/>
      <point x="782" y="-282" type="line"/>
    </contour>
    <contour>
      <point x="898" y="-282" type="line"/>
      <point x="898" y="1440" type="line"/>
      <point x="982" y="1440" type="line"/>
      <point x="982" y="-282" type="line"/>
    </contour>
  </outline>
</glyph>
<glyph name="periodcentered" format="2">
  <advance width="400"/>
  <unicode hex="00B7"/>
  <outline>
    <contour>
      <point x="202" y="550" type="curve" smooth="yes"/>
      <point x="179" y="550"/>
      <point x="160" y="558"/>
      <point x="144" y="573" type="curve" smooth="yes"/>
      <point x="128" y="588"/>
      <point x="120" y="607"/>
      <point x="120" y="630" type="curve" smooth="yes"/>
      <point x="120" y="653"/>
      <point x="128" y="673"/>
      <point x="144" y="688" type="curve" smooth="yes"/>
      <point x="160" y="703"/>
      <point x="179" y="710"/>
      <point x="202" y="710" type="curve" smooth="yes"/>
      <point x="223" y="710"/>
      <point x="242" y="703"/>
      <point x="257" y="688" type="curve" smooth="yes"/>
      <point x="272" y="673"/>
      <point x="280" y="653"/>
      <point x="280" y="630" type="curve" smooth="yes"/>
      <point x="280" y="607"/>
      <point x="272" y="588"/>
      <point x="257" y="573" type="curve" smooth="yes"/>
      <point x="242" y="558"/>
      <point x="223" y="550"/>
    </contour>
  </outline>
</glyph>
<glyph name="cedilla" format="2">
  <advance width="772"/>
  <unicode hex="00B8"/>
  <outline>
    <contour>
      <point x="360" y="-478" type="curve" smooth="yes"/>
      <point x="316" y="-478"/>
      <point x="276" y="-466"/>
      <point x="240" y="-450" type="curve"/>
      <point x="268" y="-376" type="line"/>
      <point x="301" y="-389"/>
      <point x="330" y="-396"/>
      <point x="354" y="-396" type="curve" smooth="yes"/>
      <point x="414" y="-396"/>
      <point x="448" y="-350"/>
      <point x="448" y="-302" type="curve" smooth="yes"/>
      <point x="448" y="-268"/>
      <point x="434" y="-244"/>
      <point x="406" y="-230" type="curve"/>
      <point x="378" y="-215"/>
      <point x="347" y="-203"/>
      <point x="314" y="-192" type="curve"/>
      <point x="390" y="14" type="line"/>
      <point x="474" y="14" type="line"/>
      <point x="416" y="-142" type="line"/>
      <point x="484" y="-170"/>
      <point x="536" y="-219"/>
      <point x="536" y="-306" type="curve" smooth="yes"/>
      <point x="536" y="-354"/>
      <point x="519" y="-395"/>
      <point x="484" y="-428" type="curve" smooth="yes"/>
      <point x="449" y="-461"/>
      <point x="408" y="-478"/>
    </contour>
  </outline>
</glyph>
<glyph name="onesuperior" format="2">
  <advance width="612"/>
  <unicode hex="00B9"/>
  <outline>
    <contour>
      <point x="290" y="540" type="line"/>
      <point x="290" y="1348" type="line"/>
      <point x="120" y="1246" type="line"/>
      <point x="120" y="1338" type="line"/>
      <point x="290" y="1440" type="line"/>
      <point x="372" y="1440" type="line"/>
      <point x="372" y="540" type="line"/>
    </contour>
  </outline>
</glyph>
<glyph name="ordmasculine" format="2">
  <advance width="781"/>
  <unicode hex="00BA"/>
  <outline>
    <contour>
      <point x="72" y="520" type="line"/>
      <point x="72" y="596" type="line"/>
      <point x="709" y="596" type="line"/>
      <point x="709" y="520" type="line"/>
    </contour>
    <contour>
      <point x="391" y="710" type="curve" smooth="yes"/>
      <point x="163" y="710"/>
      <point x="53" y="878"/>
      <point x="53" y="1091" type="curve" smooth="yes"/>
      <point x="53" y="1296"/>
      <point x="157" y="1470"/>
      <point x="391" y="1470" type="curve" smooth="yes"/>
      <point x="619" y="1470"/>
      <point x="728" y="1304"/>
      <point x="728" y="1091" type="curve" smooth="yes"/>
      <point x="728" y="885"/>
      <point x="627" y="710"/>
    </contour>
    <contour>
      <point x="391" y="773" type="curve" smooth="yes"/>
      <point x="584" y="773"/>
      <point x="660" y="916"/>
      <point x="660" y="1091" type="curve" smooth="yes"/>
      <point x="660" y="1265"/>
      <point x="588" y="1407"/>
      <point x="391" y="1407" type="curve" smooth="yes"/>
      <point x="201" y="1407"/>
      <point x="121" y="1266"/>
      <point x="121" y="1091" type="curve" smooth="yes"/>
      <point x="121" y="920"/>
      <point x="198" y="773"/>
    </contour>
  </outline>
</glyph>
<glyph name="onequarter" format="2">
  <advance width="1863"/>
  <unicode hex="00BC"/>
  <outline>
    <contour>
      <point x="286" y="0" type="line"/>
      <point x="212" y="60" type="line"/>
      <point x="1305" y="1440" type="line"/>
      <point x="1377" y="1381" type="line"/>
    </contour>
    <contour>
      <point x="1442" y="0" type="line"/>
      <point x="1442" y="182" type="line"/>
      <point x="966" y="182" type="line"/>
      <point x="966" y="260" type="line"/>
      <point x="1275" y="900" type="line"/>
      <point x="1364" y="900" type="line"/>
      <point x="1056" y="260" type="line"/>
      <point x="1442" y="260" type="line"/>
      <point x="1442" y="581" type="line"/>
      <point x="1524" y="581" type="line"/>
      <point x="1524" y="260" type="line"/>
      <point x="1611" y="260" type="line"/>
      <point x="1611" y="182" type="line"/>
      <point x="1524" y="182" type="line"/>
      <point x="1524" y="0" type="line"/>
    </contour>
    <contour>
      <point x="295" y="540" type="line"/>
      <point x="295" y="1352" type="line"/>
      <point x="122" y="1249" type="line"/>
      <point x="85" y="1314" type="line"/>
      <point x="295" y="1440" type="line"/>
      <point x="377" y="1440" type="line"/>
      <point x="377" y="540" type="line"/>
    </contour>
  </outline>
</glyph>
<glyph name="onehalf" format="2">
  <advance width="1761"/>
  <unicode hex="00BD"/>
  <outline>
    <contour>
      <point x="286" y="0" type="line"/>
      <point x="212" y="60" type="line"/>
      <point x="1305" y="1440" type="line"/>
      <point x="1377" y="1381" type="line"/>
    </contour>
    <contour>
      <point x="1071" y="0" type="line"/>
      <point x="1071" y="79" type="line"/>
      <point x="1452" y="449" type="line" smooth="yes"/>
      <point x="1537" y="532"/>
      <point x="1576" y="600"/>
      <point x="1576" y="672" type="curve" smooth="yes"/>
      <point x="1576" y="776"/>
      <point x="1490" y="840"/>
      <point x="1371" y="840" type="curve" smooth="yes"/>
      <point x="1243" y="840"/>
      <point x="1154" y="761"/>
      <point x="1134" y="640" type="curve"/>
      <point x="1051" y="657" type="line"/>
      <point x="1078" y="818"/>
      <point x="1200" y="919"/>
      <point x="1371" y="919" type="curve" smooth="yes"/>
      <point x="1539" y="919"/>
      <point x="1661" y="820"/>
      <point x="1661" y="671" type="curve" smooth="yes"/>
      <point x="1661" y="590"/>
      <point x="1614" y="497"/>
      <point x="1522" y="409" type="curve"/>
      <point x="1179" y="79" type="line"/>
      <point x="1661" y="79" type="line"/>
      <point x="1661" y="0" type="line"/>
    </contour>
    <contour>
      <point x="286" y="540" type="line"/>
      <point x="286" y="1352" type="line"/>
      <point x="113" y="1249" type="line"/>
      <point x="76" y="1314" type="line"/>
      <point x="286" y="1440" type="line"/>
      <point x="368" y="1440" type="line"/>
      <point x="368" y="540" type="line"/>
    </contour>
  </outline>
</glyph>
<glyph name="threequarters" format="2">
  <advance width="1894"/>
  <unicode hex="00BE"/>
  <outline>
    <contour>
      <point x="356" y="520" type="qcurve" smooth="yes"/>
      <point x="257" y="520"/>
      <point x="109" y="625"/>
      <point x="80" y="716" type="qcurve"/>
      <point x="158" y="740" type="line"/>
      <point x="182" y="670"/>
      <point x="289" y="599"/>
      <point x="356" y="600" type="qcurve" smooth="yes"/>
      <point x="451" y="602"/>
      <point x="556" y="718"/>
      <point x="556" y="812" type="qcurve" smooth="yes"/>
      <point x="556" y="908"/>
      <point x="446" y="1024"/>
      <point x="354" y="1024" type="qcurve" smooth="yes"/>
      <point x="329" y="1024"/>
      <point x="274" y="1011"/>
      <point x="248" y="1000" type="qcurve"/>
      <point x="206" y="1064" type="line"/>
      <point x="590" y="1424" type="line"/>
      <point x="614" y="1362" type="line"/>
      <point x="116" y="1362" type="line"/>
      <point x="116" y="1440" type="line"/>
      <point x="632" y="1440" type="line"/>
      <point x="632" y="1360" type="line"/>
      <point x="290" y="1036" type="line"/>
      <point x="286" y="1090" type="line"/>
      <point x="390" y="1112"/>
      <point x="550" y="1051"/>
      <point x="640" y="910"/>
      <point x="640" y="812" type="qcurve" smooth="yes"/>
      <point x="640" y="725"/>
      <point x="568" y="594"/>
      <point x="440" y="520"/>
    </contour>
    <contour>
      <point x="1592" y="0" type="line"/>
      <point x="1592" y="178" type="line"/>
      <point x="1166" y="178" type="line"/>
      <point x="1166" y="258" type="line"/>
      <point x="1470" y="900" type="line"/>
      <point x="1562" y="900" type="line"/>
      <point x="1258" y="258" type="line"/>
      <point x="1592" y="258" type="line"/>
      <point x="1592" y="526" type="line"/>
      <point x="1674" y="526" type="line"/>
      <point x="1674" y="258" type="line"/>
      <point x="1774" y="258" type="line"/>
      <point x="1774" y="178" type="line"/>
      <point x="1674" y="178" type="line"/>
      <point x="1674" y="0" type="line"/>
    </contour>
    <contour>
      <point x="434" y="0" type="line"/>
      <point x="360" y="60" type="line"/>
      <point x="1454" y="1440" type="line"/>
      <point x="1526" y="1382" type="line"/>
    </contour>
  </outline>
</glyph>
<glyph name="questiondown" format="2">
  <advance width="1008"/>
  <unicode hex="00BF"/>
  <outline>
    <contour>
      <point x="3" y="59" type="curve" smooth="yes"/>
      <point x="3" y="195"/>
      <point x="47" y="300"/>
      <point x="131" y="370" type="curve" smooth="yes"/>
      <point x="214" y="440"/>
      <point x="335" y="475"/>
      <point x="488" y="475" type="curve" smooth="yes"/>
      <point x="530" y="475" type="line"/>
      <point x="530" y="391" type="line"/>
      <point x="488" y="391" type="line" smooth="yes"/>
      <point x="221" y="391"/>
      <point x="88" y="278"/>
      <point x="88" y="58" type="curve" smooth="yes"/>
      <point x="88" y="-47"/>
      <point x="128" y="-139"/>
      <point x="198" y="-204" type="curve" smooth="yes"/>
      <point x="268" y="-268"/>
      <point x="368" y="-306"/>
      <point x="488" y="-306" type="curve" smooth="yes"/>
      <point x="611" y="-306"/>
      <point x="703" y="-282"/>
      <point x="774" y="-230" type="curve" smooth="yes"/>
      <point x="845" y="-178"/>
      <point x="893" y="-98"/>
      <point x="928" y="14" type="curve"/>
      <point x="1008" y="-2" type="line"/>
      <point x="976" y="-129"/>
      <point x="917" y="-225"/>
      <point x="832" y="-291" type="curve" smooth="yes"/>
      <point x="747" y="-357"/>
      <point x="632" y="-390"/>
      <point x="488" y="-390" type="curve" smooth="yes"/>
      <point x="344" y="-390"/>
      <point x="222" y="-343"/>
      <point x="138" y="-263" type="curve" smooth="yes"/>
      <point x="53" y="-183"/>
      <point x="3" y="-70"/>
    </contour>
    <contour>
      <point x="530" y="700" type="line"/>
      <point x="530" y="391" type="line"/>
      <point x="446" y="391" type="line"/>
      <point x="446" y="700" type="line"/>
    </contour>
    <contour>
      <point x="487" y="1086" type="curve" smooth="yes"/>
      <point x="508" y="1086"/>
      <point x="525" y="1079"/>
      <point x="540" y="1065" type="curve"/>
      <point x="554" y="1051"/>
      <point x="561" y="1034"/>
      <point x="561" y="1013" type="curve" smooth="yes"/>
      <point x="561" y="992"/>
      <point x="554" y="974"/>
      <point x="540" y="960" type="curve"/>
      <point x="525" y="946"/>
      <point x="508" y="939"/>
      <point x="487" y="939" type="curve" smooth="yes"/>
      <point x="466" y="939"/>
      <point x="449" y="946"/>
      <point x="435" y="960" type="curve"/>
      <point x="420" y="974"/>
      <point x="413" y="992"/>
      <point x="413" y="1013" type="curve" smooth="yes"/>
      <point x="413" y="1034"/>
      <point x="420" y="1051"/>
      <point x="435" y="1065" type="curve"/>
      <point x="449" y="1079"/>
      <point x="466" y="1086"/>
    </contour>
  </outline>
</glyph>
<glyph name="Agrave" format="2">
  <advance width="1218"/>
  <unicode hex="00C0"/>
  <outline>
    <contour>
      <point x="624" y="1620" type="line"/>
      <point x="558" y="1620" type="line"/>
      <point x="462" y="1890" type="line"/>
      <point x="558" y="1890" type="line"/>
    </contour>
    <contour>
      <point x="1088" y="0" type="line"/>
      <point x="580" y="1402" type="line"/>
      <point x="640" y="1402" type="line"/>
      <point x="130" y="0" type="line"/>
      <point x="40" y="0" type="line"/>
      <point x="564" y="1440" type="line"/>
      <point x="654" y="1440" type="line"/>
      <point x="1178" y="0" type="line"/>
    </contour>
    <contour>
      <point x="242" y="374" type="line"/>
      <point x="242" y="454" type="line"/>
      <point x="978" y="454" type="line"/>
      <point x="978" y="374" type="line"/>
    </contour>
  </outline>
</glyph>
<glyph name="Aacute" format="2">
  <advance width="1218"/>
  <unicode hex="00C1"/>
  <outline>
    <contour>
      <point x="660" y="1890" type="line"/>
      <point x="756" y="1890" type="line"/>
      <point x="660" y="1620" type="line"/>
      <point x="594" y="1620" type="line"/>
    </contour>
    <contour>
      <point x="40" y="0" type="line"/>
      <point x="564" y="1440" type="line"/>
      <point x="654" y="1440" type="line"/>
      <point x="1178" y="0" type="line"/>
      <point x="1088" y="0" type="line"/>
      <point x="578" y="1402" type="line"/>
      <point x="638" y="1402" type="line"/>
      <point x="130" y="0" type="line"/>
    </contour>
    <contour>
      <point x="240" y="374" type="line"/>
      <point x="240" y="454" type="line"/>
      <point x="976" y="454" type="line"/>
      <point x="976" y="374" type="line"/>
    </contour>
  </outline>
</glyph>
<glyph name="Atilde" format="2">
  <advance width="1218"/>
  <unicode hex="00C3"/>
  <outline>
    <contour>
      <point x="748" y="1670" type="curve" smooth="yes"/>
      <point x="696" y="1670"/>
      <point x="646" y="1693"/>
      <point x="598" y="1718" type="curve" smooth="yes"/>
      <point x="550" y="1743"/>
      <point x="506" y="1766"/>
      <point x="466" y="1766" type="curve" smooth="yes"/>
      <point x="437" y="1766"/>
      <point x="420" y="1756"/>
      <point x="413" y="1737" type="curve" smooth="yes"/>
      <point x="406" y="1717"/>
      <point x="405" y="1698"/>
      <point x="412" y="1680" type="curve"/>
      <point x="340" y="1680" type="line"/>
      <point x="328" y="1726"/>
      <point x="335" y="1765"/>
      <point x="361" y="1798" type="curve" smooth="yes"/>
      <point x="386" y="1830"/>
      <point x="422" y="1846"/>
      <point x="468" y="1846" type="curve" smooth="yes"/>
      <point x="521" y="1846"/>
      <point x="572" y="1823"/>
      <point x="620" y="1798" type="curve" smooth="yes"/>
      <point x="668" y="1773"/>
      <point x="712" y="1750"/>
      <point x="752" y="1750" type="curve" smooth="yes"/>
      <point x="803" y="1750"/>
      <point x="822" y="1795"/>
      <point x="806" y="1840" type="curve"/>
      <point x="878" y="1840" type="line"/>
      <point x="890" y="1795"/>
      <point x="883" y="1756"/>
      <point x="858" y="1722" type="curve" smooth="yes"/>
      <point x="833" y="1687"/>
      <point x="796" y="1670"/>
    </contour>
    <contour>
      <point x="40" y="0" type="line"/>
      <point x="564" y="1440" type="line"/>
      <point x="654" y="1440" type="line"/>
      <point x="1178" y="0" type="line"/>
      <point x="1088" y="0" type="line"/>
      <point x="578" y="1402" type="line"/>
      <point x="638" y="1402" type="line"/>
      <point x="130" y="0" type="line"/>
    </contour>
    <contour>
      <point x="240" y="374" type="line"/>
      <point x="240" y="454" type="line"/>
      <point x="976" y="454" type="line"/>
      <point x="976" y="374" type="line"/>
    </contour>
  </outline>
</glyph>
<glyph name="Aring" format="2">
  <advance width="1218"/>
  <unicode hex="00C5"/>
  <outline>
    <contour>
      <point x="610" y="1560" type="curve" smooth="yes"/>
      <point x="575" y="1560"/>
      <point x="542" y="1569"/>
      <point x="513" y="1586" type="curve" smooth="yes"/>
      <point x="454" y="1621"/>
      <point x="416" y="1682"/>
      <point x="416" y="1754" type="curve" smooth="yes"/>
      <point x="416" y="1789"/>
      <point x="425" y="1822"/>
      <point x="443" y="1851" type="curve" smooth="yes"/>
      <point x="478" y="1910"/>
      <point x="539" y="1948"/>
      <point x="610" y="1948" type="curve" smooth="yes"/>
      <point x="646" y="1948"/>
      <point x="679" y="1939"/>
      <point x="708" y="1922" type="curve" smooth="yes"/>
      <point x="767" y="1886"/>
      <point x="804" y="1825"/>
      <point x="804" y="1754" type="curve" smooth="yes"/>
      <point x="804" y="1718"/>
      <point x="795" y="1685"/>
      <point x="778" y="1656" type="curve" smooth="yes"/>
      <point x="743" y="1597"/>
      <point x="682" y="1560"/>
    </contour>
    <contour>
      <point x="610" y="1644" type="curve" smooth="yes"/>
      <point x="641" y="1644"/>
      <point x="668" y="1655"/>
      <point x="689" y="1677" type="curve" smooth="yes"/>
      <point x="710" y="1698"/>
      <point x="720" y="1724"/>
      <point x="720" y="1754" type="curve" smooth="yes"/>
      <point x="720" y="1785"/>
      <point x="710" y="1811"/>
      <point x="689" y="1832" type="curve" smooth="yes"/>
      <point x="668" y="1853"/>
      <point x="641" y="1864"/>
      <point x="610" y="1864" type="curve" smooth="yes"/>
      <point x="580" y="1864"/>
      <point x="554" y="1853"/>
      <point x="533" y="1832" type="curve" smooth="yes"/>
      <point x="511" y="1811"/>
      <point x="500" y="1785"/>
      <point x="500" y="1754" type="curve" smooth="yes"/>
      <point x="500" y="1724"/>
      <point x="511" y="1698"/>
      <point x="533" y="1677" type="curve"/>
      <point x="554" y="1655"/>
      <point x="580" y="1644"/>
    </contour>
    <contour>
      <point x="40" y="0" type="line"/>
      <point x="564" y="1440" type="line"/>
      <point x="654" y="1440" type="line"/>
      <point x="1178" y="0" type="line"/>
      <point x="1088" y="0" type="line"/>
      <point x="578" y="1402" type="line"/>
      <point x="638" y="1402" type="line"/>
      <point x="130" y="0" type="line"/>
    </contour>
    <contour>
      <point x="240" y="374" type="line"/>
      <point x="240" y="454" type="line"/>
      <point x="976" y="454" type="line"/>
      <point x="976" y="374" type="line"/>
    </contour>
  </outline>
</glyph>
<glyph name="AE" format="2">
  <advance width="1810"/>
  <unicode hex="00C6"/>
  <outline>
    <contour>
      <point x="40" y="0" type="line"/>
      <point x="564" y="1440" type="line"/>
      <point x="870" y="1440" type="line"/>
      <point x="870" y="1356" type="line"/>
      <point x="572" y="1356" type="line"/>
      <point x="636" y="1398" type="line"/>
      <point x="130" y="0" type="line"/>
    </contour>
    <contour>
      <point x="240" y="374" type="line"/>
      <point x="240" y="454" type="line"/>
      <point x="876" y="454" type="line"/>
      <point x="876" y="374" type="line"/>
    </contour>
    <contour>
      <point x="830" y="0" type="line"/>
      <point x="830" y="1440" type="line"/>
      <point x="1710" y="1440" type="line"/>
      <point x="1710" y="1356" type="line"/>
      <point x="914" y="1356" type="line"/>
      <point x="914" y="762" type="line"/>
      <point x="1590" y="762" type="line"/>
      <point x="1590" y="678" type="line"/>
      <point x="914" y="678" type="line"/>
      <point x="914" y="84" type="line"/>
      <point x="1710" y="84" type="line"/>
      <point x="1710" y="0" type="line"/>
    </contour>
  </outline>
</glyph>
<glyph name="Ccedilla" format="2">
  <advance width="1400"/>
  <unicode hex="00C7"/>
  <outline>
    <contour>
      <point x="696" y="-478" type="curve" smooth="yes"/>
      <point x="652" y="-478"/>
      <point x="612" y="-466"/>
      <point x="576" y="-450" type="curve"/>
      <point x="604" y="-376" type="line"/>
      <point x="637" y="-389"/>
      <point x="666" y="-396"/>
      <point x="690" y="-396" type="curve" smooth="yes"/>
      <point x="750" y="-396"/>
      <point x="784" y="-350"/>
      <point x="784" y="-302" type="curve" smooth="yes"/>
      <point x="784" y="-268"/>
      <point x="770" y="-244"/>
      <point x="742" y="-230" type="curve"/>
      <point x="714" y="-215"/>
      <point x="683" y="-203"/>
      <point x="650" y="-192" type="curve"/>
      <point x="726" y="14" type="line"/>
      <point x="810" y="14" type="line"/>
      <point x="752" y="-142" type="line"/>
      <point x="820" y="-170"/>
      <point x="872" y="-219"/>
      <point x="872" y="-306" type="curve" smooth="yes"/>
      <point x="872" y="-354"/>
      <point x="855" y="-395"/>
      <point x="820" y="-428" type="curve" smooth="yes"/>
      <point x="785" y="-461"/>
      <point x="744" y="-478"/>
    </contour>
    <contour>
      <point x="706" y="-30" type="curve" smooth="yes"/>
      <point x="563" y="-30"/>
      <point x="443" y="2"/>
      <point x="348" y="66" type="curve" smooth="yes"/>
      <point x="252" y="130"/>
      <point x="180" y="218"/>
      <point x="132" y="331" type="curve" smooth="yes"/>
      <point x="84" y="444"/>
      <point x="60" y="573"/>
      <point x="60" y="720" type="curve" smooth="yes"/>
      <point x="60" y="867"/>
      <point x="84" y="996"/>
      <point x="132" y="1109" type="curve" smooth="yes"/>
      <point x="180" y="1222"/>
      <point x="252" y="1310"/>
      <point x="348" y="1374" type="curve" smooth="yes"/>
      <point x="443" y="1438"/>
      <point x="563" y="1470"/>
      <point x="706" y="1470" type="curve" smooth="yes"/>
      <point x="874" y="1470"/>
      <point x="1009" y="1426"/>
      <point x="1112" y="1339" type="curve" smooth="yes"/>
      <point x="1215" y="1251"/>
      <point x="1284" y="1134"/>
      <point x="1320" y="988" type="curve"/>
      <point x="1232" y="968" type="line"/>
      <point x="1200" y="1095"/>
      <point x="1140" y="1197"/>
      <point x="1053" y="1273" type="curve" smooth="yes"/>
      <point x="965" y="1348"/>
      <point x="849" y="1386"/>
      <point x="706" y="1386" type="curve" smooth="yes"/>
      <point x="583" y="1386"/>
      <point x="480" y="1358"/>
      <point x="399" y="1301" type="curve" smooth="yes"/>
      <point x="235" y="1188"/>
      <point x="153" y="980"/>
      <point x="150" y="720" type="curve" smooth="yes"/>
      <point x="149" y="590"/>
      <point x="169" y="475"/>
      <point x="210" y="375" type="curve" smooth="yes"/>
      <point x="293" y="175"/>
      <point x="459" y="54"/>
      <point x="706" y="54" type="curve" smooth="yes"/>
      <point x="849" y="54"/>
      <point x="965" y="92"/>
      <point x="1053" y="168" type="curve" smooth="yes"/>
      <point x="1140" y="244"/>
      <point x="1200" y="345"/>
      <point x="1232" y="472" type="curve"/>
      <point x="1320" y="452" type="line"/>
      <point x="1284" y="306"/>
      <point x="1215" y="189"/>
      <point x="1112" y="102" type="curve" smooth="yes"/>
      <point x="1009" y="14"/>
      <point x="874" y="-30"/>
    </contour>
  </outline>
</glyph>
<glyph name="Eacute" format="2">
  <advance width="1120"/>
  <unicode hex="00C9"/>
  <outline>
    <contour>
      <point x="646" y="1890" type="line"/>
      <point x="742" y="1890" type="line"/>
      <point x="646" y="1620" type="line"/>
      <point x="580" y="1620" type="line"/>
    </contour>
    <contour>
      <point x="140" y="0" type="line"/>
      <point x="140" y="1440" type="line"/>
      <point x="1020" y="1440" type="line"/>
      <point x="1020" y="1356" type="line"/>
      <point x="224" y="1356" type="line"/>
      <point x="224" y="762" type="line"/>
      <point x="900" y="762" type="line"/>
      <point x="900" y="678" type="line"/>
      <point x="224" y="678" type="line"/>
      <point x="224" y="84" type="line"/>
      <point x="1020" y="84" type="line"/>
      <point x="1020" y="0" type="line"/>
    </contour>
  </outline>
</glyph>
<glyph name="Igrave" format="2">
  <advance width="404"/>
  <unicode hex="00CC"/>
  <outline>
    <contour>
      <point x="156" y="1890" type="line"/>
      <point x="222" y="1620" type="line"/>
      <point x="156" y="1620" type="line"/>
      <point x="60" y="1890" type="line"/>
    </contour>
    <contour>
      <point x="160" y="0" type="line"/>
      <point x="160" y="1440" type="line"/>
      <point x="244" y="1440" type="line"/>
      <point x="244" y="0" type="line"/>
    </contour>
  </outline>
</glyph>
<glyph name="Idieresis" format="2">
  <advance width="404"/>
  <unicode hex="00CF"/>
  <outline>
    <contour>
      <point x="72" y="1667" type="qcurve" smooth="yes"/>
      <point x="44" y="1667"/>
      <point x="5" y="1710"/>
      <point x="5" y="1740" type="qcurve" smooth="yes"/>
      <point x="5" y="1772"/>
      <point x="44" y="1814"/>
      <point x="72" y="1814" type="qcurve" smooth="yes"/>
      <point x="99" y="1814"/>
      <point x="138" y="1772"/>
      <point x="138" y="1740" type="qcurve" smooth="yes"/>
      <point x="138" y="1709"/>
      <point x="99" y="1667"/>
    </contour>
    <contour>
      <point x="333" y="1667" type="qcurve" smooth="yes"/>
      <point x="305" y="1667"/>
      <point x="266" y="1710"/>
      <point x="266" y="1740" type="qcurve" smooth="yes"/>
      <point x="266" y="1772"/>
      <point x="305" y="1814"/>
      <point x="333" y="1814" type="qcurve" smooth="yes"/>
      <point x="360" y="1814"/>
      <point x="399" y="1772"/>
      <point x="399" y="1740" type="qcurve" smooth="yes"/>
      <point x="399" y="1709"/>
      <point x="360" y="1667"/>
    </contour>
    <contour>
      <point x="160" y="0" type="line"/>
      <point x="160" y="1440" type="line"/>
      <point x="244" y="1440" type="line"/>
      <point x="244" y="0" type="line"/>
    </contour>
  </outline>
</glyph>
<glyph name="Eth" format="2">
  <advance width="1282"/>
  <unicode hex="00D0"/>
  <outline>
    <contour>
      <point x="20" y="678" type="line"/>
      <point x="20" y="762" type="line"/>
      <point x="620" y="762" type="line"/>
      <point x="620" y="678" type="line"/>
    </contour>
    <contour>
      <point x="118" y="0" type="line"/>
      <point x="118" y="1440" type="line"/>
      <point x="540" y="1440" type="line" smooth="yes"/>
      <point x="557" y="1440"/>
      <point x="585" y="1440"/>
      <point x="623" y="1439" type="curve" smooth="yes"/>
      <point x="661" y="1438"/>
      <point x="697" y="1435"/>
      <point x="732" y="1430" type="curve" smooth="yes"/>
      <point x="838" y="1415"/>
      <point x="926" y="1374"/>
      <point x="996" y="1308" type="curve" smooth="yes"/>
      <point x="1065" y="1242"/>
      <point x="1117" y="1158"/>
      <point x="1151" y="1057" type="curve" smooth="yes"/>
      <point x="1185" y="955"/>
      <point x="1202" y="843"/>
      <point x="1202" y="720" type="curve" smooth="yes"/>
      <point x="1202" y="597"/>
      <point x="1185" y="484"/>
      <point x="1151" y="383" type="curve" smooth="yes"/>
      <point x="1117" y="281"/>
      <point x="1065" y="197"/>
      <point x="996" y="132" type="curve" smooth="yes"/>
      <point x="926" y="66"/>
      <point x="838" y="25"/>
      <point x="732" y="10" type="curve" smooth="yes"/>
      <point x="698" y="5"/>
      <point x="662" y="3"/>
      <point x="623" y="2" type="curve" smooth="yes"/>
      <point x="584" y="1"/>
      <point x="556" y="0"/>
      <point x="540" y="0" type="curve" smooth="yes"/>
    </contour>
    <contour>
      <point x="208" y="84" type="line"/>
      <point x="540" y="84" type="line" smooth="yes"/>
      <point x="572" y="84"/>
      <point x="604" y="85"/>
      <point x="637" y="87" type="curve" smooth="yes"/>
      <point x="669" y="89"/>
      <point x="696" y="92"/>
      <point x="718" y="96" type="curve" smooth="yes"/>
      <point x="813" y="112"/>
      <point x="889" y="149"/>
      <point x="947" y="206" type="curve" smooth="yes"/>
      <point x="1062" y="320"/>
      <point x="1112" y="501"/>
      <point x="1112" y="720" type="curve" smooth="yes"/>
      <point x="1112" y="829"/>
      <point x="1099" y="928"/>
      <point x="1073" y="1017" type="curve" smooth="yes"/>
      <point x="1020" y="1193"/>
      <point x="907" y="1312"/>
      <point x="718" y="1344" type="curve" smooth="yes"/>
      <point x="696" y="1348"/>
      <point x="668" y="1351"/>
      <point x="635" y="1353" type="curve" smooth="yes"/>
      <point x="602" y="1355"/>
      <point x="570" y="1356"/>
      <point x="540" y="1356" type="curve" smooth="yes"/>
      <point x="208" y="1356" type="line"/>
    </contour>
  </outline>
</glyph>
<glyph name="Ntilde" format="2">
  <advance width="1324"/>
  <unicode hex="00D1"/>
  <outline>
    <contour>
      <point x="830" y="1620" type="qcurve" smooth="yes"/>
      <point x="791" y="1620"/>
      <point x="716" y="1649"/>
      <point x="644" y="1687"/>
      <point x="578" y="1716"/>
      <point x="548" y="1716" type="qcurve" smooth="yes"/>
      <point x="505" y="1716"/>
      <point x="484" y="1657"/>
      <point x="494" y="1630" type="qcurve"/>
      <point x="422" y="1630" type="line"/>
      <point x="404" y="1699"/>
      <point x="481" y="1796"/>
      <point x="550" y="1796" type="qcurve" smooth="yes"/>
      <point x="590" y="1796"/>
      <point x="666" y="1767"/>
      <point x="738" y="1729"/>
      <point x="804" y="1700"/>
      <point x="834" y="1700" type="qcurve" smooth="yes"/>
      <point x="872" y="1700"/>
      <point x="900" y="1756"/>
      <point x="888" y="1790" type="qcurve"/>
      <point x="960" y="1790" type="line"/>
      <point x="978" y="1723"/>
      <point x="902" y="1620"/>
    </contour>
    <contour>
      <point x="140" y="0" type="line"/>
      <point x="140" y="1440" type="line"/>
      <point x="224" y="1440" type="line"/>
      <point x="1100" y="150" type="line"/>
      <point x="1100" y="1440" type="line"/>
      <point x="1184" y="1440" type="line"/>
      <point x="1184" y="0" type="line"/>
      <point x="1100" y="0" type="line"/>
      <point x="224" y="1292" type="line"/>
      <point x="224" y="0" type="line"/>
    </contour>
  </outline>
</glyph>
<glyph name="Oslash" format="2">
  <advance width="1412"/>
  <unicode hex="00D8"/>
  <outline>
    <contour>
      <point x="72" y="-26" type="line"/>
      <point x="10" y="32" type="line"/>
      <point x="210" y="246" type="line"/>
      <point x="232" y="270" type="line"/>
      <point x="1142" y="1242" type="line"/>
      <point x="1162" y="1262" type="line"/>
      <point x="1345" y="1459" type="line"/>
      <point x="1407" y="1404" type="line"/>
      <point x="1210" y="1190" type="line"/>
      <point x="1194" y="1174" type="line"/>
      <point x="286" y="202" type="line"/>
      <point x="260" y="174" type="line"/>
    </contour>
    <contour>
      <point x="706" y="-30" type="qcurve" smooth="yes"/>
      <point x="491" y="-30"/>
      <point x="204" y="162"/>
      <point x="60" y="500"/>
      <point x="60" y="720" type="qcurve" smooth="yes"/>
      <point x="60" y="940"/>
      <point x="204" y="1278"/>
      <point x="491" y="1470"/>
      <point x="706" y="1470" type="qcurve" smooth="yes"/>
      <point x="921" y="1470"/>
      <point x="1208" y="1278"/>
      <point x="1352" y="940"/>
      <point x="1352" y="720" type="qcurve" smooth="yes"/>
      <point x="1352" y="500"/>
      <point x="1208" y="162"/>
      <point x="921" y="-30"/>
    </contour>
    <contour>
      <point x="706" y="54" type="qcurve" smooth="yes"/>
      <point x="891" y="54"/>
      <point x="1138" y="225"/>
      <point x="1262" y="525"/>
      <point x="1262" y="720" type="qcurve" smooth="yes"/>
      <point x="1262" y="915"/>
      <point x="1138" y="1216"/>
      <point x="891" y="1386"/>
      <point x="706" y="1386" type="qcurve" smooth="yes"/>
      <point x="521" y="1386"/>
      <point x="276" y="1216"/>
      <point x="152" y="915"/>
      <point x="150" y="720" type="qcurve" smooth="yes"/>
      <point x="148" y="525"/>
      <point x="272" y="225"/>
      <point x="521" y="54"/>
    </contour>
  </outline>
</glyph>
<glyph name="Ucircumflex" format="2">
  <advance width="1380"/>
  <unicode hex="00DB"/>
  <outline>
    <contour>
      <point x="444" y="1620" type="line"/>
      <point x="644" y="1860" type="line"/>
      <point x="736" y="1860" type="line"/>
      <point x="936" y="1620" type="line"/>
      <point x="836" y="1620" type="line"/>
      <point x="690" y="1790" type="line"/>
      <point x="544" y="1620" type="line"/>
    </contour>
    <contour>
      <point x="690" y="-30" type="curve" smooth="yes"/>
      <point x="583" y="-30"/>
      <point x="489" y="-8"/>
      <point x="406" y="37" type="curve" smooth="yes"/>
      <point x="241" y="126"/>
      <point x="140" y="293"/>
      <point x="140" y="510" type="curve" smooth="yes"/>
      <point x="140" y="1440" type="line"/>
      <point x="224" y="1440" type="line"/>
      <point x="224" y="538" type="line" smooth="yes"/>
      <point x="224" y="361"/>
      <point x="290" y="237"/>
      <point x="385" y="161" type="curve" smooth="yes"/>
      <point x="480" y="84"/>
      <point x="594" y="50"/>
      <point x="690" y="50" type="curve" smooth="yes"/>
      <point x="786" y="50"/>
      <point x="900" y="84"/>
      <point x="995" y="161" type="curve" smooth="yes"/>
      <point x="1090" y="237"/>
      <point x="1156" y="361"/>
      <point x="1156" y="538" type="curve" smooth="yes"/>
      <point x="1156" y="1440" type="line"/>
      <point x="1240" y="1440" type="line"/>
      <point x="1240" y="510" type="line" smooth="yes"/>
      <point x="1240" y="402"/>
      <point x="1216" y="308"/>
      <point x="1169" y="227" type="curve" smooth="yes"/>
      <point x="1074" y="65"/>
      <point x="903" y="-30"/>
    </contour>
  </outline>
</glyph>
<glyph name="Udieresis" format="2">
  <advance width="1380"/>
  <unicode hex="00DC"/>
  <outline>
    <contour>
      <point x="510" y="1667" type="curve" smooth="yes"/>
      <point x="489" y="1667"/>
      <point x="472" y="1674"/>
      <point x="458" y="1689" type="curve"/>
      <point x="443" y="1703"/>
      <point x="436" y="1720"/>
      <point x="436" y="1740" type="curve" smooth="yes"/>
      <point x="436" y="1761"/>
      <point x="443" y="1779"/>
      <point x="458" y="1793" type="curve"/>
      <point x="472" y="1807"/>
      <point x="489" y="1814"/>
      <point x="510" y="1814" type="curve" smooth="yes"/>
      <point x="531" y="1814"/>
      <point x="548" y="1807"/>
      <point x="563" y="1793" type="curve"/>
      <point x="577" y="1779"/>
      <point x="584" y="1761"/>
      <point x="584" y="1740" type="curve" smooth="yes"/>
      <point x="584" y="1719"/>
      <point x="577" y="1702"/>
      <point x="563" y="1688" type="curve"/>
      <point x="548" y="1674"/>
      <point x="531" y="1667"/>
    </contour>
    <contour>
      <point x="870" y="1667" type="curve" smooth="yes"/>
      <point x="849" y="1667"/>
      <point x="832" y="1674"/>
      <point x="818" y="1689" type="curve"/>
      <point x="803" y="1703"/>
      <point x="796" y="1720"/>
      <point x="796" y="1740" type="curve" smooth="yes"/>
      <point x="796" y="1761"/>
      <point x="803" y="1779"/>
      <point x="818" y="1793" type="curve"/>
      <point x="832" y="1807"/>
      <point x="849" y="1814"/>
      <point x="870" y="1814" type="curve" smooth="yes"/>
      <point x="891" y="1814"/>
      <point x="908" y="1807"/>
      <point x="923" y="1793" type="curve"/>
      <point x="937" y="1779"/>
      <point x="944" y="1761"/>
      <point x="944" y="1740" type="curve" smooth="yes"/>
      <point x="944" y="1719"/>
      <point x="937" y="1702"/>
      <point x="923" y="1688" type="curve"/>
      <point x="908" y="1674"/>
      <point x="891" y="1667"/>
    </contour>
    <contour>
      <point x="690" y="-30" type="curve" smooth="yes"/>
      <point x="583" y="-30"/>
      <point x="489" y="-8"/>
      <point x="406" y="37" type="curve" smooth="yes"/>
      <point x="241" y="126"/>
      <point x="140" y="293"/>
      <point x="140" y="510" type="curve" smooth="yes"/>
      <point x="140" y="1440" type="line"/>
      <point x="224" y="1440" type="line"/>
      <point x="224" y="538" type="line" smooth="yes"/>
      <point x="224" y="361"/>
      <point x="290" y="237"/>
      <point x="385" y="161" type="curve" smooth="yes"/>
      <point x="480" y="84"/>
      <point x="594" y="50"/>
      <point x="690" y="50" type="curve" smooth="yes"/>
      <point x="786" y="50"/>
      <point x="900" y="84"/>
      <point x="995" y="161" type="curve" smooth="yes"/>
      <point x="1090" y="237"/>
      <point x="1156" y="361"/>
      <point x="1156" y="538" type="curve" smooth="yes"/>
      <point x="1156" y="1440" type="line"/>
      <point x="1240" y="1440" type="line"/>
      <point x="1240" y="510" type="line" smooth="yes"/>
      <point x="1240" y="402"/>
      <point x="1216" y="308"/>
      <point x="1169" y="227" type="curve" smooth="yes"/>
      <point x="1074" y="65"/>
      <point x="903" y="-30"/>
    </contour>
  </outline>
</glyph>
<glyph name="Yacute" format="2">
  <advance width="1038"/>
  <unicode hex="00DD"/>
  <outline>
    <contour>
      <point x="535" y="1890" type="line"/>
      <point x="469" y="1620" type="line"/>
      <point x="535" y="1620" type="line"/>
      <point x="631" y="1890" type="line"/>
    </contour>
    <contour>
      <point x="478" y="0" type="line"/>
      <point x="478" y="612" type="line"/>
      <point x="0" y="1440" type="line"/>
      <point x="96" y="1440" type="line"/>
      <point x="520" y="708" type="line"/>
      <point x="942" y="1440" type="line"/>
      <point x="1038" y="1440" type="line"/>
      <point x="562" y="612" type="line"/>
      <point x="562" y="0" type="line"/>
    </contour>
  </outline>
</glyph>
<glyph name="Thorn" format="2">
  <advance width="1142"/>
  <unicode hex="00DE"/>
  <outline>
    <contour>
      <point x="140" y="0" type="line"/>
      <point x="140" y="1440" type="line"/>
      <point x="224" y="1440" type="line"/>
      <point x="224" y="1152" type="line"/>
      <point x="650" y="1152" type="line" smooth="yes"/>
      <point x="703" y="1152"/>
      <point x="754" y="1142"/>
      <point x="804" y="1122" type="curve" smooth="yes"/>
      <point x="856" y="1102"/>
      <point x="906" y="1071"/>
      <point x="946" y="1032" type="curve"/>
      <point x="1033" y="952"/>
      <point x="1082" y="836"/>
      <point x="1082" y="720" type="curve" smooth="yes"/>
      <point x="1082" y="612"/>
      <point x="1039" y="509"/>
      <point x="968" y="430" type="curve" smooth="yes"/>
      <point x="929" y="386"/>
      <point x="882" y="351"/>
      <point x="825" y="326" type="curve" smooth="yes"/>
      <point x="768" y="301"/>
      <point x="709" y="288"/>
      <point x="650" y="288" type="curve" smooth="yes"/>
      <point x="224" y="288" type="line"/>
      <point x="224" y="0" type="line"/>
    </contour>
    <contour>
      <point x="224" y="372" type="line"/>
      <point x="650" y="372" type="line" smooth="yes"/>
      <point x="749" y="372"/>
      <point x="846" y="420"/>
      <point x="910" y="496" type="curve" smooth="yes"/>
      <point x="962" y="559"/>
      <point x="995" y="639"/>
      <point x="992" y="720" type="curve"/>
      <point x="991" y="815"/>
      <point x="953" y="905"/>
      <point x="886" y="970" type="curve" smooth="yes"/>
      <point x="826" y="1030"/>
      <point x="737" y="1068"/>
      <point x="650" y="1068" type="curve" smooth="yes"/>
      <point x="224" y="1068" type="line"/>
    </contour>
  </outline>
</glyph>
<glyph name="germandbls" format="2">
  <advance width="1150"/>
  <unicode hex="00DF"/>
  <outline>
    <contour>
      <point x="582" y="-28" type="qcurve" smooth="yes"/>
      <point x="537" y="-28"/>
      <point x="444" y="-18"/>
      <point x="400" y="0" type="qcurve"/>
      <point x="400" y="84" type="line"/>
      <point x="448" y="68"/>
      <point x="531" y="58"/>
      <point x="582" y="58" type="qcurve" smooth="yes"/>
      <point x="741" y="58"/>
      <point x="940" y="239"/>
      <point x="940" y="402" type="qcurve" smooth="yes"/>
      <point x="940" y="548"/>
      <point x="709" y="724"/>
      <point x="520" y="728" type="qcurve"/>
      <point x="520" y="812" type="line"/>
      <point x="593" y="821"/>
      <point x="725" y="886"/>
      <point x="808" y="1007"/>
      <point x="808" y="1100" type="qcurve" smooth="yes"/>
      <point x="808" y="1235"/>
      <point x="656" y="1386"/>
      <point x="522" y="1386" type="qcurve" smooth="yes"/>
      <point x="429" y="1386"/>
      <point x="279" y="1301"/>
      <point x="252" y="1212" type="qcurve" smooth="yes"/>
      <point x="240" y="1173"/>
      <point x="232" y="1086"/>
      <point x="232" y="1042" type="qcurve" smooth="yes"/>
      <point x="232" y="0" type="line"/>
      <point x="140" y="0" type="line"/>
      <point x="140" y="1064" type="line" smooth="yes"/>
      <point x="140" y="1120"/>
      <point x="155" y="1219"/>
      <point x="170" y="1256" type="qcurve" smooth="yes"/>
      <point x="198" y="1325"/>
      <point x="293" y="1421"/>
      <point x="430" y="1470"/>
      <point x="520" y="1470" type="qcurve" smooth="yes"/>
      <point x="634" y="1470"/>
      <point x="804" y="1386"/>
      <point x="898" y="1220"/>
      <point x="898" y="1098" type="qcurve" smooth="yes"/>
      <point x="898" y="983"/>
      <point x="791" y="810"/>
      <point x="690" y="784" type="qcurve"/>
      <point x="735" y="782"/>
      <point x="851" y="733"/>
      <point x="959" y="638"/>
      <point x="1030" y="497"/>
      <point x="1030" y="402" type="qcurve" smooth="yes"/>
      <point x="1030" y="209"/>
      <point x="801" y="-28"/>
    </contour>
  </outline>
</glyph>
<glyph name="agrave" format="2">
  <advance width="1084"/>
  <unicode hex="00E0"/>
  <outline>
    <component base="a"/>
    <contour>
      <point x="516" y="1530" type="line"/>
      <point x="420" y="1530" type="line"/>
      <point x="516" y="1260" type="line"/>
      <point x="582" y="1260" type="line"/>
    </contour>
  </outline>
</glyph>
<glyph name="aacute" format="2">
  <advance width="1084"/>
  <unicode hex="00E1"/>
  <outline>
    <component base="a"/>
    <contour>
      <point x="593" y="1530" type="line"/>
      <point x="689" y="1530" type="line"/>
      <point x="593" y="1260" type="line"/>
      <point x="527" y="1260" type="line"/>
    </contour>
  </outline>
</glyph>
<glyph name="acircumflex" format="2">
  <advance width="1084"/>
  <unicode hex="00E2"/>
  <outline>
    <component base="a"/>
    <contour>
      <point x="312" y="1260" type="line"/>
      <point x="512" y="1500" type="line"/>
      <point x="604" y="1500" type="line"/>
      <point x="804" y="1260" type="line"/>
      <point x="704" y="1260" type="line"/>
      <point x="558" y="1430" type="line"/>
      <point x="412" y="1260" type="line"/>
    </contour>
  </outline>
</glyph>
<glyph name="atilde" format="2">
  <advance width="1084"/>
  <unicode hex="00E3"/>
  <outline>
    <component base="a"/>
    <contour>
      <point x="702" y="1260" type="curve" smooth="yes"/>
      <point x="650" y="1260"/>
      <point x="600" y="1283"/>
      <point x="552" y="1308" type="curve" smooth="yes"/>
      <point x="504" y="1333"/>
      <point x="460" y="1356"/>
      <point x="420" y="1356" type="curve" smooth="yes"/>
      <point x="391" y="1356"/>
      <point x="374" y="1346"/>
      <point x="367" y="1327" type="curve" smooth="yes"/>
      <point x="360" y="1307"/>
      <point x="359" y="1288"/>
      <point x="366" y="1270" type="curve"/>
      <point x="294" y="1270" type="line"/>
      <point x="282" y="1316"/>
      <point x="289" y="1355"/>
      <point x="315" y="1388" type="curve" smooth="yes"/>
      <point x="340" y="1420"/>
      <point x="376" y="1436"/>
      <point x="422" y="1436" type="curve" smooth="yes"/>
      <point x="475" y="1436"/>
      <point x="526" y="1413"/>
      <point x="574" y="1388" type="curve" smooth="yes"/>
      <point x="622" y="1363"/>
      <point x="666" y="1340"/>
      <point x="706" y="1340" type="curve" smooth="yes"/>
      <point x="757" y="1340"/>
      <point x="776" y="1385"/>
      <point x="760" y="1430" type="curve"/>
      <point x="832" y="1430" type="line"/>
      <point x="844" y="1385"/>
      <point x="837" y="1346"/>
      <point x="812" y="1312" type="curve" smooth="yes"/>
      <point x="787" y="1277"/>
      <point x="750" y="1260"/>
    </contour>
  </outline>
</glyph>
<glyph name="aring" format="2">
  <advance width="1084"/>
  <unicode hex="00E5"/>
  <outline>
    <component base="a"/>
    <contour>
      <point x="557" y="1200" type="qcurve" smooth="yes"/>
      <point x="504" y="1200"/>
      <point x="416" y="1252"/>
      <point x="363" y="1340"/>
      <point x="363" y="1394" type="qcurve" smooth="yes"/>
      <point x="363" y="1447"/>
      <point x="416" y="1535"/>
      <point x="504" y="1588"/>
      <point x="557" y="1588" type="qcurve" smooth="yes"/>
      <point x="611" y="1588"/>
      <point x="699" y="1535"/>
      <point x="751" y="1447"/>
      <point x="751" y="1394" type="qcurve" smooth="yes"/>
      <point x="751" y="1340"/>
      <point x="699" y="1252"/>
      <point x="611" y="1200"/>
    </contour>
    <contour>
      <point x="557" y="1284" type="qcurve" smooth="yes"/>
      <point x="604" y="1284"/>
      <point x="667" y="1349"/>
      <point x="667" y="1394" type="qcurve" smooth="yes"/>
      <point x="667" y="1440"/>
      <point x="604" y="1504"/>
      <point x="557" y="1504" type="qcurve" smooth="yes"/>
      <point x="512" y="1504"/>
      <point x="447" y="1440"/>
      <point x="447" y="1394" type="qcurve" smooth="yes"/>
      <point x="447" y="1349"/>
      <point x="512" y="1284"/>
    </contour>
  </outline>
</glyph>
<glyph name="ae" format="2">
  <advance width="1892"/>
  <unicode hex="00E6"/>
  <outline>
    <contour>
      <point x="1348" y="-30" type="curve" smooth="yes"/>
      <point x="1247" y="-30"/>
      <point x="1161" y="-6"/>
      <point x="1092" y="44" type="curve" smooth="yes"/>
      <point x="952" y="142"/>
      <point x="880" y="319"/>
      <point x="880" y="542" type="curve" smooth="yes"/>
      <point x="880" y="655"/>
      <point x="898" y="754"/>
      <point x="935" y="839" type="curve" smooth="yes"/>
      <point x="1007" y="1010"/>
      <point x="1149" y="1110"/>
      <point x="1352" y="1110" type="curve" smooth="yes"/>
      <point x="1455" y="1110"/>
      <point x="1540" y="1085"/>
      <point x="1608" y="1036" type="curve" smooth="yes"/>
      <point x="1744" y="936"/>
      <point x="1812" y="753"/>
      <point x="1812" y="516" type="curve"/>
      <point x="1726" y="516" type="line"/>
      <point x="1726" y="544" type="line"/>
      <point x="1722" y="692"/>
      <point x="1689" y="809"/>
      <point x="1628" y="896" type="curve" smooth="yes"/>
      <point x="1567" y="983"/>
      <point x="1473" y="1026"/>
      <point x="1348" y="1026" type="curve" smooth="yes"/>
      <point x="1263" y="1026"/>
      <point x="1192" y="1006"/>
      <point x="1135" y="965" type="curve" smooth="yes"/>
      <point x="1021" y="883"/>
      <point x="964" y="732"/>
      <point x="964" y="540" type="curve" smooth="yes"/>
      <point x="964" y="394"/>
      <point x="996" y="277"/>
      <point x="1061" y="188" type="curve" smooth="yes"/>
      <point x="1126" y="99"/>
      <point x="1221" y="54"/>
      <point x="1348" y="54" type="curve" smooth="yes"/>
      <point x="1511" y="54"/>
      <point x="1644" y="133"/>
      <point x="1720" y="298" type="curve"/>
      <point x="1786" y="258" type="line"/>
      <point x="1759" y="195"/>
      <point x="1723" y="143"/>
      <point x="1680" y="100" type="curve" smooth="yes"/>
      <point x="1593" y="15"/>
      <point x="1480" y="-30"/>
    </contour>
    <contour>
      <point x="450" y="54" type="curve" smooth="yes"/>
      <point x="538" y="54"/>
      <point x="616" y="74"/>
      <point x="685" y="113" type="curve" smooth="yes"/>
      <point x="753" y="152"/>
      <point x="802" y="203"/>
      <point x="832" y="268" type="curve" smooth="yes"/>
      <point x="850" y="306"/>
      <point x="862" y="347"/>
      <point x="869" y="391" type="curve" smooth="yes"/>
      <point x="876" y="434"/>
      <point x="879" y="472"/>
      <point x="880" y="505" type="curve"/>
      <point x="880" y="537"/>
      <point x="880" y="555"/>
      <point x="880" y="560" type="curve"/>
      <point x="884" y="520" type="line"/>
      <point x="534" y="520" type="line" smooth="yes"/>
      <point x="503" y="520"/>
      <point x="466" y="519"/>
      <point x="425" y="516" type="curve" smooth="yes"/>
      <point x="383" y="513"/>
      <point x="343" y="505"/>
      <point x="304" y="492" type="curve" smooth="yes"/>
      <point x="226" y="464"/>
      <point x="168" y="405"/>
      <point x="168" y="290" type="curve" smooth="yes"/>
      <point x="168" y="213"/>
      <point x="193" y="155"/>
      <point x="244" y="115" type="curve" smooth="yes"/>
      <point x="295" y="74"/>
      <point x="363" y="54"/>
    </contour>
    <contour>
      <point x="462" y="-30" type="curve" smooth="yes"/>
      <point x="343" y="-30"/>
      <point x="250" y="-2"/>
      <point x="182" y="56" type="curve" smooth="yes"/>
      <point x="114" y="113"/>
      <point x="80" y="191"/>
      <point x="80" y="292" type="curve" smooth="yes"/>
      <point x="80" y="415"/>
      <point x="131" y="490"/>
      <point x="204" y="534" type="curve"/>
      <point x="241" y="555"/>
      <point x="280" y="571"/>
      <point x="322" y="580" type="curve" smooth="yes"/>
      <point x="405" y="599"/>
      <point x="485" y="600"/>
      <point x="534" y="600" type="curve" smooth="yes"/>
      <point x="882" y="600" type="line"/>
      <point x="880" y="588" type="line"/>
      <point x="884" y="682"/>
      <point x="876" y="762"/>
      <point x="856" y="827" type="curve" smooth="yes"/>
      <point x="816" y="958"/>
      <point x="721" y="1026"/>
      <point x="554" y="1026" type="curve" smooth="yes"/>
      <point x="472" y="1026"/>
      <point x="400" y="1009"/>
      <point x="337" y="974" type="curve" smooth="yes"/>
      <point x="274" y="939"/>
      <point x="231" y="879"/>
      <point x="210" y="794" type="curve"/>
      <point x="122" y="822" type="line"/>
      <point x="136" y="888"/>
      <point x="164" y="942"/>
      <point x="206" y="985" type="curve" smooth="yes"/>
      <point x="290" y="1069"/>
      <point x="415" y="1110"/>
      <point x="552" y="1110" type="curve" smooth="yes"/>
      <point x="771" y="1110"/>
      <point x="901" y="1009"/>
      <point x="946" y="834" type="curve" smooth="yes"/>
      <point x="953" y="808"/>
      <point x="958" y="782"/>
      <point x="961" y="757" type="curve"/>
      <point x="963" y="731"/>
      <point x="964" y="704"/>
      <point x="964" y="676" type="curve"/>
      <point x="938" y="300" type="line"/>
      <point x="912" y="215"/>
      <point x="874" y="148"/>
      <point x="823" y="100" type="curve" smooth="yes"/>
      <point x="772" y="52"/>
      <point x="714" y="18"/>
      <point x="651" y="-1" type="curve" smooth="yes"/>
      <point x="588" y="-20"/>
      <point x="525" y="-30"/>
    </contour>
    <contour>
      <point x="930" y="516" type="line"/>
      <point x="930" y="600" type="line"/>
      <point x="1762" y="600" type="line"/>
      <point x="1762" y="516" type="line"/>
    </contour>
  </outline>
</glyph>
<glyph name="ccedilla" format="2">
  <advance width="1078"/>
  <unicode hex="00E7"/>
  <outline>
    <contour>
      <point x="516" y="-478" type="curve" smooth="yes"/>
      <point x="472" y="-478"/>
      <point x="432" y="-466"/>
      <point x="396" y="-450" type="curve"/>
      <point x="424" y="-376" type="line"/>
      <point x="457" y="-389"/>
      <point x="486" y="-396"/>
      <point x="510" y="-396" type="curve" smooth="yes"/>
      <point x="570" y="-396"/>
      <point x="604" y="-350"/>
      <point x="604" y="-302" type="curve" smooth="yes"/>
      <point x="604" y="-268"/>
      <point x="590" y="-244"/>
      <point x="562" y="-230" type="curve"/>
      <point x="534" y="-215"/>
      <point x="503" y="-203"/>
      <point x="470" y="-192" type="curve"/>
      <point x="546" y="14" type="line"/>
      <point x="630" y="14" type="line"/>
      <point x="572" y="-142" type="line"/>
      <point x="640" y="-170"/>
      <point x="692" y="-219"/>
      <point x="692" y="-306" type="curve" smooth="yes"/>
      <point x="692" y="-354"/>
      <point x="675" y="-395"/>
      <point x="640" y="-428" type="curve" smooth="yes"/>
      <point x="605" y="-461"/>
      <point x="564" y="-478"/>
    </contour>
    <contour>
      <point x="574" y="-30" type="curve" smooth="yes"/>
      <point x="467" y="-30"/>
      <point x="377" y="-6"/>
      <point x="304" y="42" type="curve" smooth="yes"/>
      <point x="159" y="138"/>
      <point x="84" y="315"/>
      <point x="80" y="540" type="curve"/>
      <point x="82" y="655"/>
      <point x="102" y="756"/>
      <point x="140" y="841" type="curve" smooth="yes"/>
      <point x="215" y="1012"/>
      <point x="361" y="1110"/>
      <point x="574" y="1110" type="curve" smooth="yes"/>
      <point x="674" y="1110"/>
      <point x="763" y="1086"/>
      <point x="842" y="1039" type="curve" smooth="yes"/>
      <point x="920" y="991"/>
      <point x="975" y="925"/>
      <point x="1008" y="842" type="curve"/>
      <point x="928" y="808" type="line"/>
      <point x="898" y="877"/>
      <point x="852" y="931"/>
      <point x="790" y="969" type="curve" smooth="yes"/>
      <point x="727" y="1007"/>
      <point x="655" y="1026"/>
      <point x="574" y="1026" type="curve" smooth="yes"/>
      <point x="483" y="1026"/>
      <point x="408" y="1006"/>
      <point x="349" y="965" type="curve" smooth="yes"/>
      <point x="230" y="883"/>
      <point x="173" y="732"/>
      <point x="170" y="540" type="curve"/>
      <point x="172" y="393"/>
      <point x="207" y="276"/>
      <point x="274" y="187" type="curve" smooth="yes"/>
      <point x="341" y="98"/>
      <point x="441" y="54"/>
      <point x="574" y="54" type="curve" smooth="yes"/>
      <point x="733" y="54"/>
      <point x="861" y="129"/>
      <point x="926" y="270" type="curve"/>
      <point x="1008" y="234" type="line"/>
      <point x="963" y="147"/>
      <point x="904" y="82"/>
      <point x="831" y="37" type="curve" smooth="yes"/>
      <point x="758" y="-8"/>
      <point x="672" y="-30"/>
    </contour>
  </outline>
</glyph>
<glyph name="igrave" format="2">
  <advance width="404"/>
  <unicode hex="00EC"/>
  <outline>
    <contour>
      <point x="156" y="1530" type="line"/>
      <point x="222" y="1260" type="line"/>
      <point x="156" y="1260" type="line"/>
      <point x="60" y="1530" type="line"/>
    </contour>
    <contour>
      <point x="160" y="0" type="line"/>
      <point x="160" y="1080" type="line"/>
      <point x="244" y="1080" type="line"/>
      <point x="244" y="0" type="line"/>
    </contour>
  </outline>
</glyph>
<glyph name="eth" format="2">
  <advance width="1146"/>
  <unicode hex="00F0"/>
  <outline>
    <contour>
      <point x="574" y="-30" type="curve"/>
      <point x="470" y="-31"/>
      <point x="382" y="-10"/>
      <point x="309" y="34" type="curve" smooth="yes"/>
      <point x="163" y="122"/>
      <point x="83" y="288"/>
      <point x="80" y="504" type="curve"/>
      <point x="81" y="613"/>
      <point x="102" y="708"/>
      <point x="141" y="789" type="curve" smooth="yes"/>
      <point x="220" y="949"/>
      <point x="369" y="1041"/>
      <point x="574" y="1038" type="curve"/>
      <point x="652" y="1039"/>
      <point x="727" y="1024"/>
      <point x="799" y="993" type="curve" smooth="yes"/>
      <point x="871" y="961"/>
      <point x="928" y="913"/>
      <point x="970" y="850" type="curve"/>
      <point x="958" y="957"/>
      <point x="931" y="1049"/>
      <point x="889" y="1126" type="curve" smooth="yes"/>
      <point x="847" y="1203"/>
      <point x="790" y="1263"/>
      <point x="719" y="1307" type="curve" smooth="yes"/>
      <point x="647" y="1351"/>
      <point x="561" y="1377"/>
      <point x="460" y="1384" type="curve"/>
      <point x="470" y="1466" type="line"/>
      <point x="705" y="1453"/>
      <point x="880" y="1340"/>
      <point x="976" y="1144" type="curve"/>
      <point x="1002" y="1094"/>
      <point x="1022" y="1041"/>
      <point x="1035" y="986" type="curve" smooth="yes"/>
      <point x="1048" y="931"/>
      <point x="1056" y="865"/>
      <point x="1060" y="789" type="curve" smooth="yes"/>
      <point x="1064" y="712"/>
      <point x="1066" y="618"/>
      <point x="1066" y="506" type="curve" smooth="yes"/>
      <point x="1066" y="397"/>
      <point x="1046" y="303"/>
      <point x="1007" y="222" type="curve" smooth="yes"/>
      <point x="927" y="60"/>
      <point x="777" y="-33"/>
    </contour>
    <contour>
      <point x="574" y="54" type="curve" smooth="yes"/>
      <point x="706" y="54"/>
      <point x="806" y="95"/>
      <point x="874" y="177" type="curve" smooth="yes"/>
      <point x="942" y="258"/>
      <point x="976" y="368"/>
      <point x="976" y="506" type="curve" smooth="yes"/>
      <point x="976" y="645"/>
      <point x="941" y="755"/>
      <point x="871" y="836" type="curve" smooth="yes"/>
      <point x="800" y="917"/>
      <point x="701" y="956"/>
      <point x="574" y="954" type="curve"/>
      <point x="443" y="956"/>
      <point x="343" y="916"/>
      <point x="274" y="834" type="curve" smooth="yes"/>
      <point x="205" y="751"/>
      <point x="170" y="641"/>
      <point x="170" y="504" type="curve" smooth="yes"/>
      <point x="170" y="363"/>
      <point x="205" y="253"/>
      <point x="275" y="174" type="curve" smooth="yes"/>
      <point x="344" y="94"/>
      <point x="444" y="54"/>
    </contour>
    <contour>
      <point x="606" y="1158" type="line"/>
      <point x="540" y="1210" type="line"/>
      <point x="818" y="1564" type="line"/>
      <point x="884" y="1512" type="line"/>
    </contour>
  </outline>
</glyph>
<glyph name="ntilde" format="2">
  <advance width="1146"/>
  <unicode hex="00F1"/>
  <outline>
    <contour>
      <point x="712" y="1260" type="curve" smooth="yes"/>
      <point x="660" y="1260"/>
      <point x="610" y="1283"/>
      <point x="562" y="1308" type="curve" smooth="yes"/>
      <point x="514" y="1333"/>
      <point x="470" y="1356"/>
      <point x="430" y="1356" type="curve" smooth="yes"/>
      <point x="401" y="1356"/>
      <point x="384" y="1346"/>
      <point x="377" y="1327" type="curve" smooth="yes"/>
      <point x="370" y="1307"/>
      <point x="369" y="1288"/>
      <point x="376" y="1270" type="curve"/>
      <point x="304" y="1270" type="line"/>
      <point x="292" y="1316"/>
      <point x="299" y="1355"/>
      <point x="325" y="1388" type="curve" smooth="yes"/>
      <point x="350" y="1420"/>
      <point x="386" y="1436"/>
      <point x="432" y="1436" type="curve" smooth="yes"/>
      <point x="485" y="1436"/>
      <point x="536" y="1413"/>
      <point x="584" y="1388" type="curve" smooth="yes"/>
      <point x="632" y="1363"/>
      <point x="676" y="1340"/>
      <point x="716" y="1340" type="curve" smooth="yes"/>
      <point x="767" y="1340"/>
      <point x="786" y="1385"/>
      <point x="770" y="1430" type="curve"/>
      <point x="842" y="1430" type="line"/>
      <point x="854" y="1385"/>
      <point x="847" y="1346"/>
      <point x="822" y="1312" type="curve" smooth="yes"/>
      <point x="797" y="1277"/>
      <point x="760" y="1260"/>
    </contour>
    <contour>
      <point x="942" y="0" type="line"/>
      <point x="942" y="572" type="line" smooth="yes"/>
      <point x="942" y="649"/>
      <point x="934" y="716"/>
      <point x="919" y="773" type="curve" smooth="yes"/>
      <point x="903" y="829"/>
      <point x="880" y="876"/>
      <point x="849" y="913" type="curve" smooth="yes"/>
      <point x="818" y="950"/>
      <point x="781" y="977"/>
      <point x="738" y="995" type="curve" smooth="yes"/>
      <point x="694" y="1013"/>
      <point x="644" y="1022"/>
      <point x="588" y="1022" type="curve" smooth="yes"/>
      <point x="456" y="1022"/>
      <point x="364" y="973"/>
      <point x="307" y="893" type="curve" smooth="yes"/>
      <point x="250" y="813"/>
      <point x="224" y="706"/>
      <point x="224" y="590" type="curve"/>
      <point x="146" y="588" type="line"/>
      <point x="146" y="711"/>
      <point x="166" y="811"/>
      <point x="207" y="887" type="curve" smooth="yes"/>
      <point x="248" y="962"/>
      <point x="302" y="1017"/>
      <point x="369" y="1052" type="curve" smooth="yes"/>
      <point x="436" y="1087"/>
      <point x="509" y="1104"/>
      <point x="588" y="1104" type="curve" smooth="yes"/>
      <point x="643" y="1104"/>
      <point x="693" y="1096"/>
      <point x="739" y="1081" type="curve" smooth="yes"/>
      <point x="784" y="1066"/>
      <point x="825" y="1044"/>
      <point x="861" y="1015" type="curve" smooth="yes"/>
      <point x="896" y="986"/>
      <point x="926" y="950"/>
      <point x="951" y="908" type="curve" smooth="yes"/>
      <point x="1000" y="824"/>
      <point x="1026" y="716"/>
      <point x="1026" y="588" type="curve" smooth="yes"/>
      <point x="1026" y="0" type="line"/>
    </contour>
    <contour>
      <point x="140" y="0" type="line"/>
      <point x="140" y="1080" type="line"/>
      <point x="218" y="1080" type="line"/>
      <point x="218" y="860" type="line"/>
      <point x="224" y="860" type="line"/>
      <point x="224" y="0" type="line"/>
    </contour>
  </outline>
</glyph>
<glyph name="otilde" format="2">
  <advance width="1148"/>
  <unicode hex="00F5"/>
  <outline>
    <contour>
      <point x="714" y="1260" type="curve" smooth="yes"/>
      <point x="662" y="1260"/>
      <point x="612" y="1283"/>
      <point x="564" y="1308" type="curve" smooth="yes"/>
      <point x="516" y="1333"/>
      <point x="472" y="1356"/>
      <point x="432" y="1356" type="curve" smooth="yes"/>
      <point x="403" y="1356"/>
      <point x="386" y="1346"/>
      <point x="379" y="1327" type="curve" smooth="yes"/>
      <point x="372" y="1307"/>
      <point x="371" y="1288"/>
      <point x="378" y="1270" type="curve"/>
      <point x="306" y="1270" type="line"/>
      <point x="294" y="1316"/>
      <point x="301" y="1355"/>
      <point x="327" y="1388" type="curve" smooth="yes"/>
      <point x="352" y="1420"/>
      <point x="388" y="1436"/>
      <point x="434" y="1436" type="curve" smooth="yes"/>
      <point x="487" y="1436"/>
      <point x="538" y="1413"/>
      <point x="586" y="1388" type="curve" smooth="yes"/>
      <point x="634" y="1363"/>
      <point x="678" y="1340"/>
      <point x="718" y="1340" type="curve" smooth="yes"/>
      <point x="769" y="1340"/>
      <point x="788" y="1385"/>
      <point x="772" y="1430" type="curve"/>
      <point x="844" y="1430" type="line"/>
      <point x="856" y="1385"/>
      <point x="849" y="1346"/>
      <point x="824" y="1312" type="curve" smooth="yes"/>
      <point x="799" y="1277"/>
      <point x="762" y="1260"/>
    </contour>
    <contour>
      <point x="574" y="-30" type="curve" smooth="yes"/>
      <point x="467" y="-30"/>
      <point x="377" y="-6"/>
      <point x="304" y="43" type="curve" smooth="yes"/>
      <point x="157" y="140"/>
      <point x="80" y="318"/>
      <point x="80" y="542" type="curve" smooth="yes"/>
      <point x="80" y="655"/>
      <point x="99" y="755"/>
      <point x="138" y="840" type="curve" smooth="yes"/>
      <point x="215" y="1011"/>
      <point x="365" y="1110"/>
      <point x="574" y="1110" type="curve" smooth="yes"/>
      <point x="681" y="1110"/>
      <point x="772" y="1086"/>
      <point x="845" y="1038" type="curve" smooth="yes"/>
      <point x="992" y="941"/>
      <point x="1068" y="765"/>
      <point x="1068" y="542" type="curve" smooth="yes"/>
      <point x="1068" y="428"/>
      <point x="1049" y="328"/>
      <point x="1011" y="243" type="curve" smooth="yes"/>
      <point x="973" y="157"/>
      <point x="917" y="90"/>
      <point x="844" y="42" type="curve" smooth="yes"/>
      <point x="770" y="-6"/>
      <point x="680" y="-30"/>
    </contour>
    <contour>
      <point x="574" y="54" type="curve" smooth="yes"/>
      <point x="710" y="54"/>
      <point x="811" y="99"/>
      <point x="878" y="190" type="curve" smooth="yes"/>
      <point x="945" y="280"/>
      <point x="978" y="397"/>
      <point x="978" y="542" type="curve" smooth="yes"/>
      <point x="978" y="689"/>
      <point x="945" y="807"/>
      <point x="878" y="895" type="curve" smooth="yes"/>
      <point x="811" y="982"/>
      <point x="709" y="1026"/>
      <point x="574" y="1026" type="curve" smooth="yes"/>
      <point x="483" y="1026"/>
      <point x="407" y="1005"/>
      <point x="348" y="964" type="curve" smooth="yes"/>
      <point x="228" y="881"/>
      <point x="170" y="731"/>
      <point x="170" y="542" type="curve" smooth="yes"/>
      <point x="170" y="395"/>
      <point x="204" y="277"/>
      <point x="273" y="188" type="curve" smooth="yes"/>
      <point x="341" y="99"/>
      <point x="441" y="54"/>
    </contour>
  </outline>
</glyph>
<glyph name="oslash" format="2">
  <advance width="1148"/>
  <unicode hex="00F8"/>
  <outline>
    <contour>
      <point x="92" y="0" type="line"/>
      <point x="32" y="60" type="line"/>
      <point x="196" y="224" type="line"/>
      <point x="218" y="246" type="line"/>
      <point x="894" y="920" type="line"/>
      <point x="920" y="946" type="line"/>
      <point x="1056" y="1080" type="line"/>
      <point x="1116" y="1022" type="line"/>
      <point x="956" y="864" type="line"/>
      <point x="934" y="842" type="line"/>
      <point x="272" y="180" type="line"/>
      <point x="250" y="158" type="line"/>
    </contour>
    <contour>
      <point x="574" y="-30" type="qcurve" smooth="yes"/>
      <point x="414" y="-30"/>
      <point x="194" y="116"/>
      <point x="80" y="374"/>
      <point x="80" y="542" type="qcurve" smooth="yes"/>
      <point x="80" y="712"/>
      <point x="196" y="968"/>
      <point x="417" y="1110"/>
      <point x="574" y="1110" type="qcurve" smooth="yes"/>
      <point x="735" y="1110"/>
      <point x="955" y="965"/>
      <point x="1068" y="709"/>
      <point x="1068" y="542" type="qcurve" smooth="yes"/>
      <point x="1068" y="371"/>
      <point x="954" y="114"/>
      <point x="733" y="-30"/>
    </contour>
    <contour>
      <point x="574" y="54" type="qcurve" smooth="yes"/>
      <point x="778" y="54"/>
      <point x="978" y="325"/>
      <point x="978" y="542" type="qcurve" smooth="yes"/>
      <point x="978" y="763"/>
      <point x="777" y="1026"/>
      <point x="574" y="1026" type="qcurve" smooth="yes"/>
      <point x="437" y="1026"/>
      <point x="258" y="902"/>
      <point x="170" y="684"/>
      <point x="170" y="542" type="qcurve" smooth="yes"/>
      <point x="170" y="322"/>
      <point x="375" y="54"/>
    </contour>
  </outline>
</glyph>
<glyph name="yacute" format="2">
  <advance width="1146"/>
  <unicode hex="00FD"/>
  <outline>
    <contour>
      <point x="541" y="1530" type="line"/>
      <point x="637" y="1530" type="line"/>
      <point x="541" y="1260" type="line"/>
      <point x="475" y="1260" type="line"/>
    </contour>
    <contour>
      <point x="578" y="80" type="line"/>
      <point x="132" y="1080" type="line"/>
      <point x="40" y="1080" type="line"/>
      <point x="520" y="0" type="line"/>
      <point x="546" y="0" type="line"/>
      <point x="501" y="-119"/>
      <point x="471" y="-200"/>
      <point x="445" y="-257" type="curve" smooth="yes"/>
      <point x="419" y="-313"/>
      <point x="398" y="-345"/>
      <point x="374" y="-364" type="curve" smooth="yes"/>
      <point x="353" y="-380"/>
      <point x="334" y="-388"/>
      <point x="310" y="-392" type="curve"/>
      <point x="286" y="-395"/>
      <point x="259" y="-395"/>
      <point x="220" y="-392" type="curve"/>
      <point x="220" y="-478" type="line"/>
      <point x="271" y="-479"/>
      <point x="305" y="-479"/>
      <point x="333" y="-475" type="curve"/>
      <point x="361" y="-470"/>
      <point x="383" y="-461"/>
      <point x="408" y="-444" type="curve"/>
      <point x="435" y="-427"/>
      <point x="457" y="-404"/>
      <point x="479" y="-372" type="curve" smooth="yes"/>
      <point x="501" y="-340"/>
      <point x="520" y="-299"/>
      <point x="540" y="-246" type="curve" smooth="yes"/>
      <point x="1054" y="1078" type="line"/>
      <point x="964" y="1078" type="line"/>
    </contour>
  </outline>
</glyph>
<glyph name="thorn" format="2">
  <advance width="1202"/>
  <unicode hex="00FE"/>
  <outline>
    <contour>
      <point x="140" y="-480" type="line"/>
      <point x="140" y="1442" type="line"/>
      <point x="224" y="1442" type="line"/>
      <point x="224" y="-480" type="line"/>
    </contour>
    <contour>
      <point x="628" y="-30" type="qcurve" smooth="yes"/>
      <point x="508" y="-30"/>
      <point x="330" y="54"/>
      <point x="212" y="206"/>
      <point x="154" y="416"/>
      <point x="154" y="542" type="qcurve" smooth="yes"/>
      <point x="154" y="670"/>
      <point x="214" y="879"/>
      <point x="333" y="1028"/>
      <point x="510" y="1110"/>
      <point x="628" y="1110" type="qcurve" smooth="yes"/>
      <point x="749" y="1110"/>
      <point x="933" y="1026"/>
      <point x="1058" y="876"/>
      <point x="1122" y="667"/>
      <point x="1122" y="542" type="qcurve" smooth="yes"/>
      <point x="1122" y="414"/>
      <point x="1057" y="203"/>
      <point x="931" y="53"/>
      <point x="747" y="-30"/>
    </contour>
    <contour>
      <point x="628" y="54" type="qcurve" smooth="yes"/>
      <point x="730" y="54"/>
      <point x="882" y="125"/>
      <point x="982" y="254"/>
      <point x="1032" y="433"/>
      <point x="1032" y="542" type="qcurve" smooth="yes"/>
      <point x="1032" y="652"/>
      <point x="982" y="831"/>
      <point x="881" y="957"/>
      <point x="729" y="1026"/>
      <point x="628" y="1026" type="qcurve" smooth="yes"/>
      <point x="525" y="1026"/>
      <point x="373" y="955"/>
      <point x="273" y="826"/>
      <point x="224" y="649"/>
      <point x="224" y="542" type="qcurve" smooth="yes"/>
      <point x="224" y="432"/>
      <point x="275" y="252"/>
      <point x="377" y="124"/>
      <point x="528" y="54"/>
    </contour>
  </outline>
</glyph>
<glyph name="Amacron" format="2">
  <advance width="1218"/>
  <unicode hex="0100"/>
  <outline>
    <contour>
      <point x="370" y="1680" type="line"/>
      <point x="370" y="1764" type="line"/>
      <point x="850" y="1764" type="line"/>
      <point x="850" y="1680" type="line"/>
    </contour>
    <contour>
      <point x="40" y="0" type="line"/>
      <point x="564" y="1440" type="line"/>
      <point x="654" y="1440" type="line"/>
      <point x="1178" y="0" type="line"/>
      <point x="1088" y="0" type="line"/>
      <point x="578" y="1402" type="line"/>
      <point x="638" y="1402" type="line"/>
      <point x="130" y="0" type="line"/>
    </contour>
    <contour>
      <point x="240" y="374" type="line"/>
      <point x="240" y="454" type="line"/>
      <point x="976" y="454" type="line"/>
      <point x="976" y="374" type="line"/>
    </contour>
  </outline>
</glyph>
<glyph name="amacron" format="2">
  <advance width="1084"/>
  <unicode hex="0101"/>
  <outline>
    <component base="a"/>
    <contour>
      <point x="348" y="1320" type="line"/>
      <point x="348" y="1404" type="line"/>
      <point x="828" y="1404" type="line"/>
      <point x="828" y="1320" type="line"/>
    </contour>
  </outline>
</glyph>
<glyph name="Abreve" format="2">
  <advance width="1218"/>
  <unicode hex="0102"/>
  <outline>
    <contour>
      <point x="610" y="1572" type="curve" smooth="yes"/>
      <point x="568" y="1572"/>
      <point x="530" y="1582"/>
      <point x="495" y="1603" type="curve" smooth="yes"/>
      <point x="426" y="1644"/>
      <point x="382" y="1716"/>
      <point x="382" y="1800" type="curve"/>
      <point x="460" y="1800" type="line"/>
      <point x="460" y="1759"/>
      <point x="475" y="1724"/>
      <point x="505" y="1695" type="curve"/>
      <point x="534" y="1665"/>
      <point x="569" y="1650"/>
      <point x="610" y="1650" type="curve" smooth="yes"/>
      <point x="652" y="1650"/>
      <point x="688" y="1665"/>
      <point x="717" y="1695" type="curve" smooth="yes"/>
      <point x="746" y="1724"/>
      <point x="760" y="1759"/>
      <point x="760" y="1800" type="curve"/>
      <point x="838" y="1800" type="line"/>
      <point x="838" y="1758"/>
      <point x="828" y="1720"/>
      <point x="808" y="1686" type="curve" smooth="yes"/>
      <point x="767" y="1617"/>
      <point x="694" y="1572"/>
    </contour>
    <contour>
      <point x="40" y="0" type="line"/>
      <point x="564" y="1440" type="line"/>
      <point x="654" y="1440" type="line"/>
      <point x="1178" y="0" type="line"/>
      <point x="1088" y="0" type="line"/>
      <point x="578" y="1402" type="line"/>
      <point x="638" y="1402" type="line"/>
      <point x="130" y="0" type="line"/>
    </contour>
    <contour>
      <point x="240" y="374" type="line"/>
      <point x="240" y="454" type="line"/>
      <point x="976" y="454" type="line"/>
      <point x="976" y="374" type="line"/>
    </contour>
  </outline>
</glyph>
<glyph name="abreve" format="2">
  <advance width="1084"/>
  <unicode hex="0103"/>
  <outline>
    <component base="a"/>
    <contour>
      <point x="560" y="1212" type="qcurve" smooth="yes"/>
      <point x="497" y="1212"/>
      <point x="393" y="1274"/>
      <point x="332" y="1377"/>
      <point x="332" y="1440" type="qcurve"/>
      <point x="410" y="1440" type="line"/>
      <point x="410" y="1379"/>
      <point x="499" y="1290"/>
      <point x="560" y="1290" type="qcurve" smooth="yes"/>
      <point x="623" y="1290"/>
      <point x="710" y="1379"/>
      <point x="710" y="1440" type="qcurve"/>
      <point x="788" y="1440" type="line"/>
      <point x="788" y="1377"/>
      <point x="727" y="1274"/>
      <point x="623" y="1212"/>
    </contour>
  </outline>
</glyph>
<glyph name="Aogonek" format="2">
  <advance width="1218"/>
  <unicode hex="0104"/>
  <outline>
    <contour>
      <point x="1036" y="-484" type="qcurve" smooth="yes"/>
      <point x="989" y="-484"/>
      <point x="909" y="-434"/>
      <point x="860" y="-352"/>
      <point x="860" y="-304" type="qcurve" smooth="yes"/>
      <point x="860" y="-244"/>
      <point x="930" y="-115"/>
      <point x="1046" y="11"/>
      <point x="1116" y="66" type="qcurve"/>
      <point x="1178" y="0" type="line"/>
      <point x="1117" y="-40"/>
      <point x="1012" y="-144"/>
      <point x="948" y="-255"/>
      <point x="948" y="-304" type="qcurve" smooth="yes"/>
      <point x="948" y="-349"/>
      <point x="1002" y="-404"/>
      <point x="1036" y="-404" type="qcurve" smooth="yes"/>
      <point x="1063" y="-404"/>
      <point x="1118" y="-371"/>
      <point x="1140" y="-346" type="qcurve"/>
      <point x="1190" y="-402" type="line"/>
      <point x="1157" y="-444"/>
      <point x="1077" y="-484"/>
    </contour>
    <contour>
      <point x="40" y="0" type="line"/>
      <point x="564" y="1440" type="line"/>
      <point x="654" y="1440" type="line"/>
      <point x="1178" y="0" type="line"/>
      <point x="1088" y="0" type="line"/>
      <point x="578" y="1402" type="line"/>
      <point x="638" y="1402" type="line"/>
      <point x="130" y="0" type="line"/>
    </contour>
    <contour>
      <point x="240" y="374" type="line"/>
      <point x="240" y="454" type="line"/>
      <point x="976" y="454" type="line"/>
      <point x="976" y="374" type="line"/>
    </contour>
  </outline>
</glyph>
<glyph name="aogonek" format="2">
  <advance width="1084"/>
  <unicode hex="0105"/>
  <outline>
    <component base="a"/>
    <contour>
      <point x="822" y="-484" type="curve" smooth="yes"/>
      <point x="791" y="-484"/>
      <point x="762" y="-476"/>
      <point x="735" y="-459" type="curve" smooth="yes"/>
      <point x="682" y="-426"/>
      <point x="646" y="-368"/>
      <point x="646" y="-304" type="curve" smooth="yes"/>
      <point x="646" y="-264"/>
      <point x="658" y="-223"/>
      <point x="681" y="-180" type="curve" smooth="yes"/>
      <point x="728" y="-94"/>
      <point x="809" y="-7"/>
      <point x="902" y="66" type="curve"/>
      <point x="964" y="0" type="line"/>
      <point x="923" y="-27"/>
      <point x="886" y="-57"/>
      <point x="851" y="-92" type="curve" smooth="yes"/>
      <point x="781" y="-161"/>
      <point x="734" y="-239"/>
      <point x="734" y="-304" type="curve" smooth="yes"/>
      <point x="734" y="-364"/>
      <point x="777" y="-404"/>
      <point x="822" y="-404" type="curve" smooth="yes"/>
      <point x="858" y="-404"/>
      <point x="897" y="-379"/>
      <point x="926" y="-346" type="curve"/>
      <point x="976" y="-402" type="line"/>
      <point x="932" y="-458"/>
      <point x="877" y="-484"/>
    </contour>
  </outline>
</glyph>
<glyph name="Cdotaccent" format="2">
  <advance width="1400"/>
  <unicode hex="010A"/>
  <outline>
    <contour>
      <point x="726" y="1667" type="qcurve" smooth="yes"/>
      <point x="695" y="1667"/>
      <point x="652" y="1709"/>
      <point x="652" y="1740" type="qcurve" smooth="yes"/>
      <point x="652" y="1772"/>
      <point x="695" y="1814"/>
      <point x="726" y="1814" type="qcurve" smooth="yes"/>
      <point x="757" y="1814"/>
      <point x="800" y="1772"/>
      <point x="800" y="1740" type="qcurve" smooth="yes"/>
      <point x="800" y="1709"/>
      <point x="757" y="1667"/>
    </contour>
    <contour>
      <point x="706" y="-30" type="qcurve" smooth="yes"/>
      <point x="491" y="-30"/>
      <point x="204" y="162"/>
      <point x="60" y="500"/>
      <point x="60" y="720" type="qcurve" smooth="yes"/>
      <point x="60" y="940"/>
      <point x="204" y="1278"/>
      <point x="491" y="1470"/>
      <point x="706" y="1470" type="qcurve" smooth="yes"/>
      <point x="958" y="1470"/>
      <point x="1266" y="1207"/>
      <point x="1320" y="988" type="qcurve"/>
      <point x="1232" y="968" type="line"/>
      <point x="1184" y="1159"/>
      <point x="921" y="1386"/>
      <point x="706" y="1386" type="qcurve" smooth="yes"/>
      <point x="521" y="1386"/>
      <point x="276" y="1216"/>
      <point x="152" y="915"/>
      <point x="150" y="720" type="qcurve" smooth="yes"/>
      <point x="148" y="525"/>
      <point x="272" y="225"/>
      <point x="521" y="54"/>
      <point x="706" y="54" type="qcurve" smooth="yes"/>
      <point x="921" y="54"/>
      <point x="1184" y="282"/>
      <point x="1232" y="472" type="qcurve"/>
      <point x="1320" y="452" type="line"/>
      <point x="1266" y="233"/>
      <point x="958" y="-30"/>
    </contour>
  </outline>
</glyph>
